<svg width="16" height="15" viewBox="0 0 16 15" fill="none" xmlns="http://www.w3.org/2000/svg">
<path d="M1.625 11.8063V13.625H14.375V11.8063H1.625ZM4.49375 3.5V1.625C4.49375 1.325 4.60625 1.0625 4.83125 0.8375C5.05625 0.6125 5.31875 0.5 5.61875 0.5H10.3625C10.6625 0.5 10.925 0.6125 11.15 0.8375C11.375 1.0625 11.4875 1.325 11.4875 1.625V3.5H14.375C14.675 3.5 14.9375 3.6125 15.1625 3.8375C15.3875 4.0625 15.5 4.325 15.5 4.625V13.625C15.5 13.925 15.3875 14.1875 15.1625 14.4125C14.9375 14.6375 14.675 14.75 14.375 14.75H1.625C1.325 14.75 1.0625 14.6375 0.8375 14.4125C0.6125 14.1875 0.5 13.925 0.5 13.625V4.625C0.5 4.325 0.6125 4.0625 0.8375 3.8375C1.0625 3.6125 1.325 3.5 1.625 3.5H4.49375ZM1.625 9.78125H14.375V4.625H11.4875V6.03125H10.3625V4.625H5.61875V6.03125H4.49375V4.625H1.625V9.78125ZM5.61875 3.5H10.3625V1.625H5.61875V3.5ZM1.625 13.625V4.625V6.03125V4.625V6.03125V4.625V13.625Z" fill="black"/>
</svg>
