<svg width="42" height="42" viewBox="0 0 42 42" fill="none" xmlns="http://www.w3.org/2000/svg">
<g clip-path="url(#clip0_553_27028)">
<path d="M15.243 24.8652L9.87091 30.2373L11.7665 32.1329L17.1386 26.7608L15.243 24.8652Z" fill="#DCDCDC"/>
<path d="M36.8846 26.6045C30.9518 32.5372 21.3328 32.5372 15.4 26.6045L24.6345 14.3545L36.8845 5.11996C42.8173 11.0526 42.8173 20.6716 36.8846 26.6045Z" fill="#42C8C6"/>
<path d="M36.8845 5.1198L15.3999 26.6045C9.46719 20.6717 9.46719 11.0527 15.3999 5.11988C21.3327 -0.812936 30.9516 -0.812936 36.8845 5.1198Z" fill="#81E3E2"/>
<path d="M26.264 3.79901V27.9247C29.5463 27.8925 32.5166 26.5485 34.6729 24.3923C36.856 22.2092 38.2062 19.1932 38.2062 15.8618C38.2063 9.24022 32.8705 3.86423 26.264 3.79901Z" fill="#D5F6F5"/>
<path d="M26.264 3.79903C31.3898 3.88303 35.5254 9.25098 35.5254 15.8619C35.5254 22.4727 31.3898 27.8407 26.264 27.9247C26.2239 27.9256 26.1828 27.9256 26.1425 27.9256C19.4797 27.9256 14.0787 22.5246 14.0787 15.8619C14.0787 12.5305 15.429 9.51454 17.6121 7.33145C19.7952 5.14836 22.8111 3.79813 26.1425 3.79813C26.1828 3.79813 26.2239 3.79813 26.264 3.79903Z" fill="white"/>
<path d="M13.896 31.8992L12.0003 33.7948L8.20911 32.5311L12.6322 30.6354L13.896 31.8992Z" fill="#969696"/>
<path d="M10.7366 32.5311L1.19525 39.5449L2.45902 40.8087C3.15407 41.5037 4.29143 41.5037 4.98648 40.8087L12.0003 33.7948L10.7366 32.5311Z" fill="#FE834D"/>
<path d="M12.6322 30.6354L10.7366 32.5311H8.20911V30.0035L10.1048 28.1079L12.6322 30.6354Z" fill="#B9B9B9"/>
<path d="M10.7366 32.5311L3.72282 39.5449C3.02777 40.2399 1.89041 40.2399 1.19536 39.5449C0.50031 38.8498 0.50031 37.7125 1.19536 37.0174L8.20918 30.0036L10.7366 32.5311Z" fill="#FEA680"/>
<path d="M37.3585 4.64591C34.3625 1.64997 30.3791 0 26.1422 0C21.9052 0 17.9219 1.64997 14.926 4.64591C11.9301 7.64193 10.2801 11.6253 10.2801 15.8623C10.2801 19.4214 11.4449 22.8012 13.5932 25.5675L11.053 28.1077L10.5791 27.6338C10.4535 27.5081 10.283 27.4376 10.1052 27.4376C9.92748 27.4376 9.75702 27.5082 9.63135 27.6338L7.73602 29.5291C7.73512 29.53 0.721705 36.5434 0.721705 36.5434C-0.236418 37.5016 -0.236418 39.0606 0.721705 40.0187L1.98556 41.2826C2.4483 41.7454 3.06542 42.0001 3.72322 42.0001C4.38103 42.0001 4.99815 41.7452 5.46081 41.2826L14.3703 32.3732C14.632 32.1113 14.632 31.6871 14.3703 31.4253L13.8965 30.9515L16.4366 28.4113C19.2029 30.5597 22.5829 31.7245 26.1421 31.7245C30.3791 31.7245 34.3623 30.0746 37.3583 27.0786C43.543 20.8937 43.543 10.8306 37.3585 4.64591ZM4.5131 40.3345C4.30343 40.5441 4.02296 40.6595 3.72322 40.6595C3.42348 40.6595 3.14294 40.5441 2.93335 40.3345L1.66957 39.0707C1.45999 38.8611 1.34457 38.5806 1.34457 38.2809C1.34457 37.9811 1.45999 37.7006 1.66957 37.491L8.20959 30.951L11.053 33.7944L4.5131 40.3345ZM12.0008 32.8467L9.15737 30.0033L10.1052 29.0555L10.5786 29.5291C10.5794 29.5299 12.4742 31.4247 12.4742 31.4247C12.4752 31.4257 12.9485 31.899 12.9485 31.899L12.0008 32.8467ZM12.9488 30.0034L12.0008 29.0554L14.4624 26.5938C14.6134 26.7578 14.7674 26.9197 14.9259 27.0783C15.0844 27.2369 15.2463 27.3907 15.4102 27.5417L12.9488 30.0034ZM36.4106 26.1305C33.6679 28.8734 30.0212 30.3839 26.1422 30.3839C22.6941 30.3839 19.4302 29.1893 16.8209 26.9976C16.8167 26.994 16.8125 26.9904 16.8082 26.9868C16.4866 26.7161 16.1745 26.4312 15.8738 26.1305C10.2118 20.4686 10.2118 11.2557 15.8738 5.59386C18.6166 2.85099 22.2632 1.34047 26.1422 1.34047C30.0211 1.34047 33.6678 2.85099 36.4106 5.59386C42.0725 11.2558 42.0725 20.4686 36.4106 26.1305Z" fill="black"/>
<path d="M14.0795 15.1356C14.1047 15.1384 14.1296 15.1398 14.1544 15.1398C14.4914 15.1398 14.7816 14.8864 14.8197 14.5436C15.0581 12.3988 15.8949 10.3776 17.2395 8.69858C17.4708 8.40967 17.4242 7.98786 17.1353 7.75645C16.8464 7.52521 16.4246 7.57172 16.1933 7.86063C14.6897 9.73816 13.7541 11.9979 13.4875 14.3954C13.4466 14.7633 13.7117 15.0947 14.0795 15.1356Z" fill="black"/>
<path d="M35.1465 6.80555C30.5494 2.20861 23.2613 1.80264 18.1934 5.86129C17.9045 6.0927 17.8579 6.5145 18.0893 6.80342C18.3206 7.09225 18.7424 7.13909 19.0313 6.90751C23.5648 3.27657 30.0857 3.64021 34.1985 7.7535C36.3505 9.90542 37.5357 12.7666 37.5357 15.8099C37.5357 18.8531 36.3505 21.7144 34.1985 23.8663C29.7563 28.3088 22.5281 28.3087 18.0857 23.8663C16.2373 22.0179 15.1078 19.67 14.8195 17.0763C14.7786 16.7084 14.4473 16.4431 14.0793 16.4842C13.7114 16.5252 13.4464 16.8565 13.4873 17.2244C13.8096 20.1237 15.072 22.7481 17.1379 24.8142C19.6203 27.2966 22.8812 28.5378 26.1422 28.5378C29.4032 28.5378 32.6639 27.2966 35.1465 24.8142C37.5516 22.409 38.8761 19.2112 38.8761 15.8099C38.8761 12.4085 37.5516 9.2107 35.1465 6.80555Z" fill="black"/>
</g>
<defs>
<clipPath id="clip0_553_27028">
<rect width="42" height="42" fill="white"/>
</clipPath>
</defs>
</svg>
