<svg width="53" height="53" viewBox="0 0 53 53" fill="none" xmlns="http://www.w3.org/2000/svg">
<g clip-path="url(#clip0_554_16081)">
<path d="M52.1543 0.845734V26.5H48.7713L42.0053 13.6729L48.7713 0.845734H52.1543Z" fill="#02ACAB"/>
<path d="M48.7713 0.845734H26.5V26.5H48.7713V0.845734Z" fill="#42C8C6"/>
<path d="M43.6029 9.39716V35.0514H40.2199L33.454 22.2243L40.2199 9.39716H43.6029Z" fill="#FE5F1A"/>
<path d="M40.2203 9.39685H17.949V35.0511H40.2203V9.39685Z" fill="#FE834D"/>
<path d="M35.0514 17.9486V43.6029H31.6684L24.9024 30.7757L31.6684 17.9486H35.0514Z" fill="#FEA680"/>
<path d="M31.6681 17.949H9.39685V43.6033H31.6681V17.949Z" fill="#FFC1A6"/>
<path d="M26.5 26.5V52.1543H23.117L16.351 39.3271L23.117 26.5H26.5Z" fill="#FFE777"/>
<path d="M23.117 26.5H0.845734V52.1543H23.117V26.5Z" fill="#FFF1B1"/>
<path d="M52.1543 0H26.5C26.0329 0 25.6543 0.37866 25.6543 0.845723V8.55143H17.9486C17.4815 8.55143 17.1029 8.93009 17.1029 9.39715V17.1027H9.39715C8.93009 17.1027 8.55143 17.4814 8.55143 17.9485V25.6542H0.845723C0.37866 25.6543 0 26.0329 0 26.5V52.1543C0 52.6213 0.37866 53 0.845723 53H26.5C26.9672 53 27.3457 52.6213 27.3457 52.1543V26.5C27.3457 26.0329 26.9672 25.6543 26.5 25.6543H10.2429V18.7944H34.2056V42.7571H29.8829C29.4157 42.7571 29.0372 43.1358 29.0372 43.6029C29.0372 44.0699 29.4157 44.4486 29.8829 44.4486H35.0513C35.5185 44.4486 35.897 44.0699 35.897 43.6029V17.9486C35.897 17.4815 35.5185 17.1029 35.0513 17.1029H18.7944V10.2429H42.7571V34.2056H38.4343C37.9672 34.2056 37.5886 34.5843 37.5886 35.0513C37.5886 35.5184 37.9672 35.897 38.4343 35.897H43.6029C44.07 35.897 44.4486 35.5184 44.4486 35.0513V9.39715C44.4486 8.93009 44.07 8.55143 43.6029 8.55143H27.3457V1.69145H51.3086V25.6543H46.986C46.5188 25.6543 46.1402 26.0329 46.1402 26.5C46.1402 26.9671 46.5188 27.3457 46.986 27.3457H52.1544C52.6215 27.3457 53.0001 26.9671 53.0001 26.5V0.845723C53 0.37866 52.6214 0 52.1543 0ZM25.6543 51.3086H1.69145V27.3457H25.6543V51.3086Z" fill="black"/>
<path d="M6.52359 44.2V34.8H7.16359V44.2H6.52359ZM6.77359 43.08C6.24026 43.08 5.73026 43 5.24359 42.84C4.75693 42.6733 4.37359 42.46 4.09359 42.2L4.46359 41.42C4.73026 41.6533 5.07026 41.8467 5.48359 42C5.89693 42.1533 6.32693 42.23 6.77359 42.23C7.18026 42.23 7.51026 42.1833 7.76359 42.09C8.01693 41.9967 8.20359 41.87 8.32359 41.71C8.44359 41.5433 8.50359 41.3567 8.50359 41.15C8.50359 40.91 8.42359 40.7167 8.26359 40.57C8.11026 40.4233 7.90693 40.3067 7.65359 40.22C7.40693 40.1267 7.13359 40.0467 6.83359 39.98C6.53359 39.9133 6.23026 39.8367 5.92359 39.75C5.62359 39.6567 5.34693 39.54 5.09359 39.4C4.84693 39.26 4.64693 39.0733 4.49359 38.84C4.34026 38.6 4.26359 38.2933 4.26359 37.92C4.26359 37.56 4.35693 37.23 4.54359 36.93C4.73693 36.6233 5.03026 36.38 5.42359 36.2C5.82359 36.0133 6.33026 35.92 6.94359 35.92C7.35026 35.92 7.75359 35.9733 8.15359 36.08C8.55359 36.1867 8.90026 36.34 9.19359 36.54L8.86359 37.34C8.56359 37.14 8.24693 36.9967 7.91359 36.91C7.58026 36.8167 7.25693 36.77 6.94359 36.77C6.55026 36.77 6.22693 36.82 5.97359 36.92C5.72026 37.02 5.53359 37.1533 5.41359 37.32C5.30026 37.4867 5.24359 37.6733 5.24359 37.88C5.24359 38.1267 5.32026 38.3233 5.47359 38.47C5.63359 38.6167 5.83693 38.7333 6.08359 38.82C6.33693 38.9067 6.61359 38.9867 6.91359 39.06C7.21359 39.1267 7.51359 39.2033 7.81359 39.29C8.12026 39.3767 8.39693 39.49 8.64359 39.63C8.89693 39.77 9.10026 39.9567 9.25359 40.19C9.40693 40.4233 9.48359 40.7233 9.48359 41.09C9.48359 41.4433 9.38693 41.7733 9.19359 42.08C9.00026 42.38 8.70026 42.6233 8.29359 42.81C7.89359 42.99 7.38693 43.08 6.77359 43.08ZM12.7345 44.2V34.8H13.3745V44.2H12.7345ZM12.9845 43.08C12.4512 43.08 11.9412 43 11.4545 42.84C10.9679 42.6733 10.5845 42.46 10.3045 42.2L10.6745 41.42C10.9412 41.6533 11.2812 41.8467 11.6945 42C12.1079 42.1533 12.5379 42.23 12.9845 42.23C13.3912 42.23 13.7212 42.1833 13.9745 42.09C14.2279 41.9967 14.4145 41.87 14.5345 41.71C14.6545 41.5433 14.7145 41.3567 14.7145 41.15C14.7145 40.91 14.6345 40.7167 14.4745 40.57C14.3212 40.4233 14.1179 40.3067 13.8645 40.22C13.6179 40.1267 13.3445 40.0467 13.0445 39.98C12.7445 39.9133 12.4412 39.8367 12.1345 39.75C11.8345 39.6567 11.5579 39.54 11.3045 39.4C11.0579 39.26 10.8579 39.0733 10.7045 38.84C10.5512 38.6 10.4745 38.2933 10.4745 37.92C10.4745 37.56 10.5679 37.23 10.7545 36.93C10.9479 36.6233 11.2412 36.38 11.6345 36.2C12.0345 36.0133 12.5412 35.92 13.1545 35.92C13.5612 35.92 13.9645 35.9733 14.3645 36.08C14.7645 36.1867 15.1112 36.34 15.4045 36.54L15.0745 37.34C14.7745 37.14 14.4579 36.9967 14.1245 36.91C13.7912 36.8167 13.4679 36.77 13.1545 36.77C12.7612 36.77 12.4379 36.82 12.1845 36.92C11.9312 37.02 11.7445 37.1533 11.6245 37.32C11.5112 37.4867 11.4545 37.6733 11.4545 37.88C11.4545 38.1267 11.5312 38.3233 11.6845 38.47C11.8445 38.6167 12.0479 38.7333 12.2945 38.82C12.5479 38.9067 12.8245 38.9867 13.1245 39.06C13.4245 39.1267 13.7245 39.2033 14.0245 39.29C14.3312 39.3767 14.6079 39.49 14.8545 39.63C15.1079 39.77 15.3112 39.9567 15.4645 40.19C15.6179 40.4233 15.6945 40.7233 15.6945 41.09C15.6945 41.4433 15.5979 41.7733 15.4045 42.08C15.2112 42.38 14.9112 42.6233 14.5045 42.81C14.1045 42.99 13.5979 43.08 12.9845 43.08ZM18.9455 44.2V34.8H19.5855V44.2H18.9455ZM19.1955 43.08C18.6621 43.08 18.1521 43 17.6655 42.84C17.1788 42.6733 16.7955 42.46 16.5155 42.2L16.8855 41.42C17.1521 41.6533 17.4921 41.8467 17.9055 42C18.3188 42.1533 18.7488 42.23 19.1955 42.23C19.6021 42.23 19.9321 42.1833 20.1855 42.09C20.4388 41.9967 20.6255 41.87 20.7455 41.71C20.8655 41.5433 20.9255 41.3567 20.9255 41.15C20.9255 40.91 20.8455 40.7167 20.6855 40.57C20.5321 40.4233 20.3288 40.3067 20.0755 40.22C19.8288 40.1267 19.5555 40.0467 19.2555 39.98C18.9555 39.9133 18.6521 39.8367 18.3455 39.75C18.0455 39.6567 17.7688 39.54 17.5155 39.4C17.2688 39.26 17.0688 39.0733 16.9155 38.84C16.7621 38.6 16.6855 38.2933 16.6855 37.92C16.6855 37.56 16.7788 37.23 16.9655 36.93C17.1588 36.6233 17.4521 36.38 17.8455 36.2C18.2455 36.0133 18.7521 35.92 19.3655 35.92C19.7721 35.92 20.1755 35.9733 20.5755 36.08C20.9755 36.1867 21.3221 36.34 21.6155 36.54L21.2855 37.34C20.9855 37.14 20.6688 36.9967 20.3355 36.91C20.0021 36.8167 19.6788 36.77 19.3655 36.77C18.9721 36.77 18.6488 36.82 18.3955 36.92C18.1421 37.02 17.9555 37.1533 17.8355 37.32C17.7221 37.4867 17.6655 37.6733 17.6655 37.88C17.6655 38.1267 17.7421 38.3233 17.8955 38.47C18.0555 38.6167 18.2588 38.7333 18.5055 38.82C18.7588 38.9067 19.0355 38.9867 19.3355 39.06C19.6355 39.1267 19.9355 39.2033 20.2355 39.29C20.5421 39.3767 20.8188 39.49 21.0655 39.63C21.3188 39.77 21.5221 39.9567 21.6755 40.19C21.8288 40.4233 21.9055 40.7233 21.9055 41.09C21.9055 41.4433 21.8088 41.7733 21.6155 42.08C21.4221 42.38 21.1221 42.6233 20.7155 42.81C20.3155 42.99 19.8088 43.08 19.1955 43.08Z" fill="black"/>
</g>
<defs>
<clipPath id="clip0_554_16081">
<rect width="53" height="53" fill="white"/>
</clipPath>
</defs>
</svg>
