<svg width="50" height="50" viewBox="0 0 50 50" fill="none" xmlns="http://www.w3.org/2000/svg">
<path d="M11.3379 26.1159L0.797455 41.4894H49.2017V8.51065L11.3379 26.1159Z" fill="#FFE777"/>
<path d="M31.0507 25L17.7209 17.5532V26.1159L24.9996 33.6883L32.2783 26.1159L31.0507 25Z" fill="#FEDC3D"/>
<path d="M17.7209 26.1159L0.797455 41.4894V8.51065L17.7209 17.6053V26.1159Z" fill="#FFF1B1"/>
<path d="M18.9496 25L17.7209 26.1159L0.797455 8.51065L18.9496 25Z" fill="#FFE777"/>
<path d="M46.0103 11.8309V38.5904L32.2783 26.1159L46.0103 11.8309Z" fill="#FFF1B1"/>
<path d="M0.797455 8.51065L24.9996 30.4968L49.2017 8.51065H0.797455Z" fill="white"/>
<path d="M49.2021 7.7128H0.797852C0.357129 7.7128 0 8.07003 0 8.51065V41.4894C0 41.93 0.357129 42.2872 0.797852 42.2872H49.2021C49.6429 42.2872 50 41.93 50 41.4894V8.51065C50 8.07003 49.6429 7.7128 49.2021 7.7128ZM48.4043 40.6915H1.5957V9.3085H48.4043V40.6915Z" fill="black"/>
<path d="M3.72089 38.8341C3.87831 39.0074 4.09472 39.0955 4.31171 39.0955C4.50322 39.0955 4.69511 39.027 4.84794 38.8882L18.9495 26.0779L24.4636 31.087C24.6157 31.2252 24.8078 31.2943 25.0001 31.2943C25.1923 31.2943 25.3845 31.2253 25.5366 31.087L31.0508 26.0778L45.1527 38.8885C45.3056 39.0273 45.4976 39.0958 45.689 39.0958C45.9059 39.0958 46.1223 39.0077 46.2798 38.8344C46.5761 38.5082 46.5519 38.0036 46.2257 37.7073L32.2371 25L46.2254 12.2927C46.5516 11.9964 46.5758 11.4918 46.2795 11.1656C45.9831 10.8395 45.4785 10.8154 45.1523 11.1116L25 29.4186L4.84784 11.1119C4.52187 10.8157 4.01718 10.8397 3.7207 11.1659C3.42441 11.4921 3.44853 11.9967 3.7748 12.293L17.7629 25L3.7749 37.707C3.44872 38.0033 3.42451 38.5079 3.72089 38.8341Z" fill="black"/>
</svg>
