<svg width="50" height="50" viewBox="0 0 50 50" fill="none" xmlns="http://www.w3.org/2000/svg">
<g clip-path="url(#clip0_555_16152)">
<path d="M42.8193 35.5053V30.3191C42.8193 28.5639 41.3832 27.1276 39.6278 27.1276H36.4363V49.2021H39.6278C41.3831 49.2021 42.8193 47.766 42.8193 46.0106V40.8245L49.2023 38.1649L42.8193 35.5053Z" fill="#ABECEC"/>
<path d="M36.4364 27.1276H3.98955C2.23428 27.1276 0.79805 28.5638 0.79805 30.3191V46.0106C0.79805 47.7659 2.23418 49.2021 3.98955 49.2021H36.4363C38.1916 49.2021 39.6278 47.766 39.6278 46.0106V30.3191C39.6278 28.5639 38.1917 27.1276 36.4364 27.1276Z" fill="#D5F6F5"/>
<path d="M46.0108 0.797852H42.8193V22.8724H46.0108C47.7661 22.8724 49.2023 21.4362 49.2023 19.6809V3.98936C49.2023 2.23408 47.7662 0.797852 46.0108 0.797852Z" fill="#FFE777"/>
<path d="M46.0108 3.98936V19.6809C46.0108 21.4361 44.5747 22.8724 42.8193 22.8724H10.3726C8.61729 22.8724 7.18106 21.4362 7.18106 19.6809V14.4947L0.79805 11.8351L7.18106 9.17549V3.98936C7.18106 2.23408 8.61719 0.797852 10.3726 0.797852H42.8193C44.5747 0.797852 46.0108 2.23408 46.0108 3.98936Z" fill="#FFF1B1"/>
<path d="M36.4361 37.367H7.18086C6.74014 37.367 6.38301 37.7242 6.38301 38.1649C6.38301 38.6055 6.74014 38.9627 7.18086 38.9627H36.4361C36.8769 38.9627 37.234 38.6055 37.234 38.1649C37.2341 37.7242 36.877 37.367 36.4361 37.367Z" fill="black"/>
<path d="M36.4361 33.1117H7.18086C6.74014 33.1117 6.38301 33.469 6.38301 33.9096C6.38301 34.3502 6.74014 34.7074 7.18086 34.7074H36.4361C36.8769 34.7074 37.234 34.3502 37.234 33.9096C37.2341 33.469 36.877 33.1117 36.4361 33.1117Z" fill="black"/>
<path d="M21.8085 41.6224H7.18086C6.74014 41.6224 6.38301 41.9796 6.38301 42.4202C6.38301 42.8609 6.74014 43.2181 7.18086 43.2181H21.8085C22.2492 43.2181 22.6063 42.8609 22.6063 42.4202C22.6063 41.9796 22.2492 41.6224 21.8085 41.6224Z" fill="black"/>
<path d="M49.5091 37.4284L43.6171 34.9734V30.3191C43.6171 28.1193 41.8275 26.3298 39.6277 26.3298H3.98936C1.78955 26.3298 0 28.1193 0 30.3191V46.0106C0 48.2104 1.78955 50 3.98936 50H39.6276C41.8274 50 43.617 48.2104 43.617 46.0106V41.3563L49.509 38.9014C49.8063 38.7774 49.9999 38.487 49.9999 38.1648C49.9999 37.8427 49.8063 37.5523 49.5091 37.4284ZM42.5122 40.088C42.2148 40.2119 42.0213 40.5023 42.0213 40.8245V46.0106C42.0213 47.3306 40.9475 48.4043 39.6276 48.4043H3.98936C2.66953 48.4043 1.5957 47.3306 1.5957 46.0106V30.3191C1.5957 28.9992 2.66953 27.9255 3.98936 27.9255H39.6276C40.9475 27.9255 42.0213 28.9992 42.0213 30.3191V35.5053C42.0213 35.8274 42.2149 36.1179 42.5122 36.2418L47.1276 38.1648L42.5122 40.088Z" fill="black"/>
<path d="M12.766 11.8351C12.766 12.2757 13.1231 12.6329 13.5639 12.6329H42.8193C43.2601 12.6329 43.6172 12.2757 43.6172 11.8351C43.6172 11.3944 43.2601 11.0372 42.8193 11.0372H13.564C13.1231 11.0372 12.766 11.3944 12.766 11.8351Z" fill="black"/>
<path d="M42.8193 8.37762C43.2601 8.37762 43.6172 8.0204 43.6172 7.57977C43.6172 7.13915 43.2601 6.78192 42.8193 6.78192H13.5639C13.1231 6.78192 12.766 7.13915 12.766 7.57977C12.766 8.0204 13.1231 8.37762 13.5639 8.37762H42.8193Z" fill="black"/>
<path d="M13.5639 16.8883H28.1916C28.6323 16.8883 28.9895 16.531 28.9895 16.0904C28.9895 15.6498 28.6323 15.2926 28.1916 15.2926H13.5639C13.1231 15.2926 12.766 15.6498 12.766 16.0904C12.7659 16.531 13.123 16.8883 13.5639 16.8883Z" fill="black"/>
<path d="M46.0106 0H10.3724C8.17256 0 6.38301 1.78955 6.38301 3.98936V8.64365L0.490918 11.0986C0.193652 11.2226 0 11.513 0 11.8351C0 12.1572 0.193652 12.4477 0.490918 12.5716L6.38291 15.0266V19.6809C6.38291 21.8807 8.17246 23.6702 10.3723 23.6702H26.5958C27.0365 23.6702 27.3937 23.313 27.3937 22.8724C27.3937 22.4317 27.0365 22.0745 26.5958 22.0745H10.3724C9.05254 22.0745 7.97871 21.0008 7.97871 19.6809V14.4947C7.97871 14.1726 7.78506 13.8821 7.48779 13.7582L2.87236 11.8352L7.48779 9.91211C7.78516 9.78818 7.97871 9.49775 7.97871 9.17559V3.98936C7.97871 2.66943 9.05254 1.5957 10.3724 1.5957H46.0106C47.3305 1.5957 48.4043 2.66943 48.4043 3.98936V19.6809C48.4043 21.0008 47.3305 22.0745 46.0106 22.0745H29.7873C29.3466 22.0745 28.9895 22.4317 28.9895 22.8724C28.9895 23.313 29.3466 23.6702 29.7873 23.6702H46.0106C48.2104 23.6702 50 21.8807 50 19.6809V3.98936C50 1.78955 48.2104 0 46.0106 0Z" fill="black"/>
</g>
<defs>
<clipPath id="clip0_555_16152">
<rect width="50" height="50" fill="white"/>
</clipPath>
</defs>
</svg>
