<svg width="51" height="51" viewBox="0 0 51 51" fill="none" xmlns="http://www.w3.org/2000/svg">
<path d="M6.78192 0.813812V42.0479H10.8511L19.5319 21.4309L10.8511 0.813812H6.78192Z" fill="#FFE777"/>
<path d="M10.851 0.813812V42.0479L25.5 37.7074L40.1489 42.0479H44.2181V0.813812H10.851Z" fill="#FFF1B1"/>
<path d="M25.3524 27.4001L14.1064 42.0479H10.851C10.851 34.0072 17.3291 27.4792 25.3524 27.4001Z" fill="#42C8C6"/>
<path d="M25.5 7.32446V24.1436C20.8557 24.1436 17.0904 20.3783 17.0904 15.734C17.0904 11.0897 20.8557 7.32446 25.5 7.32446Z" fill="#FFC1A6"/>
<path d="M25.3524 27.4001C19.1282 27.5021 14.1064 34.0203 14.1064 42.0479H40.1489C40.1489 33.9573 33.5905 27.399 25.5 27.399C25.4512 27.399 25.4013 27.399 25.3524 27.4001Z" fill="#81E3E2"/>
<path d="M25.5 7.32446C22.6537 7.32446 20.3457 11.0898 20.3457 15.7341C20.3457 20.3784 22.6537 24.1436 25.5 24.1436C30.1443 24.1436 33.9096 20.3783 33.9096 15.734C33.9096 11.0897 30.1443 7.32446 25.5 7.32446Z" fill="#FFDBCC"/>
<path d="M25.5 24.9574C20.4143 24.9574 16.2766 20.8199 16.2766 15.734C16.2766 10.6482 20.4143 6.51068 25.5 6.51068C30.5858 6.51068 34.7234 10.6483 34.7234 15.7341C34.7234 20.82 30.5858 24.9574 25.5 24.9574ZM25.5 8.1383C21.3117 8.1383 17.9043 11.5457 17.9043 15.734C17.9043 19.9223 21.3117 23.3298 25.5 23.3298C29.6883 23.3298 33.0957 19.9224 33.0957 15.7341C33.0957 11.5458 29.6883 8.1383 25.5 8.1383Z" fill="black"/>
<path d="M25.5 18.9739C24.4339 18.9739 23.4736 18.3259 23.1105 17.3617C22.9523 16.9411 23.1649 16.4717 23.5855 16.3133C24.0056 16.1553 24.4756 16.3676 24.6339 16.7883C24.7594 17.1221 25.1075 17.3464 25.4998 17.3464C25.8921 17.3464 26.2402 17.1222 26.3657 16.7885C26.524 16.3678 26.9932 16.1555 27.414 16.3134C27.8346 16.4717 28.0474 16.9411 27.889 17.3617C27.5264 18.3259 26.5662 18.9739 25.5 18.9739Z" fill="black"/>
<path d="M39.966 39.5861C39.9053 39.5997 39.8448 39.6065 39.7851 39.6065C39.4134 39.6065 39.0779 39.3503 38.9921 38.9726C37.5546 32.6373 32.0064 28.2128 25.5 28.2128C18.9937 28.2128 13.4455 32.6372 12.0078 38.9724C11.9083 39.4107 11.4723 39.6845 11.0339 39.5859C10.5957 39.4864 10.321 39.0504 10.4204 38.612C11.1837 35.249 13.0894 32.1962 15.7863 30.0162C18.5238 27.8037 21.9734 26.5851 25.5001 26.5851C29.0268 26.5851 32.4763 27.8037 35.2139 30.0164C37.9109 32.1964 39.8166 35.2493 40.5798 38.6123C40.679 39.0507 40.4044 39.4866 39.966 39.5861Z" fill="black"/>
<path d="M6.78192 0H44.2181C44.6677 0 45.0319 0.364271 45.0319 0.813809V42.0478C45.0319 42.4973 44.6677 42.8616 44.2181 42.8616H6.78192C6.33238 42.8616 5.96811 42.4973 5.96811 42.0478V0.813809C5.96811 0.364271 6.33238 0 6.78192 0ZM7.59573 41.234H43.4043V1.62762H7.59583V41.234H7.59573Z" fill="black"/>
<path d="M6.78191 45.3033H13.2926C13.7421 45.3033 14.1064 45.6675 14.1064 46.1171C14.1064 46.5666 13.7421 46.9309 13.2926 46.9309H6.78191C6.33237 46.9309 5.9681 46.5666 5.9681 46.1171C5.9681 45.6674 6.33237 45.3033 6.78191 45.3033Z" fill="black"/>
<path d="M16.5479 45.3033H44.2181C44.6677 45.3033 45.0319 45.6675 45.0319 46.1171C45.0319 46.5666 44.6677 46.9309 44.2181 46.9309H16.5479C16.0984 46.9309 15.7341 46.5666 15.7341 46.1171C15.734 45.6674 16.0983 45.3033 16.5479 45.3033Z" fill="black"/>
<path d="M25.5 49.3724H44.2181C44.6677 49.3724 45.0319 49.7366 45.0319 50.1862C45.0319 50.6357 44.6677 51 44.2181 51H25.5C25.0505 51 24.6862 50.6357 24.6862 50.1862C24.6862 49.7366 25.0505 49.3724 25.5 49.3724Z" fill="black"/>
</svg>
