<svg width="51" height="51" viewBox="0 0 51 51" fill="none" xmlns="http://www.w3.org/2000/svg">
<path d="M21.1596 0.813812H24.415L21.1596 7.63476L17.9043 4.06915C17.9043 2.27877 19.3692 0.813812 21.1596 0.813812Z" fill="#4D4D4D"/>
<path d="M21.1596 4.06915L27.1276 7.32448L33.0957 4.06915C33.0957 2.27877 31.6308 0.813812 29.8404 0.813812H24.4148C22.6245 0.813812 21.1596 2.27877 21.1596 4.06915Z" fill="#737373"/>
<path d="M8.95206 4.06915H12.2074V50.1862H8.95206C5.37121 50.1862 2.4414 47.2564 2.4414 43.6755V10.5798C2.44149 6.99896 5.37121 4.06915 8.95206 4.06915Z" fill="#FE834D"/>
<path d="M5.69675 10.5798L10.0372 27.1276L5.69685 43.6755C5.69685 47.2564 8.62666 50.1862 12.2075 50.1862H42.0479C45.6288 50.1862 48.5586 47.2564 48.5586 43.6755V10.5798C48.5586 6.99896 45.6288 4.06915 42.0479 4.06915H12.2075C8.62656 4.06915 5.69675 6.99896 5.69675 10.5798Z" fill="#FEA680"/>
<path d="M8.95206 7.32446H12.2074V46.9308H8.95206C7.1573 46.9308 5.69673 45.4703 5.69673 43.6755V10.5798C5.69673 8.78504 7.1573 7.32446 8.95206 7.32446Z" fill="#EEEEEE"/>
<path d="M8.95211 10.5798V43.6755C8.95211 45.4703 10.4127 46.9308 12.2074 46.9308H42.0479C43.8427 46.9308 45.3033 45.4703 45.3033 43.6755V10.5798C45.3033 8.78504 43.8427 7.32446 42.0479 7.32446H12.2075C10.4127 7.32446 8.95211 8.78504 8.95211 10.5798Z" fill="white"/>
<path d="M8.95209 3.25533H17.1724C17.5504 1.40021 19.1944 0 21.1596 0H29.8405C30.2899 0 30.6543 0.364371 30.6543 0.813809C30.6543 1.26325 30.2899 1.62762 29.8405 1.62762H21.1596C20.0986 1.62762 19.194 2.30805 18.8581 3.25523H42.0479C46.0867 3.25523 49.3724 6.54095 49.3724 10.5797V43.6754C49.3724 47.7143 46.0867 51 42.0479 51H8.95219C4.91343 51 1.62771 47.7143 1.62771 43.6755V10.5798C1.62761 6.54105 4.91333 3.25533 8.95209 3.25533ZM3.25533 43.6755C3.25533 46.8168 5.81091 49.3723 8.95209 49.3723H42.0479C45.1892 49.3723 47.7447 46.8167 47.7447 43.6755V10.5798C47.7447 7.43853 45.1891 4.88305 42.0479 4.88305H8.95219C5.81091 4.88305 3.25543 7.43863 3.25543 10.5798V43.6755H3.25533Z" fill="black"/>
<path d="M8.95208 6.51068H42.0479C44.2917 6.51068 46.117 8.33602 46.117 10.5798V25.5C46.117 25.9495 45.7527 26.3138 45.3032 26.3138C44.8538 26.3138 44.4894 25.9495 44.4894 25.5V10.5798C44.4894 9.2335 43.3942 8.1383 42.0479 8.1383H8.95218C7.60586 8.1383 6.51065 9.2335 6.51065 10.5798V43.6755C6.51065 45.0219 7.60586 46.1171 8.95218 46.1171H42.0479C43.3942 46.1171 44.4894 45.0219 44.4894 43.6755V28.7553C44.4894 28.3059 44.8538 27.9415 45.3032 27.9415C45.7527 27.9415 46.117 28.3059 46.117 28.7553V43.6755C46.117 45.9193 44.2917 47.7447 42.0479 47.7447H8.95218C6.70838 47.7447 4.88304 45.9193 4.88304 43.6755V10.5798C4.88294 8.33602 6.70838 6.51068 8.95208 6.51068Z" fill="black"/>
<path d="M25.5 15.734C25.0505 15.734 24.6862 15.3696 24.6862 14.9202V11.6649C24.6862 11.2154 25.0505 10.851 25.5 10.851C25.9494 10.851 26.3138 11.2154 26.3138 11.6649V14.9202C26.3138 15.3696 25.9494 15.734 25.5 15.734Z" fill="#B9B9B9"/>
<path d="M33.1223 15.553C32.9716 15.8141 32.698 15.96 32.4167 15.96C32.2787 15.96 32.1387 15.9249 32.0106 15.8508C31.6213 15.6261 31.4881 15.1284 31.7128 14.7391L32.5266 13.3295C32.7513 12.9403 33.2491 12.807 33.6383 13.0317C34.0276 13.2564 34.1609 13.7542 33.9362 14.1434L33.1223 15.553Z" fill="#B9B9B9"/>
<path d="M37.0746 19.5053L38.4842 18.6915C38.8736 18.4667 39.3711 18.6001 39.5959 18.9893C39.8206 19.3786 39.6873 19.8763 39.2981 20.1011L37.8885 20.9149C37.7603 20.9889 37.6204 21.0241 37.4824 21.0241C37.2011 21.0241 36.9276 20.8781 36.7769 20.617C36.5521 20.2278 36.6853 19.73 37.0746 19.5053Z" fill="#B9B9B9"/>
<path d="M41.7766 27.1276C41.7766 27.5771 41.4122 27.9414 40.9627 27.9414H37.7074C37.258 27.9414 36.8936 27.5771 36.8936 27.1276C36.8936 26.6782 37.258 26.3138 37.7074 26.3138H40.9627C41.4122 26.3138 41.7766 26.6782 41.7766 27.1276Z" fill="#B9B9B9"/>
<path d="M37.8884 33.3405L39.2979 34.1543C39.6872 34.379 39.8205 34.8767 39.5958 35.2659C39.4451 35.527 39.1715 35.6729 38.8902 35.6729C38.7522 35.6729 38.6122 35.6377 38.4841 35.5637L37.0746 34.7499C36.6853 34.5252 36.552 34.0275 36.7767 33.6383C37.0015 33.2491 37.4993 33.1157 37.8884 33.3405Z" fill="#B9B9B9"/>
<path d="M33.6382 41.2236C33.51 41.2976 33.3701 41.3328 33.2321 41.3328C32.9508 41.3328 32.6773 41.1869 32.5266 40.9258L31.7128 39.5162C31.4881 39.127 31.6215 38.6293 32.0106 38.4045C32.4 38.1797 32.8976 38.313 33.1224 38.7023L33.9362 40.1119C34.1608 40.5012 34.0275 40.9989 33.6382 41.2236Z" fill="#B9B9B9"/>
<path d="M26.3138 42.5904C26.3138 43.0398 25.9494 43.4042 25.5 43.4042C25.0505 43.4042 24.6862 43.0398 24.6862 42.5904V39.3351C24.6862 38.8856 25.0505 38.5212 25.5 38.5212C25.9494 38.5212 26.3138 38.8856 26.3138 39.3351V42.5904Z" fill="#B9B9B9"/>
<path d="M18.9893 38.4044C19.3786 38.6291 19.5118 39.1268 19.2871 39.5161L18.4733 40.9257C18.3226 41.1868 18.0491 41.3327 17.7678 41.3327C17.6297 41.3327 17.4898 41.2975 17.3617 41.2235C16.9724 40.9988 16.8391 40.5011 17.0638 40.1119L17.8776 38.7023C18.1024 38.313 18.6001 38.1797 18.9893 38.4044Z" fill="#B9B9B9"/>
<path d="M13.9254 34.75L12.5158 35.5638C12.3876 35.6378 12.2476 35.673 12.1097 35.673C11.8284 35.673 11.5549 35.5271 11.4041 35.266C11.1794 34.8767 11.3128 34.3791 11.702 34.1544L13.1115 33.3405C13.5009 33.1157 13.9985 33.2491 14.2233 33.6384C14.4479 34.0276 14.3146 34.5253 13.9254 34.75Z" fill="#B9B9B9"/>
<path d="M14.1064 27.1276C14.1064 27.5771 13.742 27.9414 13.2926 27.9414H10.0372C9.5878 27.9414 9.22343 27.5771 9.22343 27.1276C9.22343 26.6782 9.5878 26.3138 10.0372 26.3138H13.2926C13.742 26.3138 14.1064 26.6782 14.1064 27.1276Z" fill="#B9B9B9"/>
<path d="M12.5157 18.6915L13.9253 19.5053C14.3145 19.73 14.4478 20.2278 14.2231 20.617C14.0724 20.8781 13.7989 21.024 13.5176 21.024C13.3795 21.024 13.2396 20.9889 13.1115 20.9149L11.7019 20.1011C11.3126 19.8763 11.1793 19.3786 11.4041 18.9893C11.6288 18.6002 12.1265 18.4668 12.5157 18.6915Z" fill="#B9B9B9"/>
<path d="M18.5832 15.9601C18.3019 15.9601 18.0284 15.8142 17.8777 15.5531L17.0639 14.1435C16.8391 13.7543 16.9725 13.2566 17.3617 13.0318C17.7511 12.807 18.2486 12.9404 18.4733 13.3296L19.2871 14.7392C19.5119 15.1285 19.3785 15.6261 18.9893 15.8509C18.8612 15.925 18.7212 15.9601 18.5832 15.9601Z" fill="#B9B9B9"/>
<path d="M26.3138 27.1276C26.3138 27.5771 25.9494 27.9414 25.5 27.9414H16.5479C16.0984 27.9414 15.7341 27.5771 15.7341 27.1276C15.7341 26.6782 16.0984 26.3138 16.5479 26.3138H24.6862V21.4309C24.6862 20.9814 25.0505 20.6171 25.5 20.6171C25.9494 20.6171 26.3138 20.9814 26.3138 21.4309V27.1276Z" fill="black"/>
</svg>
