<svg width="49" height="49" viewBox="0 0 49 49" fill="none" xmlns="http://www.w3.org/2000/svg">
<g clip-path="url(#clip0_555_16124)">
<path d="M0.782166 9.99707L39.0029 48.2179L41.2145 46.0063L24.3158 24.6842L2.99386 7.78546L0.782166 9.99707Z" fill="#81E3E2"/>
<path d="M48.2176 39.0025L9.99756 0.782471L2.99428 7.78574L41.2143 46.0058L48.2176 39.0025Z" fill="#ABECEC"/>
<path d="M7.4121 41.588V46.008L0.781982 48.2182L7.4121 41.588Z" fill="#4D4D4D"/>
<path d="M2.99196 41.588L6.85951 41.0355L6.30712 44.903L0.781982 48.2182L2.99196 41.588Z" fill="#737373"/>
<path d="M12.9373 38.2729L14.0422 43.7981L7.41212 46.008L6.30713 44.903L12.9373 38.2729Z" fill="#FFC1A6"/>
<path d="M5.20192 34.9579L14.2957 34.7043L11.8322 41.588L6.3071 44.9031L2.99194 41.588L5.20192 34.9579Z" fill="#FFDBCC"/>
<path d="M38.4664 12.0071L39.9397 17.9006L14.0423 43.7981L11.8323 41.588L38.4664 12.0071Z" fill="#FEDC3D"/>
<path d="M36.9929 12.0071L42.8864 14.9539L47.3066 10.5337C48.5221 9.31822 48.5221 7.32913 47.3066 6.1136L45.0966 3.90363L36.9929 12.0071Z" fill="#FE5F1A"/>
<path d="M5.20197 34.9579L9.62211 39.3779L13.1583 38.4939L39.0558 12.5964L31.0995 9.0603L5.20197 34.9579Z" fill="#FFF1B1"/>
<path d="M39.9389 13.4811L37.7289 11.2711L9.62226 39.3777L11.8323 41.5877L39.9389 13.4811Z" fill="#FFE777"/>
<path d="M42.8865 1.69356L45.0964 3.90354C46.312 5.11906 46.312 7.10815 45.0964 8.32368L39.2029 14.2172L34.0463 6.11351L38.4664 1.69337C39.6818 0.478034 41.6708 0.478033 42.8865 1.69356Z" fill="#FE834D"/>
<path d="M42.8859 14.9542L40.6759 12.7442L37.7292 15.6909L39.9392 17.9009L42.8859 14.9542Z" fill="#DCDCDC"/>
<path d="M40.6766 12.7441L34.0464 6.11389L31.0997 9.06059L37.7299 15.6908L40.6766 12.7441Z" fill="white"/>
<path d="M39.957 29.6361C39.9568 29.6359 34.6335 24.3126 34.6335 24.3126L43.439 15.5072C43.4399 15.5063 47.8595 11.0866 47.8595 11.0866C48.595 10.3512 49.0001 9.36981 49.0001 8.32378C49.0001 7.27755 48.595 6.29631 47.8595 5.56083L43.4395 1.14069C42.7039 0.405111 41.7226 0 40.6765 0C39.6303 0 38.6491 0.405016 37.9135 1.14069L24.6876 14.3665L10.5502 0.229305C10.2448 -0.076084 9.74978 -0.076084 9.44439 0.229305L0.229421 9.44418C-0.0759678 9.74956 -0.0759678 10.2446 0.229421 10.5499L12.7081 23.0286C12.8608 23.1812 13.061 23.2576 13.261 23.2576C13.461 23.2576 13.6613 23.1813 13.814 23.0286C14.1194 22.7232 14.1194 22.2281 13.814 21.9228L1.88815 9.99705L2.9939 8.8913L14.9197 20.817C15.0724 20.9696 15.2726 21.046 15.4726 21.046C15.6727 21.046 15.8729 20.9697 16.0256 20.817C16.331 20.5116 16.331 20.0165 16.0256 19.7112L4.09966 7.78545L9.99717 1.88784L11.8291 3.71979L10.1705 5.37861C9.8651 5.684 9.8651 6.17907 10.1705 6.48436C10.3232 6.63701 10.5233 6.71338 10.7235 6.71338C10.9235 6.71338 11.1237 6.63711 11.2764 6.48436L12.9352 4.82564L14.7676 6.65807L13.1089 8.31679C12.8034 8.62218 12.8034 9.11716 13.1088 9.42255C13.2615 9.57529 13.4615 9.65156 13.6617 9.65156C13.8618 9.65156 14.062 9.57529 14.2146 9.42255L15.8734 7.76382L17.7058 9.59615L16.0469 11.255C15.7416 11.5604 15.7416 12.0554 16.0469 12.3607C16.1997 12.5135 16.3997 12.5897 16.5999 12.5897C16.7999 12.5897 17.0001 12.5135 17.1529 12.3607L18.8116 10.702L20.6439 12.5343L18.9852 14.1932C18.6798 14.4985 18.6798 14.9936 18.9852 15.2989C19.138 15.4516 19.3381 15.5279 19.5382 15.5279C19.7383 15.5279 19.9384 15.4517 20.0912 15.2989L21.7499 13.6402L23.5822 15.4725L4.64928 34.4049C4.62861 34.4256 4.60956 34.4472 4.59176 34.4695C4.58726 34.475 4.58343 34.4811 4.57913 34.4867C4.56592 34.5042 4.55329 34.5218 4.54171 34.5402C4.5374 34.547 4.53357 34.5541 4.52936 34.561C4.51874 34.579 4.50869 34.5974 4.49969 34.616C4.49606 34.6234 4.49271 34.6308 4.48926 34.6383C4.48065 34.6576 4.4729 34.677 4.46591 34.6968C4.46428 34.7015 4.46199 34.7059 4.46036 34.7106L0.0403115 47.9708C-0.0532861 48.2518 0.0197354 48.5615 0.229229 48.771C0.378335 48.92 0.578163 49 0.782298 49C0.864985 49 0.948438 48.9869 1.0295 48.9599L14.2897 44.5398C14.2948 44.5381 14.2995 44.5355 14.3047 44.5338C14.3237 44.527 14.3425 44.5196 14.3611 44.5113C14.3692 44.5078 14.3771 44.5042 14.385 44.5003C14.4031 44.4914 14.4209 44.4818 14.4386 44.4713C14.4458 44.467 14.4533 44.4629 14.4605 44.4584C14.4784 44.447 14.4957 44.4347 14.5128 44.4218C14.5189 44.4173 14.5252 44.4131 14.531 44.4085C14.5532 44.3907 14.5749 44.3716 14.5955 44.351L33.5279 25.4187L35.3602 27.251L33.7015 28.9097C33.3961 29.2151 33.3961 29.7102 33.7015 30.0155C33.8542 30.1681 34.0544 30.2445 34.2545 30.2445C34.4545 30.2445 34.6547 30.1682 34.8074 30.0155L36.4662 28.3567L38.2985 30.1891L36.6397 31.8478C36.3343 32.1532 36.3343 32.6483 36.6397 32.9536C36.7924 33.1063 36.9924 33.1826 37.1926 33.1826C37.3927 33.1826 37.5929 33.1063 37.7456 32.9536L39.4043 31.2948L41.2367 33.1272L39.578 34.7859C39.2725 35.0913 39.2725 35.5863 39.5779 35.8916C39.7306 36.0444 39.9306 36.1207 40.1308 36.1207C40.3308 36.1207 40.5311 36.0444 40.6837 35.8916L42.3425 34.2329L44.175 36.0652L42.5162 37.7241C42.2108 38.0295 42.2108 38.5245 42.5162 38.8298C42.669 38.9825 42.8692 39.0588 43.0692 39.0588C43.2692 39.0588 43.4694 38.9826 43.6222 38.8298L45.2809 37.1711L47.1129 39.003L41.2153 44.9007L29.2894 32.9744C28.9839 32.669 28.4889 32.669 28.1835 32.9744C27.8781 33.2798 27.8781 33.7749 28.1835 34.0802L40.1093 46.0059L39.0035 47.1117L27.0773 35.1862C26.7716 34.8807 26.2767 34.8809 25.9715 35.1862C25.6661 35.4916 25.6661 35.9867 25.9715 36.292L38.4501 48.7707C38.6028 48.9234 38.8029 48.9997 39.0031 48.9997C39.2032 48.9997 39.4033 48.9234 39.556 48.7707L48.7711 39.5557C48.9177 39.4091 49 39.2102 49 39.0029C49 38.7955 48.9176 38.5966 48.7711 38.45L39.957 29.6361ZM14.0424 42.6921L6.308 34.9577L31.0994 10.1662L34.4138 13.4805L11.2795 36.615C10.9741 36.9203 10.9741 37.4154 11.2795 37.7207C11.4322 37.8734 11.6324 37.9497 11.8325 37.9497C12.0325 37.9497 12.2327 37.8735 12.3854 37.7207L35.5198 14.5864L37.1769 16.2435C37.3296 16.3961 37.5298 16.4725 37.7298 16.4725C37.9298 16.4725 38.1301 16.3962 38.2828 16.2435C38.5882 15.9381 38.5882 15.443 38.2828 15.1377L36.0729 12.9279C36.0726 12.9276 32.2055 9.06041 32.2055 9.06041L34.0464 7.21946L41.7808 14.9539L14.0424 42.6921ZM7.62344 45.1135L3.88681 41.3768L5.54391 36.4054L12.5949 43.4564L7.62344 45.1135ZM39.0192 2.24644C39.4594 1.8063 40.048 1.56388 40.6765 1.56388C41.3049 1.56388 41.8935 1.8063 42.3336 2.24644L46.7537 6.66658C47.6674 7.58036 47.6674 9.0672 46.7537 9.98097L42.8865 13.8481L35.1521 6.11371L39.0192 2.24644ZM3.33393 43.0354L5.96472 45.6663L2.0185 46.9817L3.33393 43.0354Z" fill="black"/>
</g>
<defs>
<clipPath id="clip0_555_16124">
<rect width="49" height="49" fill="white"/>
</clipPath>
</defs>
</svg>
