<svg width="17" height="17" viewBox="0 0 17 17" fill="none" xmlns="http://www.w3.org/2000/svg">
<path d="M15.9611 17L9.75139 10.7903C9.27917 11.1995 8.72824 11.5183 8.09861 11.7465C7.46898 11.9748 6.8 12.0889 6.09167 12.0889C4.39167 12.0889 2.95139 11.4986 1.77083 10.3181C0.590278 9.1375 0 7.71296 0 6.04444C0 4.37593 0.590278 2.95139 1.77083 1.77083C2.95139 0.590278 4.3838 0 6.06806 0C7.73657 0 9.15718 0.590278 10.3299 1.77083C11.5025 2.95139 12.0889 4.37593 12.0889 6.04444C12.0889 6.7213 11.9787 7.37454 11.7583 8.00417C11.538 8.6338 11.2074 9.22407 10.7667 9.775L17 15.9611L15.9611 17ZM6.06806 10.6722C7.34306 10.6722 8.42917 10.2197 9.32639 9.31458C10.2236 8.40949 10.6722 7.31944 10.6722 6.04444C10.6722 4.76944 10.2236 3.6794 9.32639 2.77431C8.42917 1.86921 7.34306 1.41667 6.06806 1.41667C4.77731 1.41667 3.6794 1.86921 2.77431 2.77431C1.86921 3.6794 1.41667 4.76944 1.41667 6.04444C1.41667 7.31944 1.86921 8.40949 2.77431 9.31458C3.6794 10.2197 4.77731 10.6722 6.06806 10.6722Z" fill="#66969C"/>
</svg>
