<svg width="24" height="26" viewBox="0 0 24 26" fill="none" xmlns="http://www.w3.org/2000/svg">
<path d="M7.875 13.975V7.9625L12 5.59L16.125 7.9625V13.975H13.875V10.075H10.125V13.975H7.875ZM12 23.4325C15.325 20.8108 17.7812 18.4329 19.3688 16.2987C20.9563 14.1646 21.75 12.285 21.75 10.66C21.75 8.10333 20.8062 6.0125 18.9187 4.3875C17.0312 2.7625 14.725 1.95 12 1.95C9.275 1.95 6.96875 2.7625 5.08125 4.3875C3.19375 6.0125 2.25 8.10333 2.25 10.66C2.25 12.285 3.0625 14.1646 4.6875 16.2987C6.3125 18.4329 8.75 20.8108 12 23.4325ZM12 26C7.975 23.0317 4.96875 20.2746 2.98125 17.7287C0.99375 15.1829 0 12.8267 0 10.66C0 7.41 1.20625 4.82083 3.61875 2.8925C6.03125 0.964166 8.825 0 12 0C15.175 0 17.9688 0.964166 20.3812 2.8925C22.7937 4.82083 24 7.41 24 10.66C24 12.8267 23.0063 15.1829 21.0188 17.7287C19.0313 20.2746 16.025 23.0317 12 26Z" fill="#66969C"/>
</svg>
