<svg width="40" height="40" viewBox="0 0 40 40" fill="none" xmlns="http://www.w3.org/2000/svg">
<circle cx="20" cy="20" r="19.5" fill="#57BAC0" stroke="#79747E"/>
<g filter="url(#filter0_d_1768_39328)">
<path d="M19.5 31.9063L18.2188 30.75C16.0104 28.7292 14.1875 26.9844 12.75 25.5156C11.3125 24.0469 10.1667 22.7344 9.3125 21.5781C8.45833 20.4219 7.85937 19.375 7.51562 18.4375C7.17187 17.5 7 16.5521 7 15.5938C7 13.7188 7.63021 12.151 8.89063 10.8906C10.151 9.63021 11.7083 9 13.5625 9C14.75 9 15.849 9.28125 16.8594 9.84375C17.8698 10.4062 18.75 11.2187 19.5 12.2812C20.375 11.1563 21.3021 10.3281 22.2813 9.79687C23.2604 9.26562 24.3125 9 25.4375 9C27.2917 9 28.849 9.63021 30.1094 10.8906C31.3698 12.151 32 13.7188 32 15.5938C32 16.5521 31.8281 17.5 31.4844 18.4375C31.1406 19.375 30.5417 20.4219 29.6875 21.5781C28.8333 22.7344 27.6875 24.0469 26.25 25.5156C24.8125 26.9844 22.9896 28.7292 20.7812 30.75L19.5 31.9063ZM19.5 29.4375C21.6042 27.5 23.3385 25.8385 24.7031 24.4531C26.0677 23.0677 27.151 21.8542 27.9531 20.8125C28.7552 19.7708 29.3177 18.8437 29.6406 18.0312C29.9635 17.2187 30.125 16.4063 30.125 15.5938C30.125 14.2188 29.6875 13.0885 28.8125 12.2031C27.9375 11.3177 26.8125 10.875 25.4375 10.875C24.375 10.875 23.3854 11.2031 22.4688 11.8594C21.5521 12.5156 20.8125 13.4375 20.25 14.625H18.7188C18.1771 13.4583 17.4479 12.5417 16.5312 11.875C15.6146 11.2083 14.625 10.875 13.5625 10.875C12.1875 10.875 11.0625 11.3177 10.1875 12.2031C9.3125 13.0885 8.875 14.2188 8.875 15.5938C8.875 16.4063 9.03646 17.224 9.35938 18.0469C9.68229 18.8698 10.2448 19.8073 11.0469 20.8594C11.849 21.9115 12.9375 23.125 14.3125 24.5C15.6875 25.875 17.4167 27.5208 19.5 29.4375Z" fill="white"/>
</g>
<defs>
<filter id="filter0_d_1768_39328" x="3" y="9" width="33" height="30.9062" filterUnits="userSpaceOnUse" color-interpolation-filters="sRGB">
<feFlood flood-opacity="0" result="BackgroundImageFix"/>
<feColorMatrix in="SourceAlpha" type="matrix" values="0 0 0 0 0 0 0 0 0 0 0 0 0 0 0 0 0 0 127 0" result="hardAlpha"/>
<feOffset dy="4"/>
<feGaussianBlur stdDeviation="2"/>
<feComposite in2="hardAlpha" operator="out"/>
<feColorMatrix type="matrix" values="0 0 0 0 0 0 0 0 0 0 0 0 0 0 0 0 0 0 0.25 0"/>
<feBlend mode="normal" in2="BackgroundImageFix" result="effect1_dropShadow_1768_39328"/>
<feBlend mode="normal" in="SourceGraphic" in2="effect1_dropShadow_1768_39328" result="shape"/>
</filter>
</defs>
</svg>
