<svg width="17" height="21" viewBox="0 0 17 21" fill="none" xmlns="http://www.w3.org/2000/svg">
<path d="M5.58325 11.4167V6.79167L8.33325 4.96667L11.0833 6.79167V11.4167H9.58325V8.41667H7.08325V11.4167H5.58325ZM8.33325 18.6917C10.5499 16.675 12.1874 14.8458 13.2458 13.2042C14.3041 11.5625 14.8333 10.1167 14.8333 8.86667C14.8333 6.9 14.2041 5.29167 12.9458 4.04167C11.6874 2.79167 10.1499 2.16667 8.33325 2.16667C6.51659 2.16667 4.97908 2.79167 3.72075 4.04167C2.46242 5.29167 1.83325 6.9 1.83325 8.86667C1.83325 10.1167 2.37492 11.5625 3.45825 13.2042C4.54159 14.8458 6.16658 16.675 8.33325 18.6917ZM8.33325 20.6667C5.64992 18.3833 3.64575 16.2625 2.32075 14.3042C0.995752 12.3458 0.333252 10.5333 0.333252 8.86667C0.333252 6.36667 1.13742 4.37501 2.74575 2.89167C4.35408 1.40834 6.21659 0.666672 8.33325 0.666672C10.4499 0.666672 12.3124 1.40834 13.9208 2.89167C15.5291 4.37501 16.3333 6.36667 16.3333 8.86667C16.3333 10.5333 15.6708 12.3458 14.3458 14.3042C13.0208 16.2625 11.0166 18.3833 8.33325 20.6667Z" fill="#66969C"/>
</svg>
