<svg width="24" height="24" viewBox="0 0 24 24" fill="none" xmlns="http://www.w3.org/2000/svg">
<path d="M16.87 5.77163C16.87 5.4299 17.1173 5.15293 17.4226 5.15293H18.0367C18.3419 5.15293 18.5893 5.4299 18.5893 5.77163C18.5893 6.11336 18.3419 6.39033 18.0367 6.39033H17.4226C17.1173 6.39033 16.87 6.11329 16.87 5.77163ZM15.8694 5.77163C15.8694 5.4299 15.622 5.15293 15.3168 5.15293H14.7028C14.3975 5.15293 14.1502 5.4299 14.1502 5.77163C14.1502 6.11336 14.3975 6.39033 14.7028 6.39033H15.3168C15.622 6.39033 15.8694 6.11329 15.8694 5.77163ZM14.4332 1.84125C15.0101 1.44624 15.6748 1.23747 16.3551 1.23747C16.4539 1.23747 16.5518 1.2418 16.6487 1.25039C16.1366 2.14042 15.3921 2.7838 14.5539 3.04626C14.2601 3.13831 14.0885 3.4797 14.1707 3.80878C14.253 4.13785 14.5577 4.33027 14.8517 4.23788C16.0648 3.858 17.1197 2.88575 17.7725 1.55445C19.1053 2.17775 20.0444 3.65252 20.0444 5.3681C20.0444 7.13675 19.0509 8.68701 17.5883 9.26425C17.4145 9.09995 17.1899 9.00261 16.945 9.00261H15.7651C15.2143 9.00261 14.7661 9.48581 14.7661 10.1025C14.7661 10.7192 15.2143 11.2024 15.7651 11.2024H16.945C17.3917 11.2024 17.771 10.889 17.8982 10.4351C19.3222 9.89594 20.426 8.66075 20.9015 7.1151C21.5432 6.94063 21.962 6.50376 21.962 5.95511V4.5838C21.962 4.01446 21.5122 3.55662 20.8281 3.39693C20.1249 1.40939 18.3841 0 16.3617 0C15.4778 0 14.6105 0.271609 13.8599 0.785609C13.5996 0.963863 13.5159 1.34471 13.6751 1.63618C13.8343 1.92773 14.1726 2.01943 14.4332 1.84125ZM3.2851 7.16246C3.4451 7.19202 3.6002 7.14157 3.72416 7.02401C3.84801 6.90646 3.91069 6.73384 3.91069 6.55208V5.36803C3.91069 3.0904 5.57344 1.2374 7.60772 1.2374C7.70651 1.2374 7.8085 1.24173 7.90538 1.25032C7.39319 2.14042 6.65069 2.78373 5.81259 3.0462C5.51874 3.13824 5.34811 3.47963 5.43032 3.80864C5.5126 4.13772 5.8183 4.3302 6.11179 4.23781C7.32479 3.858 8.37988 2.88575 9.0328 1.55438C10.3656 2.17768 11.3047 3.65245 11.3047 5.36803C11.3047 7.13669 10.3114 8.68701 8.84884 9.26418C8.67496 9.09988 8.45049 9.00254 8.20557 9.00254H7.02566C6.47485 9.00254 6.02675 9.48575 6.02675 10.1024C6.02675 10.7191 6.47485 11.2024 7.02566 11.2024H8.20557C8.65231 11.2024 9.03151 10.8889 9.15879 10.435C10.5829 9.89601 11.6661 8.66088 12.1416 7.11503C12.7835 6.94063 13.182 6.50376 13.182 5.95504V4.5838C13.182 4.01446 12.7525 3.55655 12.0682 3.39693C11.365 1.40933 9.63451 0 7.61202 0C5.58701 0 3.8547 1.41318 3.15321 3.4047C2.48771 3.57106 2.06872 4.02346 2.06872 4.58373V5.95504C2.06872 6.55105 2.54499 7.02498 3.2851 7.16246ZM7.12997 5.77163C7.12997 5.4299 6.8826 5.15293 6.57738 5.15293H5.96333C5.65811 5.15293 5.41074 5.4299 5.41074 5.77163C5.41074 6.11336 5.65811 6.39033 5.96333 6.39033H6.57738C6.8826 6.39033 7.12997 6.11329 7.12997 5.77163ZM15.2416 23.2312L13.619 15.7624C13.256 14.0896 11.4996 12.7835 9.62063 12.7835H9.54468C9.3086 12.7835 9.09862 12.9471 9.02199 13.1971C8.89188 13.6215 8.37208 14.0489 7.63025 14.0489C6.88855 14.0489 6.36881 13.6225 6.2387 13.1981C6.16208 12.9481 5.95209 12.7835 5.71601 12.7835H5.64C3.76113 12.7835 2.00493 14.0896 1.64175 15.7624L0.0189694 23.2334C0.0118471 23.2633 0.00662815 23.293 0.0034968 23.3244C-0.00442369 23.4027 0.00128643 23.4796 0.0188466 23.5526C0.0337052 23.615 0.0570983 23.6733 0.0874908 23.7263C0.152758 23.8402 0.251304 23.9304 0.372322 23.977L0.373181 23.9772C0.392276 23.9845 0.411801 23.9798 0.431756 23.9847C0.478112 23.9964 0.524039 23.9887 0.56972 23.9887H3.88663C4.19184 23.9887 4.43922 23.7117 4.43922 23.37C4.43922 23.0282 4.19184 22.7513 3.88663 22.7513H1.25579L2.71556 16.0393C2.93979 15.0066 4.12498 14.129 5.37758 14.0185C5.80437 14.7781 6.6712 15.2813 7.63019 15.2813C8.58919 15.2813 9.45614 14.7822 9.88293 14.0226C11.1357 14.1331 12.3209 15.0059 12.545 16.0387L14.0047 22.7513H11.3738C11.0686 22.7513 10.8212 23.0282 10.8212 23.37C10.8212 23.7117 11.0686 23.9887 11.3738 23.9887H14.6907C14.6962 23.9887 14.7017 23.9999 14.7073 23.9999C14.748 23.9999 14.7893 24.0002 14.8307 23.9897C14.8494 23.9849 14.8677 23.9818 14.8856 23.975C15.0077 23.9288 15.1071 23.8394 15.1729 23.7247C15.2034 23.6717 15.2268 23.6137 15.2417 23.5513C15.2592 23.4784 15.2649 23.4014 15.257 23.3233C15.2541 23.2918 15.2488 23.2613 15.2416 23.2312ZM23.9965 23.3238C23.9934 23.2921 23.9882 23.2613 23.981 23.2312L22.3584 15.7624C21.9953 14.0896 20.2389 12.7835 18.36 12.7835H18.2841C18.048 12.7835 17.838 12.9471 17.7614 13.1971C17.6313 13.6215 17.1114 14.0489 16.3696 14.0489C15.6279 14.0489 15.1081 13.6183 14.978 13.1939C14.8789 12.8707 14.5644 12.6983 14.2759 12.809C13.9873 12.92 13.8336 13.2717 13.9326 13.5949C14.2377 14.5897 15.2397 15.2843 16.3695 15.2843C17.3286 15.2843 18.1955 14.7838 18.6223 14.0242C19.875 14.1347 21.0602 15.0067 21.2844 16.0395L22.7441 22.7514H20.1133C19.808 22.7514 19.5607 23.0284 19.5607 23.3701C19.5607 23.7118 19.808 23.9888 20.1133 23.9888H23.4301C23.4356 23.9888 23.4411 24 23.4467 24C23.4873 24 23.5287 24.0004 23.57 23.9898C23.5888 23.9851 23.6071 23.982 23.625 23.9752C23.747 23.9289 23.8465 23.8395 23.9123 23.7249C23.9427 23.6719 23.9662 23.6139 23.981 23.5514C23.9987 23.4786 24.0044 23.4019 23.9965 23.3238ZM8.68319 6.39033H9.29712C9.60233 6.39033 9.84971 6.11336 9.84971 5.77163C9.84971 5.4299 9.60233 5.15293 9.29712 5.15293H8.68319C8.37797 5.15293 8.1306 5.4299 8.1306 5.77163C8.1306 6.11336 8.37797 6.39033 8.68319 6.39033Z" fill="#66969C"/>
</svg>
