<svg width="26" height="23" viewBox="0 0 26 23" fill="none" xmlns="http://www.w3.org/2000/svg">
<path d="M25.5346 22.0405H24.6337L25.2139 19.6212C25.2435 19.4976 25.2242 19.367 25.1604 19.258C25.0965 19.1491 24.9933 19.0707 24.8734 19.0402C24.7535 19.0097 24.6268 19.0295 24.5211 19.0954C24.4154 19.1612 24.3394 19.2676 24.3098 19.3912L24.1343 20.1235C22.8777 19.2436 19.1638 16.3398 16.8564 11.5208C16.8534 11.5143 16.8487 11.5092 16.8457 11.503L13.5658 4.48059L14.2235 3.07654C14.2524 3.01957 14.2698 2.9572 14.2749 2.89314C14.2799 2.82907 14.2724 2.76462 14.2528 2.70359C14.2332 2.64257 14.202 2.58623 14.1608 2.53792C14.1197 2.4896 14.0696 2.4503 14.0134 2.42234C13.9573 2.39438 13.8963 2.37834 13.834 2.37516C13.7717 2.37199 13.7094 2.38174 13.6509 2.40385C13.5923 2.42596 13.5387 2.45998 13.4931 2.50387C13.4476 2.54777 13.4111 2.60065 13.3857 2.65938L13.0499 3.37616L11.6043 0.278515C11.5476 0.169537 11.4523 0.0873338 11.3382 0.0490544C11.2241 0.0107751 11.1001 0.0193716 10.9921 0.0730591C10.884 0.126747 10.8002 0.22138 10.7582 0.337206C10.7162 0.453031 10.7191 0.581103 10.7665 0.694713L12.5352 4.48059L9.11053 11.7904C7.89137 14.1957 6.26991 16.3604 4.3208 18.1848C3.68907 18.7827 3.02416 19.3424 2.32946 19.8609C2.19216 19.963 2.07138 20.0494 1.9662 20.1233L1.79074 19.3912C1.77738 19.3286 1.75201 19.2695 1.71613 19.2172C1.68025 19.1649 1.63458 19.1206 1.58182 19.0868C1.52905 19.053 1.47027 19.0304 1.40891 19.0204C1.34756 19.0104 1.28487 19.0132 1.22456 19.0285C1.16426 19.0439 1.10755 19.0715 1.05777 19.1099C1.00799 19.1482 0.966149 19.1963 0.934721 19.2516C0.903292 19.3068 0.882905 19.368 0.874767 19.4315C0.866628 19.4949 0.870907 19.5595 0.887337 19.6212L1.46726 22.0405H0.465429C0.341989 22.0405 0.223598 22.091 0.136313 22.181C0.0490286 22.271 0 22.393 0 22.5202C0 22.6475 0.0490286 22.7695 0.136313 22.8595C0.223598 22.9495 0.341989 23 0.465429 23H25.5346C25.658 23 25.7764 22.9495 25.8637 22.8595C25.951 22.7695 26 22.6475 26 22.5202C26 22.393 25.951 22.271 25.8637 22.181C25.7764 22.091 25.658 22.0405 25.5346 22.0405ZM2.42371 22.0405L2.20101 21.1121C3.80917 20.0079 5.27568 18.6989 6.5658 17.2161L4.30544 22.0405H2.42371ZM11.2978 22.0405C11.9789 20.6368 12.5153 19.1633 12.8982 17.6443C13.2806 19.1634 13.8169 20.6369 14.4981 22.0405H11.2978ZM15.5439 22.0405C15.4848 21.926 15.4043 21.7675 15.307 21.5643C14.6712 20.2488 13.4004 17.2075 13.3636 14.2545V13.4353C13.3636 13.308 13.3146 13.186 13.2273 13.096C13.14 13.0061 13.0216 12.9555 12.8982 12.9555C12.7747 12.9555 12.6564 13.0061 12.5691 13.096C12.4818 13.186 12.4328 13.308 12.4328 13.4353C12.4328 13.4353 12.4328 13.4353 12.4328 14.2415C12.4328 14.2456 12.4328 14.2495 12.4328 14.2535C12.4081 16.2151 11.8386 18.2258 11.2692 19.7356C10.9841 20.4927 10.7004 21.1239 10.4887 21.5643C10.3909 21.7677 10.3106 21.9263 10.2515 22.0405H5.33892L9.94876 12.2008C9.99112 12.1157 10.0346 12.0329 10.0761 11.9458C10.0867 11.9226 10.0955 11.8986 10.1023 11.8739L13.0471 5.58478L20.7337 22.0409L15.5439 22.0405ZM23.6747 22.0405H21.7665L19.4912 17.1708C20.7912 18.6724 22.2715 19.9971 23.8963 21.1131L23.6747 22.0405ZM14.358 1.68089C14.4693 1.73592 14.5972 1.74316 14.7136 1.70101C14.83 1.65886 14.9254 1.57077 14.9789 1.45611L15.3342 0.694479C15.3619 0.637554 15.3782 0.575528 15.3824 0.512017C15.3865 0.448506 15.3784 0.384779 15.3584 0.324548C15.3384 0.264317 15.307 0.208781 15.266 0.161186C15.225 0.113591 15.1752 0.0748855 15.1196 0.0473194C15.0639 0.0197533 15.0035 0.00388264 14.9418 0.000627828C14.8801 -0.00262699 14.8185 0.00679669 14.7604 0.0283587C14.7023 0.0499208 14.6489 0.0831854 14.6034 0.126215C14.5579 0.169244 14.5211 0.221178 14.4953 0.278991L14.1404 1.04063C14.0869 1.15528 14.0798 1.28714 14.1206 1.4072C14.1614 1.52727 14.2468 1.62572 14.358 1.68089Z" fill="#66969C"/>
</svg>
