<svg width="24" height="22" viewBox="0 0 24 22" fill="none" xmlns="http://www.w3.org/2000/svg">
<path d="M7.875 11.825V6.7375L12 4.73L16.125 6.7375V11.825H13.875V8.525H10.125V11.825H7.875ZM12 19.8275C15.325 17.6092 17.7812 15.5971 19.3688 13.7913C20.9563 11.9854 21.75 10.395 21.75 9.02C21.75 6.85667 20.8062 5.0875 18.9187 3.7125C17.0312 2.3375 14.725 1.65 12 1.65C9.275 1.65 6.96875 2.3375 5.08125 3.7125C3.19375 5.0875 2.25 6.85667 2.25 9.02C2.25 10.395 3.0625 11.9854 4.6875 13.7913C6.3125 15.5971 8.75 17.6092 12 19.8275ZM12 22C7.975 19.4883 4.96875 17.1554 2.98125 15.0013C0.99375 12.8471 0 10.8533 0 9.02C0 6.27 1.20625 4.07917 3.61875 2.4475C6.03125 0.815833 8.825 0 12 0C15.175 0 17.9688 0.815833 20.3812 2.4475C22.7937 4.07917 24 6.27 24 9.02C24 10.8533 23.0063 12.8471 21.0188 15.0013C19.0313 17.1554 16.025 19.4883 12 22Z" fill="#66969C"/>
</svg>
