<svg width="21" height="40" viewBox="0 0 21 40" fill="none" xmlns="http://www.w3.org/2000/svg">
<g clip-path="url(#clip0_1722_15930)">
<path fill-rule="evenodd" clip-rule="evenodd" d="M10.5 10C4.97 10 0.5 14.47 0.5 20C0.5 25.53 4.97 30 10.5 30C16.03 30 20.5 25.53 20.5 20C20.5 14.47 16.03 10 10.5 10ZM10.5 28C6.09 28 2.5 24.41 2.5 20C2.5 15.59 6.09 12 10.5 12C14.91 12 18.5 15.59 18.5 20C18.5 24.41 14.91 28 10.5 28ZM10.5 18.59L14.09 15L15.5 16.41L11.91 20L15.5 23.59L14.09 25L10.5 21.41L6.91 25L5.5 23.59L9.09 20L5.5 16.41L6.91 15L10.5 18.59Z" fill="#49454F"/>
</g>
<defs>
<clipPath id="clip0_1722_15930">
<rect width="21" height="40" rx="10.5" fill="white"/>
</clipPath>
</defs>
</svg>
