<svg width="63" height="63" viewBox="0 0 63 63" fill="none" xmlns="http://www.w3.org/2000/svg">
<g clip-path="url(#clip0_594_24250)">
<path d="M57.1557 9.15483C56.9368 8.88979 56.5922 8.76182 56.2541 8.81781L51.5463 9.60113L50.9199 2.56198C50.8915 2.24305 50.7065 1.95881 50.4262 1.80377C50.1459 1.64885 49.8069 1.64319 49.5216 1.78839L43.2016 5.00926L41.2117 0.5701C41.0731 0.260515 40.7817 0.0466591 40.4448 0.00679191C40.108 -0.0336905 39.7748 0.107198 39.5679 0.376056C29.7931 13.0666 33.1639 19.3523 36.0546 21.9745C36.0584 21.978 36.0618 21.9823 36.0658 21.9859C36.5356 22.4109 36.9958 22.7392 37.3898 22.9854C33.9445 28.3789 32.1544 34.4662 31.226 39.288C30.6849 37.0456 29.97 35.0913 29.2957 33.5388C28.2527 31.1378 27.1738 29.35 26.5256 28.3652C27.6258 27.5892 29.6307 25.7802 30.1946 22.6147C31.03 17.9246 28.3926 12.2803 22.3559 5.83897C22.121 5.5882 21.77 5.48189 21.435 5.55879C21.1002 5.63631 20.8317 5.88609 20.7306 6.21475L19.3266 10.776L12.7499 8.18966C12.4515 8.07239 12.1147 8.11078 11.8509 8.29228C11.5868 8.47365 11.4302 8.77425 11.4327 9.09454L11.4884 16.1876L6.62818 15.9831C6.28844 15.9663 5.96754 16.1337 5.78149 16.4173C5.59532 16.7009 5.57182 17.0616 5.71972 17.3669C10.9789 28.2265 16.3211 30.7894 20.1924 30.7894C21.4514 30.7894 22.5547 30.5176 23.4489 30.1725C23.4607 30.1684 23.4728 30.165 23.4845 30.1605C24.0528 29.9388 24.5378 29.6847 24.927 29.4497C25.9839 31.067 28.3306 35.0793 29.4972 40.3696C28.87 39.6684 28.0853 38.961 27.1064 38.3177C26.6612 38.0253 26.0634 38.149 25.7709 38.5942C25.4786 39.0392 25.6022 39.6371 26.0474 39.9296C27.4018 40.8195 28.3108 41.8592 28.9101 42.7667L21.6974 39.2494C21.2185 39.0157 20.6414 39.2149 20.4081 39.6935C20.1748 40.1721 20.3734 40.7495 20.8521 40.9828L28.8342 44.8752C26.3984 46.0564 24.2345 46.2579 22.384 45.4698C19.0493 44.0493 17.3846 39.7778 16.7632 37.7428C18.8887 37.6851 20.8174 37.8921 22.5106 38.3609C23.0248 38.5025 23.5551 38.2019 23.6971 37.6887C23.8391 37.1754 23.5384 36.6441 23.0249 36.5021C20.8134 35.8898 18.2663 35.6797 15.4549 35.8767C15.1774 35.8961 14.9217 36.0347 14.7536 36.2565C14.5855 36.4786 14.5216 36.7622 14.5782 37.0347C14.6452 37.3573 16.2801 44.9606 21.6212 47.2415C22.612 47.6647 23.6561 47.876 24.7502 47.876C26.4459 47.8758 28.2614 47.367 30.1821 46.3546C30.1857 46.9868 30.1678 47.6284 30.124 48.2787L30.1622 48.2813C30.117 49.2737 30.1054 50.08 30.106 50.6562H22.0217C21.489 50.6562 21.0574 51.0879 21.0574 51.6205V55.5433V59.563C21.0574 61.4584 22.5994 63.0004 24.4948 63.0004H37.6778C39.5732 63.0004 41.1153 61.4584 41.1153 59.563V55.5433V51.6202C41.1153 51.0875 40.6836 50.6558 40.1509 50.6558H32.0367C32.0371 49.4764 32.09 47.2474 32.3995 44.437C34.1949 45.3338 35.8965 45.7852 37.4921 45.7852C38.586 45.7852 39.6306 45.5738 40.6211 45.1507C45.9622 42.8698 47.5971 35.2662 47.6641 34.9439C47.7205 34.6714 47.6566 34.3878 47.4887 34.1657C47.3206 33.9439 47.0649 33.8053 46.7874 33.7859C39.802 33.2956 35.7855 35.4295 33.5949 37.4237C34.5859 33.1973 36.2577 28.306 39.075 23.9293C39.9264 24.382 41.4193 24.9907 43.2941 24.9907C44.6344 24.9907 46.1697 24.6793 47.8035 23.777C48.2697 23.5194 48.4388 22.9329 48.1814 22.4667C47.9238 22.0006 47.3374 21.8311 46.871 22.0888C42.8273 24.3222 39.5849 22.0054 39.4524 21.9081C39.3805 21.8545 39.3017 21.8111 39.2179 21.7792C39.2098 21.7761 38.4209 21.4636 37.5313 20.707C37.5251 20.6891 37.5195 20.6713 37.5136 20.6533C37.5013 20.6164 37.4889 20.5794 37.4779 20.5426C37.4722 20.5241 37.4674 20.5057 37.462 20.4872C37.4504 20.4468 37.4392 20.4065 37.4291 20.3664C37.4255 20.3515 37.4223 20.3368 37.4187 20.3218C37.4082 20.278 37.3984 20.2341 37.3898 20.1904C37.3876 20.1792 37.3857 20.168 37.3836 20.1568C37.3748 20.1097 37.3666 20.0626 37.36 20.0157C37.3589 20.0076 37.3578 19.9994 37.3568 19.9912C37.35 19.9415 37.3442 19.8917 37.3397 19.8422C37.3392 19.8365 37.3388 19.831 37.3385 19.8253C37.334 19.7735 37.3308 19.722 37.3291 19.6705C37.329 19.6666 37.3289 19.6625 37.3287 19.6587C37.327 19.6059 37.3268 19.5532 37.328 19.5007C37.328 19.4978 37.3281 19.4948 37.3282 19.4918C37.3295 19.4385 37.3322 19.3856 37.3364 19.3327C37.3365 19.3299 37.3367 19.3272 37.337 19.3245C37.3412 19.2719 37.3468 19.2193 37.3538 19.167C37.3542 19.1637 37.3547 19.1605 37.3551 19.1572C37.3621 19.1059 37.3706 19.0547 37.3803 19.0035C37.3812 18.9988 37.382 18.9944 37.3829 18.9898C37.3925 18.9406 37.4034 18.8915 37.4156 18.8426C37.4172 18.836 37.4188 18.8294 37.4205 18.823C37.4323 18.7765 37.4455 18.7301 37.4597 18.6837C37.4624 18.6747 37.4651 18.6657 37.4678 18.6568C37.4813 18.6134 37.4962 18.5704 37.5117 18.5272C37.5161 18.5153 37.5202 18.5033 37.5248 18.4913C37.5395 18.4515 37.5556 18.4118 37.5723 18.3722C37.5785 18.3571 37.5844 18.3421 37.5911 18.3271C37.6056 18.2935 37.6215 18.2601 37.6371 18.2265C37.6478 18.2038 37.6581 18.1811 37.6693 18.1585C37.6853 18.1264 37.7021 18.0943 37.7192 18.0621C37.7307 18.0403 37.7422 18.0185 37.7542 17.9966C37.7749 17.9592 37.7967 17.9222 37.8186 17.8851C37.8286 17.8685 37.8382 17.852 37.8482 17.8355C37.8743 17.7931 37.9015 17.7509 37.9292 17.7088C37.936 17.6983 37.9429 17.688 37.9498 17.6777C37.9826 17.6288 38.0167 17.5801 38.0519 17.5317C38.0539 17.529 38.0557 17.5263 38.0578 17.5236C39.5731 15.4525 43.1618 13.8707 46.3126 12.8539C48.6954 12.0929 50.662 11.7079 50.8411 11.6735C50.8427 11.6732 50.8443 11.6729 50.8459 11.6726L54.9024 10.9977C53.4214 14.6488 51.7616 17.5167 49.9586 19.5373C49.604 19.9347 49.6387 20.5443 50.036 20.8988C50.4336 21.2535 51.0432 21.2188 51.3976 20.8214C53.612 18.3398 55.6035 14.7339 57.3167 10.1035C57.4361 9.78127 57.3745 9.41988 57.1557 9.15483ZM18.7906 12.6378C18.5538 13.5849 18.1818 15.2265 17.9121 17.1379C15.8188 16.7045 14.2942 16.4646 13.4183 16.3425L13.3725 10.5068L18.7906 12.6378ZM8.18546 17.9789L11.5754 18.1216C11.5862 18.1225 11.5971 18.1234 11.6078 18.1238C11.6124 18.1241 11.6172 18.1243 11.6222 18.1246C12.1217 18.1669 14.3844 18.3831 17.6881 19.0627C17.3545 22.7855 17.7282 25.6159 18.8 27.5068C18.8048 27.5153 18.8094 27.5238 18.8144 27.5321C18.8513 27.5967 18.8891 27.6601 18.9278 27.7222C18.9382 27.739 18.9482 27.7558 18.9587 27.7723C18.9987 27.8356 19.0397 27.8977 19.0814 27.9586C19.087 27.967 19.0925 27.9757 19.0981 27.9841C19.0991 27.9856 19.1003 27.9869 19.1012 27.9883C19.154 28.0644 19.2082 28.1383 19.2639 28.2107C19.279 28.2305 19.2947 28.2497 19.31 28.2692C19.334 28.2997 19.3575 28.3306 19.382 28.3604C19.3931 28.3739 19.405 28.3862 19.4162 28.3996C19.4618 28.4542 19.5085 28.5073 19.5559 28.5595C19.5764 28.5821 19.5967 28.6051 19.6176 28.6274C19.6772 28.691 19.7381 28.7524 19.8001 28.8123C19.8078 28.8198 19.8151 28.8281 19.823 28.8354C16.7521 28.6542 12.5705 26.3826 8.18546 17.9789ZM24.9287 27.0957C24.8512 27.1347 24.776 27.1869 24.7116 27.2449C24.7049 27.251 24.0677 27.8202 22.9953 28.2772C22.9767 28.2747 22.9583 28.2718 22.9399 28.2692C22.9011 28.2636 22.8625 28.2581 22.8245 28.2516C22.8055 28.2484 22.7871 28.2446 22.7682 28.2409C22.7266 28.233 22.6852 28.225 22.6444 28.216C22.6301 28.2128 22.616 28.2093 22.6016 28.2058C22.5571 28.1954 22.5129 28.1845 22.4695 28.1725C22.459 28.1696 22.4488 28.1664 22.4385 28.1635C22.3916 28.1501 22.3451 28.136 22.2994 28.1209C22.2927 28.1186 22.2858 28.1161 22.2789 28.1139C22.2303 28.0974 22.1822 28.0801 22.1349 28.0615C22.1309 28.0598 22.1265 28.0582 22.1225 28.0564C22.073 28.0367 22.0243 28.0161 21.9763 27.994C21.974 27.9931 21.9716 27.9918 21.9694 27.9909C21.9201 27.9681 21.8716 27.9442 21.8238 27.919C21.8224 27.9183 21.821 27.9176 21.8197 27.9168C21.7714 27.8912 21.7239 27.8645 21.6772 27.8363C21.6762 27.8357 21.675 27.8351 21.674 27.8343C21.6275 27.8062 21.5816 27.7769 21.5367 27.7462C21.5352 27.7452 21.5338 27.7443 21.5325 27.7434C21.4884 27.7133 21.445 27.682 21.4025 27.6494C21.4 27.6474 21.3975 27.6456 21.3949 27.6436C21.3539 27.6121 21.3137 27.5794 21.2741 27.5455C21.2701 27.5422 21.2662 27.5389 21.2623 27.5356C21.2247 27.5032 21.1879 27.4696 21.1516 27.4352C21.1459 27.4298 21.1401 27.4243 21.1344 27.4188C21.1006 27.3863 21.0676 27.3526 21.0349 27.3183C21.0271 27.3102 21.0194 27.3022 21.0116 27.2939C20.9818 27.2619 20.9524 27.2287 20.9234 27.195C20.9137 27.1837 20.9037 27.1725 20.8941 27.161C20.8696 27.132 20.8459 27.1018 20.8222 27.0717C20.8076 27.053 20.793 27.0347 20.7786 27.0157C20.7559 26.9858 20.7338 26.955 20.7118 26.924C20.6985 26.9052 20.6852 26.8867 20.672 26.8677C20.6469 26.831 20.6224 26.7936 20.5982 26.7558C20.5888 26.7411 20.5791 26.7264 20.5699 26.7115C20.5427 26.668 20.5162 26.6236 20.4904 26.5785C20.4849 26.5689 20.4793 26.5594 20.4738 26.5498C20.4442 26.4977 20.4155 26.4445 20.3874 26.3904C20.3863 26.3882 20.3852 26.3862 20.3841 26.384C19.2085 24.1036 19.3975 20.1873 19.8963 16.9147C20.2891 14.3891 20.8384 12.4283 20.8675 12.3254L22.0763 8.39859C26.7962 13.764 28.9452 18.5295 28.302 22.2421C27.7152 25.628 25.0383 27.0393 24.9287 27.0957ZM39.1869 59.5626C39.1867 60.3946 38.5099 61.0715 37.6778 61.0715H24.4951C23.6629 61.0715 22.9862 60.3946 22.9862 59.5626V56.5072H39.1869V59.5626ZM39.1867 52.5841V54.5787H22.986V52.5841H39.1867ZM34.6531 39.0749C37.0863 36.7033 40.8112 35.5304 45.4791 35.6527C44.8575 37.6885 43.1927 41.9591 39.8586 43.3792C38.0086 44.1673 35.8442 43.966 33.4085 42.7847L41.3905 38.8922C41.8693 38.6589 42.0681 38.0814 41.8346 37.6029C41.6013 37.1244 41.024 36.9254 40.5453 37.1588L33.3207 40.6819C33.657 40.1731 34.0921 39.6215 34.6531 39.0749ZM36.3445 16.6111C36.3396 16.6184 36.3349 16.6255 36.33 16.6325C36.2881 16.6954 36.2477 16.7584 36.2088 16.8218C36.1989 16.8378 36.1888 16.8535 36.1792 16.8695C36.14 16.9345 36.1022 16.9996 36.0659 17.0651C36.0612 17.0734 36.0563 17.0814 36.0518 17.0898C36.051 17.0912 36.0503 17.0927 36.0494 17.0942C36.0049 17.1754 35.963 17.2572 35.9231 17.3393C35.912 17.3621 35.9018 17.3848 35.8909 17.4076C35.8746 17.4423 35.8575 17.477 35.842 17.5118C35.8349 17.5277 35.8293 17.5437 35.8224 17.5597C35.7936 17.6257 35.7668 17.6919 35.7409 17.7584C35.7302 17.786 35.719 17.8134 35.7088 17.8411C35.6784 17.923 35.6508 18.0051 35.6248 18.0874C35.6216 18.0979 35.6173 18.1081 35.6141 18.1187C34.4034 15.2904 34.5661 10.5347 40.1229 2.85545L41.511 5.95205C41.5148 5.96152 41.519 5.971 41.523 5.98059C41.5251 5.98527 41.5271 5.99019 41.5294 5.99536C41.7154 6.46294 42.5339 8.58537 43.4018 11.8402C39.9215 13.2064 37.5561 14.8065 36.3445 16.6111ZM45.2233 11.1799C44.675 9.11361 44.2082 7.64271 43.9258 6.80464L49.1255 4.15483L49.6415 9.95403C48.6886 10.1655 47.0537 10.5667 45.2233 11.1799Z" fill="#66969C"/>
</g>
<defs>
<clipPath id="clip0_594_24250">
<rect width="63" height="63" fill="white"/>
</clipPath>
</defs>
</svg>
