<svg width="63" height="63" viewBox="0 0 63 63" fill="none" xmlns="http://www.w3.org/2000/svg">
<path d="M27.5625 12.7969C27.5625 9.05625 24.4125 5.90625 20.6719 5.90625C16.9313 5.90625 13.7812 9.05625 13.7812 12.7969C13.7812 11.2219 12.4031 9.84375 10.8281 9.84375C9.25312 9.84375 7.875 11.2219 7.875 12.7969V15.75V21.6562V23.625C7.875 27.9563 11.4187 31.5 15.75 31.5C20.0813 31.5 23.625 27.9563 23.625 23.625V17.7188H27.5625V12.7969Z" stroke="#66969C" stroke-width="2" stroke-miterlimit="10" stroke-linecap="round" stroke-linejoin="round"/>
<path d="M59.0625 39.375H33.4688" stroke="#66969C" stroke-width="2" stroke-miterlimit="10" stroke-linecap="round" stroke-linejoin="round"/>
<path d="M35.4375 39.375C35.4375 32.8781 40.3594 27.5625 46.2656 27.5625C52.1719 27.5625 57.0938 32.8781 57.0938 39.375" stroke="#66969C" stroke-width="2" stroke-miterlimit="10" stroke-linecap="round" stroke-linejoin="round"/>
<path d="M23.625 47.25L7.875 37.4062V47.25L23.625 37.4062V47.25ZM23.625 47.25L7.875 37.4062" stroke="#66969C" stroke-width="2" stroke-miterlimit="10" stroke-linecap="round" stroke-linejoin="round"/>
<path d="M41.3438 59.0625V47.25L51.1875 39.375H40.5563C38.7844 39.375 37.0125 40.7531 36.6188 42.525L33.4688 57.0937L32.0906 47.25C31.6969 44.6906 30.1219 42.525 27.9562 41.3437L23.625 39.1781" stroke="#66969C" stroke-width="2" stroke-miterlimit="10" stroke-linecap="round" stroke-linejoin="round"/>
<path d="M46.2656 27.5625C47.8966 27.5625 49.2188 26.2403 49.2188 24.6094C49.2188 22.9784 47.8966 21.6562 46.2656 21.6562C44.6347 21.6562 43.3125 22.9784 43.3125 24.6094C43.3125 26.2403 44.6347 27.5625 46.2656 27.5625Z" stroke="#66969C" stroke-width="2" stroke-miterlimit="10" stroke-linecap="round" stroke-linejoin="round"/>
</svg>
