<svg width="1817" height="497" viewBox="0 0 1817 497" fill="none" xmlns="http://www.w3.org/2000/svg">
<rect width="1817" height="497" fill="url(#paint0_linear_1737_39279)" fill-opacity="0.42"/>
<path d="M801.687 307.256C801.687 324.94 786.621 339.317 767.985 339.317C749.349 339.317 734.283 324.94 734.283 307.256C734.283 289.572 749.349 275.195 767.985 275.195C786.621 275.195 801.687 289.572 801.687 307.256Z" stroke="#00889A"/>
<path d="M999.435 289.496C999.435 313.719 978.801 333.397 953.296 333.397C927.791 333.397 907.157 313.719 907.157 289.496C907.157 265.273 927.791 245.595 953.296 245.595C978.801 245.595 999.435 265.273 999.435 289.496Z" stroke="#00889A"/>
<path d="M863.872 268.183C863.872 276.058 857.159 282.484 848.826 282.484C840.492 282.484 833.779 276.058 833.779 268.183C833.779 260.308 840.492 253.883 848.826 253.883C857.159 253.883 863.872 260.308 863.872 268.183Z" stroke="#00889A"/>
<path d="M842.729 344.553C842.729 346.87 840.749 348.789 838.254 348.789C835.759 348.789 833.779 346.87 833.779 344.553C833.779 342.237 835.759 340.317 838.254 340.317C840.749 340.317 842.729 342.237 842.729 344.553Z" stroke="#00889A"/>
<path d="M717.115 379.482C717.115 387.357 710.402 393.783 702.069 393.783C693.735 393.783 687.022 387.357 687.022 379.482C687.022 371.607 693.735 365.182 702.069 365.182C710.402 365.182 717.115 371.607 717.115 379.482Z" stroke="#00889A"/>
<path d="M1042.96 420.331C1042.96 422.648 1040.98 424.567 1038.49 424.567C1035.99 424.567 1034.01 422.648 1034.01 420.331C1034.01 418.015 1035.99 416.095 1038.49 416.095C1040.98 416.095 1042.96 418.015 1042.96 420.331Z" stroke="#00889A"/>
<path d="M984.51 400.203C984.51 413.636 973.064 424.567 958.892 424.567C944.72 424.567 933.274 413.636 933.274 400.203C933.274 386.769 944.72 375.838 958.892 375.838C973.064 375.838 984.51 386.769 984.51 400.203Z" stroke="#00889A"/>
<path d="M816.611 415.003C816.611 422.878 809.898 429.304 801.565 429.304C793.232 429.304 786.519 422.878 786.519 415.003C786.519 407.128 793.232 400.703 801.565 400.703C809.898 400.703 816.611 407.128 816.611 415.003Z" stroke="#00889A"/>
<path d="M1037.99 287.72C1037.99 290.036 1036.01 291.956 1033.51 291.956C1031.02 291.956 1029.04 290.036 1029.04 287.72C1029.04 285.403 1031.02 283.484 1033.51 283.484C1036.01 283.484 1037.99 285.403 1037.99 287.72Z" stroke="#00889A"/>
<path d="M1102.66 330.937C1102.66 348.621 1087.6 362.998 1068.96 362.998C1050.32 362.998 1035.26 348.621 1035.26 330.937C1035.26 313.253 1050.32 298.876 1068.96 298.876C1087.6 298.876 1102.66 313.253 1102.66 330.937Z" stroke="#00889A"/>
<path d="M801.687 307.256C801.687 324.94 786.621 339.317 767.985 339.317C749.349 339.317 734.283 324.94 734.283 307.256C734.283 289.572 749.349 275.195 767.985 275.195C786.621 275.195 801.687 289.572 801.687 307.256Z" stroke="#00889A"/>
<path d="M999.435 289.496C999.435 313.719 978.801 333.397 953.296 333.397C927.791 333.397 907.157 313.719 907.157 289.496C907.157 265.273 927.791 245.595 953.296 245.595C978.801 245.595 999.435 265.273 999.435 289.496Z" stroke="#00889A"/>
<path d="M863.872 268.183C863.872 276.058 857.159 282.484 848.826 282.484C840.492 282.484 833.779 276.058 833.779 268.183C833.779 260.308 840.492 253.883 848.826 253.883C857.159 253.883 863.872 260.308 863.872 268.183Z" fill="#DFFDFF" stroke="#00889A"/>
<path d="M842.729 344.553C842.729 346.87 840.749 348.789 838.254 348.789C835.759 348.789 833.779 346.87 833.779 344.553C833.779 342.237 835.759 340.317 838.254 340.317C840.749 340.317 842.729 342.237 842.729 344.553Z" stroke="#00889A"/>
<path d="M717.115 379.482C717.115 387.357 710.402 393.783 702.069 393.783C693.735 393.783 687.022 387.357 687.022 379.482C687.022 371.607 693.735 365.182 702.069 365.182C710.402 365.182 717.115 371.607 717.115 379.482Z" fill="#DFFDFF" stroke="#00889A"/>
<path d="M1042.96 420.331C1042.96 422.648 1040.98 424.567 1038.49 424.567C1035.99 424.567 1034.01 422.648 1034.01 420.331C1034.01 418.015 1035.99 416.095 1038.49 416.095C1040.98 416.095 1042.96 418.015 1042.96 420.331Z" fill="#DFFDFF" stroke="#00889A"/>
<path d="M984.51 400.203C984.51 413.636 973.064 424.567 958.892 424.567C944.72 424.567 933.274 413.636 933.274 400.203C933.274 386.769 944.72 375.838 958.892 375.838C973.064 375.838 984.51 386.769 984.51 400.203Z" stroke="#00889A"/>
<path d="M816.611 415.003C816.611 422.878 809.898 429.304 801.565 429.304C793.232 429.304 786.519 422.878 786.519 415.003C786.519 407.128 793.232 400.703 801.565 400.703C809.898 400.703 816.611 407.128 816.611 415.003Z" stroke="#00889A"/>
<path d="M1037.99 287.72C1037.99 290.036 1036.01 291.956 1033.51 291.956C1031.02 291.956 1029.04 290.036 1029.04 287.72C1029.04 285.403 1031.02 283.484 1033.51 283.484C1036.01 283.484 1037.99 285.403 1037.99 287.72Z" fill="#DFFDFF" stroke="#00889A"/>
<path d="M1102.66 330.937C1102.66 348.621 1087.6 362.998 1068.96 362.998C1050.32 362.998 1035.26 348.621 1035.26 330.937C1035.26 313.253 1050.32 298.876 1068.96 298.876C1087.6 298.876 1102.66 313.253 1102.66 330.937Z" stroke="#00889A"/>
<path d="M1250.24 465.154C1251.1 455.679 1259.88 448.62 1269.89 449.442C1279.9 450.264 1287.28 458.648 1286.42 468.123C1285.56 477.598 1276.79 484.657 1266.77 483.835C1256.76 483.013 1249.38 474.629 1250.24 465.154Z" stroke="#00889A"/>
<path d="M1142.77 466.433C1143.95 453.374 1156.04 443.661 1169.82 444.792C1183.6 445.923 1193.76 457.463 1192.58 470.521C1191.4 483.58 1179.31 493.293 1165.53 492.162C1151.75 491.031 1141.59 479.491 1142.77 466.433Z" stroke="#00889A"/>
<path d="M1229.75 443.269C1229.8 442.806 1230.08 442.371 1230.58 442.055C1231.08 441.738 1231.77 441.559 1232.52 441.621C1233.28 441.683 1233.92 441.971 1234.36 442.365C1234.79 442.758 1235 443.232 1234.95 443.695C1234.91 444.159 1234.63 444.593 1234.13 444.909C1233.63 445.226 1232.94 445.406 1232.19 445.343C1231.43 445.281 1230.78 444.993 1230.35 444.599C1229.92 444.206 1229.71 443.732 1229.75 443.269Z" stroke="#00889A"/>
<path d="M1125.64 393.721C1125.77 392.282 1126.82 391.349 1127.84 391.432C1128.85 391.515 1129.73 392.607 1129.6 394.046C1129.47 395.485 1128.41 396.418 1127.4 396.334C1126.38 396.251 1125.51 395.159 1125.64 393.721Z" stroke="#00889A"/>
<path d="M1155.65 406.881C1156.31 399.686 1162.97 394.317 1170.59 394.942C1178.21 395.567 1183.81 401.944 1183.16 409.139C1182.51 416.334 1175.84 421.703 1168.22 421.078C1160.6 420.453 1155 414.076 1155.65 406.881Z" stroke="#00889A"/>
<path d="M1248.04 406.74C1248.43 402.442 1252.14 399.259 1256.3 399.6C1260.46 399.942 1263.54 403.682 1263.15 407.98C1262.76 412.278 1259.06 415.461 1254.9 415.119C1250.73 414.778 1247.65 411.037 1248.04 406.74Z" stroke="#00889A"/>
<path d="M1089.09 438.852C1089.95 429.377 1098.73 422.318 1108.74 423.14C1118.75 423.962 1126.13 432.347 1125.27 441.822C1124.41 451.297 1115.64 458.356 1105.62 457.534C1095.61 456.712 1088.24 448.327 1089.09 438.852Z" stroke="#00889A"/>
<path d="M1250.24 465.154C1251.1 455.679 1259.88 448.62 1269.89 449.442C1279.9 450.264 1287.28 458.648 1286.42 468.123C1285.56 477.598 1276.79 484.657 1266.77 483.835C1256.76 483.013 1249.38 474.629 1250.24 465.154Z" stroke="#00889A"/>
<path d="M1142.77 466.433C1143.95 453.374 1156.04 443.661 1169.82 444.792C1183.6 445.923 1193.76 457.463 1192.58 470.521C1191.4 483.58 1179.31 493.293 1165.53 492.162C1151.75 491.031 1141.59 479.491 1142.77 466.433Z" stroke="#00889A"/>
<path d="M1229.75 443.269C1229.8 442.806 1230.08 442.371 1230.58 442.055C1231.08 441.738 1231.77 441.559 1232.52 441.621C1233.28 441.683 1233.92 441.971 1234.36 442.365C1234.79 442.758 1235 443.232 1234.95 443.695C1234.91 444.159 1234.63 444.593 1234.13 444.909C1233.63 445.226 1232.94 445.406 1232.19 445.343C1231.43 445.281 1230.78 444.993 1230.35 444.599C1229.92 444.206 1229.71 443.732 1229.75 443.269Z" stroke="#00889A"/>
<path d="M1125.64 393.721C1125.77 392.282 1126.82 391.349 1127.84 391.432C1128.85 391.515 1129.73 392.607 1129.6 394.046C1129.47 395.485 1128.41 396.418 1127.4 396.334C1126.38 396.251 1125.51 395.159 1125.64 393.721Z" fill="#DFFDFF" stroke="#00889A"/>
<path d="M1155.65 406.881C1156.31 399.686 1162.97 394.317 1170.59 394.942C1178.21 395.567 1183.81 401.944 1183.16 409.139C1182.51 416.334 1175.84 421.703 1168.22 421.078C1160.6 420.453 1155 414.076 1155.65 406.881Z" stroke="#00889A"/>
<path d="M1248.04 406.74C1248.43 402.442 1252.14 399.259 1256.3 399.6C1260.46 399.942 1263.54 403.682 1263.15 407.98C1262.76 412.278 1259.06 415.461 1254.9 415.119C1250.73 414.778 1247.65 411.037 1248.04 406.74Z" stroke="#00889A"/>
<path d="M1089.09 438.852C1089.95 429.377 1098.73 422.318 1108.74 423.14C1118.75 423.962 1126.13 432.347 1125.27 441.822C1124.41 451.297 1115.64 458.356 1105.62 457.534C1095.61 456.712 1088.24 448.327 1089.09 438.852Z" stroke="#00889A"/>
<path d="M484.452 144.306C485.002 145.077 484.695 146.416 483.406 147.249C482.118 148.082 480.697 147.86 480.147 147.088C479.597 146.317 479.904 144.978 481.193 144.145C482.482 143.312 483.902 143.535 484.452 144.306Z" stroke="#00889A"/>
<path d="M494.458 183.634C497.014 187.219 496.229 191.913 492.789 194.136C489.349 196.359 484.477 195.321 481.921 191.737C479.365 188.153 480.15 183.459 483.59 181.236C487.03 179.012 491.902 180.05 494.458 183.634Z" stroke="#00889A"/>
<path d="M484.452 144.306C485.002 145.077 484.695 146.416 483.406 147.249C482.118 148.082 480.697 147.86 480.147 147.088C479.597 146.317 479.904 144.978 481.193 144.145C482.482 143.312 483.902 143.535 484.452 144.306Z" stroke="#00889A"/>
<path d="M838.577 462.786C839.435 453.311 848.21 446.252 858.223 447.074C868.236 447.895 875.612 456.28 874.754 465.755C873.896 475.23 865.121 482.289 855.108 481.467C845.095 480.645 837.719 472.261 838.577 462.786Z" stroke="#00889A"/>
<path d="M731.107 464.065C732.29 451.006 744.379 441.293 758.155 442.424C771.932 443.555 782.096 455.095 780.914 468.153C779.731 481.212 767.642 490.925 753.865 489.794C740.088 488.663 729.924 477.123 731.107 464.065Z" stroke="#00889A"/>
<path d="M818.09 440.901C818.132 440.437 818.418 440.003 818.916 439.687C819.414 439.37 820.102 439.191 820.858 439.253C821.614 439.315 822.259 439.603 822.693 439.997C823.126 440.39 823.331 440.864 823.289 441.327C823.247 441.79 822.96 442.225 822.462 442.541C821.964 442.858 821.277 443.037 820.521 442.975C819.764 442.913 819.12 442.625 818.686 442.231C818.252 441.838 818.048 441.364 818.09 440.901Z" stroke="#00889A"/>
<path d="M713.973 391.353C714.103 389.914 715.16 388.981 716.175 389.064C717.19 389.147 718.063 390.239 717.933 391.678C717.803 393.116 716.746 394.05 715.731 393.966C714.716 393.883 713.843 392.791 713.973 391.353Z" stroke="#00889A"/>
<path d="M743.99 404.513C744.642 397.318 751.308 391.949 758.925 392.574C766.543 393.199 772.145 399.576 771.493 406.771C770.841 413.966 764.176 419.335 756.558 418.71C748.94 418.085 743.339 411.708 743.99 404.513Z" stroke="#00889A"/>
<path d="M836.377 404.372C836.766 400.074 840.475 396.891 844.636 397.232C848.797 397.574 851.878 401.314 851.489 405.612C851.1 409.91 847.391 413.093 843.23 412.751C839.069 412.41 835.988 408.669 836.377 404.372Z" stroke="#00889A"/>
<path d="M677.43 436.484C678.288 427.009 687.063 419.95 697.076 420.772C707.088 421.594 714.464 429.979 713.606 439.454C712.748 448.929 703.973 455.988 693.961 455.166C683.948 454.344 676.572 445.959 677.43 436.484Z" stroke="#00889A"/>
<path d="M838.577 462.786C839.435 453.311 848.21 446.252 858.223 447.074C868.236 447.895 875.612 456.28 874.754 465.755C873.896 475.23 865.121 482.289 855.108 481.467C845.095 480.645 837.719 472.261 838.577 462.786Z" stroke="#00889A"/>
<path d="M731.107 464.065C732.29 451.006 744.379 441.293 758.155 442.424C771.932 443.555 782.096 455.095 780.914 468.153C779.731 481.212 767.642 490.925 753.865 489.794C740.088 488.663 729.924 477.123 731.107 464.065Z" stroke="#00889A"/>
<path d="M818.09 440.901C818.132 440.437 818.418 440.003 818.916 439.687C819.414 439.37 820.102 439.191 820.858 439.253C821.614 439.315 822.259 439.603 822.693 439.997C823.126 440.39 823.331 440.864 823.289 441.327C823.247 441.79 822.96 442.225 822.462 442.541C821.964 442.858 821.277 443.037 820.521 442.975C819.764 442.913 819.12 442.625 818.686 442.231C818.252 441.838 818.048 441.364 818.09 440.901Z" stroke="#00889A"/>
<path d="M713.973 391.353C714.103 389.914 715.16 388.981 716.175 389.064C717.19 389.147 718.063 390.239 717.933 391.678C717.803 393.116 716.746 394.05 715.731 393.966C714.716 393.883 713.843 392.791 713.973 391.353Z" fill="#DFFDFF" stroke="#00889A"/>
<path d="M743.99 404.513C744.642 397.318 751.308 391.949 758.925 392.574C766.543 393.199 772.145 399.576 771.493 406.771C770.841 413.966 764.176 419.335 756.558 418.71C748.94 418.085 743.339 411.708 743.99 404.513Z" stroke="#00889A"/>
<path d="M836.377 404.372C836.766 400.074 840.475 396.891 844.636 397.232C848.797 397.574 851.878 401.314 851.489 405.612C851.1 409.91 847.391 413.093 843.23 412.751C839.069 412.41 835.988 408.669 836.377 404.372Z" stroke="#00889A"/>
<path d="M677.43 436.484C678.288 427.009 687.063 419.95 697.076 420.772C707.088 421.594 714.464 429.979 713.606 439.454C712.748 448.929 703.973 455.988 693.961 455.166C683.948 454.344 676.572 445.959 677.43 436.484Z" stroke="#00889A"/>
<path d="M534.819 377.08C536.579 359.475 553.008 346.522 571.56 348.203C590.112 349.884 603.679 365.555 601.919 383.16C600.159 400.765 583.731 413.718 565.179 412.037C546.627 410.356 533.059 394.685 534.819 377.08Z" stroke="#00889A"/>
<path d="M336.192 376.924C338.603 352.809 361.102 335.081 386.492 337.382C411.882 339.682 430.464 361.133 428.054 385.247C425.643 409.362 403.144 427.09 377.754 424.789C352.364 422.489 333.781 401.038 336.192 376.924Z" stroke="#00889A"/>
<path d="M469.025 410.368C469.809 402.528 477.131 396.738 485.427 397.489C493.722 398.241 499.766 405.243 498.982 413.083C498.198 420.923 490.876 426.714 482.58 425.962C474.285 425.21 468.241 418.209 469.025 410.368Z" stroke="#00889A"/>
<path d="M497.673 336.249C497.903 333.942 500.066 332.211 502.549 332.436C505.032 332.661 506.812 334.75 506.582 337.056C506.351 339.363 504.189 341.095 501.706 340.87C499.223 340.645 497.442 338.556 497.673 336.249Z" stroke="#00889A"/>
<path d="M626.198 312.808C626.982 304.968 634.304 299.177 642.6 299.929C650.895 300.68 656.938 307.682 656.155 315.522C655.371 323.362 648.048 329.153 639.753 328.401C631.458 327.65 625.414 320.648 626.198 312.808Z" stroke="#00889A"/>
<path d="M305.88 242.751C306.111 240.444 308.273 238.712 310.756 238.937C313.239 239.162 315.019 241.251 314.789 243.558C314.558 245.865 312.396 247.596 309.913 247.371C307.43 247.147 305.649 245.057 305.88 242.751Z" stroke="#00889A"/>
<path d="M362.067 268.061C363.404 254.688 375.886 244.838 389.994 246.117C404.101 247.395 414.408 259.309 413.071 272.683C411.734 286.056 399.252 295.905 385.144 294.627C371.037 293.349 360.73 281.435 362.067 268.061Z" stroke="#00889A"/>
<path d="M530.684 268.472C531.468 260.632 538.791 254.841 547.086 255.593C555.381 256.344 561.425 263.346 560.641 271.186C559.857 279.026 552.535 284.817 544.239 284.065C535.944 283.314 529.901 276.312 530.684 268.472Z" stroke="#00889A"/>
<path d="M297.634 375.214C297.864 372.907 300.027 371.176 302.51 371.401C304.993 371.626 306.773 373.715 306.543 376.021C306.312 378.328 304.15 380.06 301.667 379.835C299.184 379.61 297.403 377.521 297.634 375.214Z" stroke="#00889A"/>
<path d="M237.553 326.358C239.313 308.753 255.741 295.8 274.294 297.481C292.846 299.162 306.413 314.833 304.653 332.437C302.893 350.042 286.464 362.995 267.912 361.314C249.36 359.633 235.793 343.962 237.553 326.358Z" stroke="#00889A"/>
<path d="M534.819 377.08C536.579 359.475 553.008 346.522 571.56 348.203C590.112 349.884 603.679 365.555 601.919 383.16C600.159 400.765 583.731 413.718 565.179 412.037C546.627 410.356 533.059 394.685 534.819 377.08Z" stroke="#00889A"/>
<path d="M336.192 376.924C338.603 352.809 361.102 335.081 386.492 337.382C411.882 339.682 430.464 361.133 428.054 385.247C425.643 409.362 403.144 427.09 377.754 424.789C352.364 422.489 333.781 401.038 336.192 376.924Z" stroke="#00889A"/>
<path d="M469.025 410.368C469.809 402.528 477.131 396.738 485.427 397.489C493.722 398.241 499.766 405.243 498.982 413.083C498.198 420.923 490.876 426.714 482.58 425.962C474.285 425.21 468.241 418.209 469.025 410.368Z" fill="#DFFDFF" stroke="#00889A"/>
<path d="M497.673 336.249C497.903 333.942 500.066 332.211 502.549 332.436C505.032 332.661 506.812 334.75 506.582 337.056C506.351 339.363 504.189 341.095 501.706 340.87C499.223 340.645 497.442 338.556 497.673 336.249Z" stroke="#00889A"/>
<path d="M626.198 312.808C626.982 304.968 634.304 299.177 642.6 299.929C650.895 300.68 656.938 307.682 656.155 315.522C655.371 323.362 648.048 329.153 639.753 328.401C631.458 327.65 625.414 320.648 626.198 312.808Z" fill="#DFFDFF" stroke="#00889A"/>
<path d="M305.88 242.751C306.111 240.444 308.273 238.712 310.756 238.937C313.239 239.162 315.019 241.251 314.789 243.558C314.558 245.865 312.396 247.596 309.913 247.371C307.43 247.147 305.649 245.057 305.88 242.751Z" fill="#DFFDFF" stroke="#00889A"/>
<path d="M362.067 268.061C363.404 254.688 375.886 244.838 389.994 246.117C404.101 247.395 414.408 259.309 413.071 272.683C411.734 286.056 399.252 295.905 385.144 294.627C371.037 293.349 360.73 281.435 362.067 268.061Z" stroke="#00889A"/>
<path d="M530.684 268.472C531.468 260.632 538.791 254.841 547.086 255.593C555.381 256.344 561.425 263.346 560.641 271.186C559.857 279.026 552.535 284.817 544.239 284.065C535.944 283.314 529.901 276.312 530.684 268.472Z" stroke="#00889A"/>
<path d="M1377.82 389.344C1382.17 372.149 1400.36 361.537 1418.47 365.694C1436.59 369.852 1447.7 387.189 1443.34 404.384C1438.99 421.578 1420.8 432.191 1402.69 428.033C1384.57 423.875 1373.46 406.538 1377.82 389.344Z" stroke="#00889A"/>
<path d="M1184.4 336.986C1190.37 313.434 1215.27 298.911 1240.06 304.602C1264.85 310.292 1280.07 334.025 1274.11 357.576C1268.14 381.128 1243.24 395.651 1218.45 389.961C1193.65 384.27 1178.44 360.537 1184.4 336.986Z" stroke="#00889A"/>
<path d="M1310.94 387.954C1312.88 380.295 1320.99 375.549 1329.09 377.408C1337.19 379.267 1342.13 387.01 1340.19 394.669C1338.25 402.328 1330.15 407.074 1322.05 405.215C1313.95 403.356 1309 395.613 1310.94 387.954Z" stroke="#00889A"/>
<path d="M1350.3 318.43C1350.87 316.174 1353.27 314.752 1355.69 315.308C1358.11 315.864 1359.57 318.171 1359 320.426C1358.42 322.682 1356.03 324.103 1353.6 323.547C1351.18 322.991 1349.73 320.685 1350.3 318.43Z" stroke="#00889A"/>
<path d="M1530.15 327.084C1532.09 319.425 1540.2 314.679 1548.3 316.538C1556.4 318.397 1561.34 326.14 1559.4 333.799C1557.46 341.457 1549.35 346.204 1541.26 344.345C1533.16 342.486 1528.21 334.743 1530.15 327.084Z" stroke="#00889A"/>
<path d="M1174.3 200.081C1174.87 197.826 1177.27 196.404 1179.69 196.96C1182.11 197.516 1183.57 199.823 1183 202.078C1182.42 204.333 1180.03 205.755 1177.6 205.199C1175.18 204.643 1173.73 202.337 1174.3 200.081Z" stroke="#00889A"/>
<path d="M1226.17 232.693C1229.48 219.631 1243.3 211.56 1257.07 214.722C1270.84 217.884 1279.28 231.063 1275.97 244.125C1272.67 257.188 1258.85 265.258 1245.07 262.097C1231.3 258.935 1222.86 245.756 1226.17 232.693Z" stroke="#00889A"/>
<path d="M1393.03 255.771C1394.97 248.112 1403.08 243.366 1411.18 245.224C1419.28 247.083 1424.22 254.826 1422.28 262.485C1420.34 270.144 1412.24 274.89 1404.14 273.031C1396.04 271.172 1391.09 263.429 1393.03 255.771Z" stroke="#00889A"/>
<path d="M1146.48 330.109C1147.06 327.853 1149.45 326.432 1151.88 326.988C1154.3 327.543 1155.75 329.85 1155.18 332.105C1154.61 334.361 1152.21 335.782 1149.79 335.226C1147.37 334.671 1145.91 332.364 1146.48 330.109Z" stroke="#00889A"/>
<path d="M1094.25 273.665C1098.61 256.47 1116.8 245.858 1134.91 250.015C1153.02 254.173 1164.13 271.51 1159.78 288.705C1155.42 305.899 1137.24 316.512 1119.12 312.354C1101.01 308.196 1089.9 290.859 1094.25 273.665Z" stroke="#00889A"/>
<path d="M1377.82 389.344C1382.17 372.149 1400.36 361.537 1418.47 365.694C1436.59 369.852 1447.7 387.189 1443.34 404.384C1438.99 421.578 1420.8 432.191 1402.69 428.033C1384.57 423.875 1373.46 406.538 1377.82 389.344Z" stroke="#00889A"/>
<path d="M1184.4 336.986C1190.37 313.434 1215.27 298.911 1240.06 304.602C1264.85 310.292 1280.07 334.025 1274.11 357.576C1268.14 381.128 1243.24 395.651 1218.45 389.961C1193.65 384.27 1178.44 360.537 1184.4 336.986Z" stroke="#00889A"/>
<path d="M1310.94 387.954C1312.88 380.295 1320.99 375.549 1329.09 377.408C1337.19 379.267 1342.13 387.01 1340.19 394.669C1338.25 402.328 1330.15 407.074 1322.05 405.215C1313.95 403.356 1309 395.613 1310.94 387.954Z" fill="#DFFDFF" stroke="#00889A"/>
<path d="M1350.3 318.43C1350.87 316.174 1353.27 314.752 1355.69 315.308C1358.11 315.864 1359.57 318.171 1359 320.426C1358.42 322.682 1356.03 324.103 1353.6 323.547C1351.18 322.991 1349.73 320.685 1350.3 318.43Z" stroke="#00889A"/>
<path d="M1392.1 470.352C1394.04 462.693 1402.15 457.947 1410.25 459.806C1418.35 461.665 1423.29 469.408 1421.35 477.066C1419.41 484.725 1411.3 489.471 1403.2 487.613C1395.11 485.754 1390.16 478.011 1392.1 470.352Z" fill="#DFFDFF" stroke="#00889A"/>
<path d="M1174.3 200.081C1174.87 197.826 1177.27 196.404 1179.69 196.96C1182.11 197.516 1183.57 199.823 1183 202.078C1182.42 204.333 1180.03 205.755 1177.6 205.199C1175.18 204.643 1173.73 202.337 1174.3 200.081Z" fill="#DFFDFF" stroke="#00889A"/>
<path d="M1226.17 232.693C1229.48 219.631 1243.3 211.56 1257.07 214.722C1270.84 217.884 1279.28 231.063 1275.97 244.125C1272.67 257.188 1258.85 265.258 1245.07 262.097C1231.3 258.935 1222.86 245.756 1226.17 232.693Z" stroke="#00889A"/>
<path d="M1393.03 255.771C1394.97 248.112 1403.08 243.366 1411.18 245.224C1419.28 247.083 1424.22 254.826 1422.28 262.485C1420.34 270.144 1412.24 274.89 1404.14 273.031C1396.04 271.172 1391.09 263.429 1393.03 255.771Z" stroke="#00889A"/>
<path d="M1146.48 330.109C1147.06 327.853 1149.45 326.432 1151.88 326.988C1154.3 327.543 1155.75 329.85 1155.18 332.105C1154.61 334.361 1152.21 335.782 1149.79 335.226C1147.37 334.671 1145.91 332.364 1146.48 330.109Z" fill="#DFFDFF" stroke="#00889A"/>
<path d="M1094.25 273.665C1098.61 256.47 1116.8 245.858 1134.91 250.015C1153.02 254.173 1164.13 271.51 1159.78 288.705C1155.42 305.899 1137.24 316.512 1119.12 312.354C1101.01 308.196 1089.9 290.859 1094.25 273.665Z" stroke="#00889A"/>
<path d="M1657.64 355.516C1651.59 372.244 1632.43 381.166 1614.81 375.393C1597.2 369.621 1587.86 351.362 1593.91 334.634C1599.95 317.907 1619.12 308.985 1636.73 314.757C1654.35 320.529 1663.68 338.789 1657.64 355.516Z" stroke="#00889A"/>
<path d="M1729.79 141.288C1727.1 148.74 1718.55 152.731 1710.68 150.151C1702.8 147.571 1698.65 139.418 1701.34 131.966C1704.04 124.513 1712.58 120.522 1720.46 123.102C1728.33 125.682 1732.49 133.835 1729.79 141.288Z" stroke="#00889A"/>
<path d="M1683.69 403.499C1682.9 405.695 1680.37 406.892 1678.02 406.121C1675.66 405.35 1674.44 402.924 1675.24 400.727C1676.03 398.531 1678.56 397.334 1680.91 398.105C1683.27 398.876 1684.49 401.302 1683.69 403.499Z" stroke="#00889A"/>
<path d="M1634.92 462.022C1632.22 469.474 1623.68 473.465 1615.8 470.885C1607.93 468.305 1603.77 460.152 1606.47 452.7C1609.16 445.247 1617.71 441.256 1625.58 443.836C1633.45 446.416 1637.61 454.569 1634.92 462.022Z" stroke="#00889A"/>
<path d="M1657.64 355.516C1651.59 372.244 1632.43 381.166 1614.81 375.393C1597.2 369.621 1587.86 351.362 1593.91 334.634C1599.95 317.907 1619.12 308.985 1636.73 314.757C1654.35 320.529 1663.68 338.789 1657.64 355.516Z" stroke="#00889A"/>
<path d="M1729.79 141.288C1727.1 148.74 1718.55 152.731 1710.68 150.151C1702.8 147.571 1698.65 139.418 1701.34 131.966C1704.04 124.513 1712.58 120.522 1720.46 123.102C1728.33 125.682 1732.49 133.835 1729.79 141.288Z" fill="#DFFDFF" stroke="#00889A"/>
<path d="M1683.69 403.499C1682.9 405.695 1680.37 406.892 1678.02 406.121C1675.66 405.35 1674.44 402.924 1675.24 400.727C1676.03 398.531 1678.56 397.334 1680.91 398.105C1683.27 398.876 1684.49 401.302 1683.69 403.499Z" stroke="#00889A"/>
<path d="M1525.18 455.644C1522.49 463.096 1513.94 467.087 1506.07 464.507C1498.19 461.928 1494.04 453.774 1496.73 446.322C1499.43 438.87 1507.97 434.879 1515.85 437.459C1523.72 440.038 1527.87 448.192 1525.18 455.644Z" fill="#DFFDFF" stroke="#00889A"/>
<path d="M1634.92 462.022C1632.22 469.474 1623.68 473.465 1615.8 470.885C1607.93 468.305 1603.77 460.152 1606.47 452.7C1609.16 445.247 1617.71 441.256 1625.58 443.836C1633.45 446.416 1637.61 454.569 1634.92 462.022Z" stroke="#00889A"/>
<path d="M297.634 375.214C297.864 372.907 300.027 371.176 302.51 371.401C304.993 371.626 306.773 373.715 306.543 376.021C306.312 378.328 304.15 380.06 301.667 379.835C299.184 379.61 297.403 377.521 297.634 375.214Z" fill="#DFFDFF" stroke="#00889A"/>
<path d="M237.553 326.358C239.313 308.753 255.741 295.8 274.294 297.481C292.846 299.162 306.413 314.833 304.653 332.437C302.893 350.042 286.464 362.995 267.912 361.314C249.36 359.633 235.793 343.962 237.553 326.358Z" stroke="#00889A"/>
<path d="M349.508 431.546C351.268 413.941 367.697 400.988 386.249 402.669C404.801 404.35 418.368 420.021 416.608 437.625C414.848 455.23 398.419 468.183 379.867 466.502C361.315 464.821 347.748 449.15 349.508 431.546Z" stroke="#00889A"/>
<path d="M150.881 431.389C153.292 407.275 175.791 389.546 201.181 391.847C226.571 394.148 245.154 415.598 242.743 439.713C240.332 463.827 217.833 481.555 192.443 479.255C167.053 476.954 148.47 455.504 150.881 431.389Z" stroke="#00889A"/>
<path d="M283.714 464.834C284.497 456.994 291.82 451.203 300.115 451.955C308.41 452.706 314.454 459.708 313.67 467.548C312.887 475.388 305.564 481.179 297.269 480.427C288.973 479.676 282.93 472.674 283.714 464.834Z" stroke="#00889A"/>
<path d="M312.361 390.715C312.592 388.408 314.754 386.676 317.237 386.901C319.72 387.126 321.501 389.215 321.27 391.522C321.04 393.829 318.877 395.561 316.394 395.336C313.911 395.111 312.131 393.021 312.361 390.715Z" stroke="#00889A"/>
<path d="M440.886 367.273C441.67 359.433 448.993 353.642 457.288 354.394C465.583 355.146 471.627 362.147 470.843 369.988C470.059 377.828 462.737 383.618 454.442 382.867C446.146 382.115 440.103 375.113 440.886 367.273Z" stroke="#00889A"/>
<path d="M120.568 297.216C120.799 294.909 122.961 293.177 125.444 293.402C127.927 293.627 129.708 295.716 129.477 298.023C129.247 300.33 127.084 302.062 124.601 301.837C122.118 301.612 120.338 299.523 120.568 297.216Z" stroke="#00889A"/>
<path d="M176.756 322.526C178.093 309.153 190.576 299.303 204.683 300.581C218.791 301.86 229.098 313.774 227.761 327.147C226.424 340.521 213.941 350.37 199.834 349.092C185.726 347.814 175.419 335.9 176.756 322.526Z" stroke="#00889A"/>
<path d="M345.373 322.937C346.157 315.097 353.479 309.307 361.774 310.058C370.07 310.81 376.113 317.812 375.329 325.652C374.546 333.492 367.223 339.282 358.928 338.531C350.633 337.779 344.589 330.778 345.373 322.937Z" stroke="#00889A"/>
<path d="M112.322 429.68C112.553 427.373 114.715 425.641 117.198 425.866C119.681 426.091 121.462 428.18 121.231 430.487C121.001 432.794 118.838 434.526 116.355 434.301C113.872 434.076 112.092 431.986 112.322 429.68Z" stroke="#00889A"/>
<path d="M52.2423 380.823C54.0023 363.218 70.4309 350.265 88.983 351.946C107.535 353.627 121.102 369.298 119.342 386.903C117.582 404.508 101.154 417.461 82.6015 415.78C64.0494 414.099 50.4823 398.428 52.2423 380.823Z" stroke="#00889A"/>
<path d="M349.508 431.546C351.268 413.941 367.697 400.988 386.249 402.669C404.801 404.35 418.368 420.021 416.608 437.625C414.848 455.23 398.419 468.183 379.867 466.502C361.315 464.821 347.748 449.15 349.508 431.546Z" stroke="#00889A"/>
<path d="M150.881 431.389C153.292 407.275 175.791 389.546 201.181 391.847C226.571 394.148 245.154 415.598 242.743 439.713C240.332 463.827 217.833 481.555 192.443 479.255C167.053 476.954 148.47 455.504 150.881 431.389Z" stroke="#00889A"/>
<path d="M283.714 464.834C284.497 456.994 291.82 451.203 300.115 451.955C308.41 452.706 314.454 459.708 313.67 467.548C312.887 475.388 305.564 481.179 297.269 480.427C288.973 479.676 282.93 472.674 283.714 464.834Z" fill="#DFFDFF" stroke="#00889A"/>
<path d="M312.361 390.715C312.592 388.408 314.754 386.676 317.237 386.901C319.72 387.126 321.501 389.215 321.27 391.522C321.04 393.829 318.877 395.561 316.394 395.336C313.911 395.111 312.131 393.021 312.361 390.715Z" stroke="#00889A"/>
<path d="M440.886 367.273C441.67 359.433 448.993 353.642 457.288 354.394C465.583 355.146 471.627 362.147 470.843 369.988C470.059 377.828 462.737 383.618 454.442 382.867C446.146 382.115 440.103 375.113 440.886 367.273Z" fill="#DFFDFF" stroke="#00889A"/>
<path d="M120.568 297.216C120.799 294.909 122.961 293.177 125.444 293.402C127.927 293.627 129.708 295.716 129.477 298.023C129.247 300.33 127.084 302.062 124.601 301.837C122.118 301.612 120.338 299.523 120.568 297.216Z" fill="#DFFDFF" stroke="#00889A"/>
<path d="M176.756 322.526C178.093 309.153 190.576 299.303 204.683 300.581C218.791 301.86 229.098 313.774 227.761 327.147C226.424 340.521 213.941 350.37 199.834 349.092C185.726 347.814 175.419 335.9 176.756 322.526Z" stroke="#00889A"/>
<path d="M345.373 322.937C346.157 315.097 353.479 309.307 361.774 310.058C370.07 310.81 376.113 317.812 375.329 325.652C374.546 333.492 367.223 339.282 358.928 338.531C350.633 337.779 344.589 330.778 345.373 322.937Z" stroke="#00889A"/>
<path d="M112.322 429.68C112.553 427.373 114.715 425.641 117.198 425.866C119.681 426.091 121.462 428.18 121.231 430.487C121.001 432.794 118.838 434.526 116.355 434.301C113.872 434.076 112.092 431.986 112.322 429.68Z" fill="#DFFDFF" stroke="#00889A"/>
<path d="M52.2423 380.823C54.0023 363.218 70.4309 350.265 88.983 351.946C107.535 353.627 121.102 369.298 119.342 386.903C117.582 404.508 101.154 417.461 82.6015 415.78C64.0494 414.099 50.4823 398.428 52.2423 380.823Z" stroke="#00889A"/>
<path d="M1746.16 157.967C1747.92 140.362 1764.35 127.409 1782.9 129.09C1801.45 130.771 1815.02 146.442 1813.26 164.047C1811.5 181.652 1795.07 194.605 1776.52 192.924C1757.97 191.243 1744.4 175.572 1746.16 157.967Z" stroke="#00889A"/>
<path d="M1623.18 392.608C1623.96 384.768 1631.28 378.977 1639.58 379.729C1647.88 380.48 1653.92 387.482 1653.14 395.322C1652.35 403.162 1645.03 408.953 1636.73 408.201C1628.44 407.45 1622.39 400.448 1623.18 392.608Z" stroke="#00889A"/>
<path d="M1651.83 318.489C1652.06 316.182 1654.22 314.45 1656.7 314.675C1659.19 314.9 1660.97 316.989 1660.74 319.296C1660.5 321.603 1658.34 323.335 1655.86 323.11C1653.38 322.885 1651.6 320.796 1651.83 318.489Z" stroke="#00889A"/>
<path d="M1761.81 358.985C1762.59 351.145 1769.91 345.354 1778.21 346.106C1786.5 346.857 1792.55 353.859 1791.76 361.699C1790.98 369.539 1783.66 375.33 1775.36 374.578C1767.07 373.827 1761.02 366.825 1761.81 358.985Z" stroke="#00889A"/>
<path d="M1460.03 224.99C1460.26 222.683 1462.43 220.951 1464.91 221.176C1467.39 221.401 1469.17 223.491 1468.94 225.797C1468.71 228.104 1466.55 229.836 1464.07 229.611C1461.58 229.386 1459.8 227.297 1460.03 224.99Z" stroke="#00889A"/>
<path d="M1516.22 250.301C1517.56 236.927 1530.04 227.078 1544.15 228.356C1558.25 229.634 1568.56 241.549 1567.22 254.922C1565.89 268.296 1553.41 278.145 1539.3 276.867C1525.19 275.588 1514.88 263.674 1516.22 250.301Z" stroke="#00889A"/>
<path d="M1684.84 250.711C1685.62 242.871 1692.94 237.081 1701.24 237.832C1709.53 238.584 1715.58 245.586 1714.79 253.426C1714.01 261.266 1706.69 267.056 1698.39 266.305C1690.1 265.553 1684.05 258.551 1684.84 250.711Z" stroke="#00889A"/>
<path d="M1487.19 377.73C1487.42 375.423 1489.58 373.691 1492.07 373.916C1494.55 374.141 1496.33 376.23 1496.1 378.537C1495.87 380.844 1493.71 382.576 1491.22 382.351C1488.74 382.126 1486.96 380.036 1487.19 377.73Z" stroke="#00889A"/>
<path d="M1391.71 308.597C1393.47 290.992 1409.9 278.039 1428.45 279.72C1447 281.401 1460.57 297.072 1458.81 314.677C1457.05 332.282 1440.62 345.235 1422.07 343.554C1403.51 341.873 1389.95 326.202 1391.71 308.597Z" stroke="#00889A"/>
<path d="M1746.16 157.967C1747.92 140.362 1764.35 127.409 1782.9 129.09C1801.45 130.771 1815.02 146.442 1813.26 164.047C1811.5 181.652 1795.07 194.605 1776.52 192.924C1757.97 191.243 1744.4 175.572 1746.16 157.967Z" stroke="#00889A"/>
<path d="M1623.18 392.608C1623.96 384.768 1631.28 378.977 1639.58 379.729C1647.88 380.48 1653.92 387.482 1653.14 395.322C1652.35 403.162 1645.03 408.953 1636.73 408.201C1628.44 407.45 1622.39 400.448 1623.18 392.608Z" fill="#DFFDFF" stroke="#00889A"/>
<path d="M1651.83 318.489C1652.06 316.182 1654.22 314.45 1656.7 314.675C1659.19 314.9 1660.97 316.989 1660.74 319.296C1660.5 321.603 1658.34 323.335 1655.86 323.11C1653.38 322.885 1651.6 320.796 1651.83 318.489Z" stroke="#00889A"/>
<path d="M1780.35 260.71C1781.14 252.87 1788.46 247.08 1796.75 247.831C1805.05 248.583 1811.09 255.585 1810.31 263.425C1809.52 271.265 1802.2 277.055 1793.91 276.304C1785.61 275.552 1779.57 268.55 1780.35 260.71Z" fill="#DFFDFF" stroke="#00889A"/>
<path d="M1460.03 224.99C1460.26 222.683 1462.43 220.951 1464.91 221.176C1467.39 221.401 1469.17 223.491 1468.94 225.797C1468.71 228.104 1466.55 229.836 1464.07 229.611C1461.58 229.386 1459.8 227.297 1460.03 224.99Z" fill="#DFFDFF" stroke="#00889A"/>
<path d="M1516.22 250.301C1517.56 236.927 1530.04 227.078 1544.15 228.356C1558.25 229.634 1568.56 241.549 1567.22 254.922C1565.89 268.296 1553.41 278.145 1539.3 276.867C1525.19 275.588 1514.88 263.674 1516.22 250.301Z" stroke="#00889A"/>
<path d="M1684.84 250.711C1685.62 242.871 1692.94 237.081 1701.24 237.832C1709.53 238.584 1715.58 245.586 1714.79 253.426C1714.01 261.266 1706.69 267.056 1698.39 266.305C1690.1 265.553 1684.05 258.551 1684.84 250.711Z" stroke="#00889A"/>
<path d="M1448.64 433.379C1448.87 431.072 1451.03 429.34 1453.51 429.565C1455.99 429.79 1457.78 431.88 1457.54 434.186C1457.31 436.493 1455.15 438.225 1452.67 438C1450.19 437.775 1448.41 435.686 1448.64 433.379Z" fill="#DFFDFF" stroke="#00889A"/>
<path d="M1391.71 308.597C1393.47 290.992 1409.9 278.039 1428.45 279.72C1447 281.401 1460.57 297.072 1458.81 314.677C1457.05 332.282 1440.62 345.235 1422.07 343.554C1403.51 341.873 1389.95 326.202 1391.71 308.597Z" stroke="#00889A"/>
<rect width="1817" height="497" fill="url(#paint1_linear_1737_39279)" fill-opacity="0.42"/>
<path d="M801.687 307.256C801.687 324.94 786.621 339.317 767.985 339.317C749.349 339.317 734.283 324.94 734.283 307.256C734.283 289.572 749.349 275.195 767.985 275.195C786.621 275.195 801.687 289.572 801.687 307.256Z" stroke="#00889A"/>
<path d="M999.435 289.496C999.435 313.719 978.801 333.397 953.296 333.397C927.791 333.397 907.157 313.719 907.157 289.496C907.157 265.273 927.791 245.595 953.296 245.595C978.801 245.595 999.435 265.273 999.435 289.496Z" stroke="#00889A"/>
<path d="M863.872 268.183C863.872 276.058 857.159 282.484 848.826 282.484C840.492 282.484 833.779 276.058 833.779 268.183C833.779 260.308 840.492 253.883 848.826 253.883C857.159 253.883 863.872 260.308 863.872 268.183Z" stroke="#00889A"/>
<path d="M842.729 344.553C842.729 346.87 840.749 348.789 838.254 348.789C835.759 348.789 833.779 346.87 833.779 344.553C833.779 342.237 835.759 340.317 838.254 340.317C840.749 340.317 842.729 342.237 842.729 344.553Z" stroke="#00889A"/>
<path d="M717.115 379.482C717.115 387.357 710.402 393.783 702.069 393.783C693.735 393.783 687.022 387.357 687.022 379.482C687.022 371.607 693.735 365.182 702.069 365.182C710.402 365.182 717.115 371.607 717.115 379.482Z" stroke="#00889A"/>
<path d="M1042.96 420.331C1042.96 422.648 1040.98 424.567 1038.49 424.567C1035.99 424.567 1034.01 422.648 1034.01 420.331C1034.01 418.015 1035.99 416.095 1038.49 416.095C1040.98 416.095 1042.96 418.015 1042.96 420.331Z" stroke="#00889A"/>
<path d="M984.51 400.203C984.51 413.636 973.064 424.567 958.892 424.567C944.72 424.567 933.274 413.636 933.274 400.203C933.274 386.769 944.72 375.838 958.892 375.838C973.064 375.838 984.51 386.769 984.51 400.203Z" stroke="#00889A"/>
<path d="M816.611 415.003C816.611 422.878 809.898 429.304 801.565 429.304C793.232 429.304 786.519 422.878 786.519 415.003C786.519 407.128 793.232 400.703 801.565 400.703C809.898 400.703 816.611 407.128 816.611 415.003Z" stroke="#00889A"/>
<path d="M1037.99 287.72C1037.99 290.036 1036.01 291.956 1033.51 291.956C1031.02 291.956 1029.04 290.036 1029.04 287.72C1029.04 285.403 1031.02 283.484 1033.51 283.484C1036.01 283.484 1037.99 285.403 1037.99 287.72Z" stroke="#00889A"/>
<path d="M1102.66 330.937C1102.66 348.621 1087.6 362.998 1068.96 362.998C1050.32 362.998 1035.26 348.621 1035.26 330.937C1035.26 313.253 1050.32 298.876 1068.96 298.876C1087.6 298.876 1102.66 313.253 1102.66 330.937Z" stroke="#00889A"/>
<path d="M801.687 307.256C801.687 324.94 786.621 339.317 767.985 339.317C749.349 339.317 734.283 324.94 734.283 307.256C734.283 289.572 749.349 275.195 767.985 275.195C786.621 275.195 801.687 289.572 801.687 307.256Z" stroke="#00889A"/>
<path d="M999.435 289.496C999.435 313.719 978.801 333.397 953.296 333.397C927.791 333.397 907.157 313.719 907.157 289.496C907.157 265.273 927.791 245.595 953.296 245.595C978.801 245.595 999.435 265.273 999.435 289.496Z" stroke="#00889A"/>
<path d="M863.872 268.183C863.872 276.058 857.159 282.484 848.826 282.484C840.492 282.484 833.779 276.058 833.779 268.183C833.779 260.308 840.492 253.883 848.826 253.883C857.159 253.883 863.872 260.308 863.872 268.183Z" fill="#DFFDFF" stroke="#00889A"/>
<path d="M842.729 344.553C842.729 346.87 840.749 348.789 838.254 348.789C835.759 348.789 833.779 346.87 833.779 344.553C833.779 342.237 835.759 340.317 838.254 340.317C840.749 340.317 842.729 342.237 842.729 344.553Z" stroke="#00889A"/>
<path d="M717.115 379.482C717.115 387.357 710.402 393.783 702.069 393.783C693.735 393.783 687.022 387.357 687.022 379.482C687.022 371.607 693.735 365.182 702.069 365.182C710.402 365.182 717.115 371.607 717.115 379.482Z" fill="#DFFDFF" stroke="#00889A"/>
<path d="M1042.96 420.331C1042.96 422.648 1040.98 424.567 1038.49 424.567C1035.99 424.567 1034.01 422.648 1034.01 420.331C1034.01 418.015 1035.99 416.095 1038.49 416.095C1040.98 416.095 1042.96 418.015 1042.96 420.331Z" fill="#DFFDFF" stroke="#00889A"/>
<path d="M984.51 400.203C984.51 413.636 973.064 424.567 958.892 424.567C944.72 424.567 933.274 413.636 933.274 400.203C933.274 386.769 944.72 375.838 958.892 375.838C973.064 375.838 984.51 386.769 984.51 400.203Z" stroke="#00889A"/>
<path d="M816.611 415.003C816.611 422.878 809.898 429.304 801.565 429.304C793.232 429.304 786.519 422.878 786.519 415.003C786.519 407.128 793.232 400.703 801.565 400.703C809.898 400.703 816.611 407.128 816.611 415.003Z" stroke="#00889A"/>
<path d="M1037.99 287.72C1037.99 290.036 1036.01 291.956 1033.51 291.956C1031.02 291.956 1029.04 290.036 1029.04 287.72C1029.04 285.403 1031.02 283.484 1033.51 283.484C1036.01 283.484 1037.99 285.403 1037.99 287.72Z" fill="#DFFDFF" stroke="#00889A"/>
<path d="M1102.66 330.937C1102.66 348.621 1087.6 362.998 1068.96 362.998C1050.32 362.998 1035.26 348.621 1035.26 330.937C1035.26 313.253 1050.32 298.876 1068.96 298.876C1087.6 298.876 1102.66 313.253 1102.66 330.937Z" stroke="#00889A"/>
<path d="M1250.24 465.154C1251.1 455.679 1259.88 448.62 1269.89 449.442C1279.9 450.264 1287.28 458.648 1286.42 468.123C1285.56 477.598 1276.79 484.657 1266.77 483.835C1256.76 483.013 1249.38 474.629 1250.24 465.154Z" stroke="#00889A"/>
<path d="M1142.77 466.433C1143.95 453.374 1156.04 443.661 1169.82 444.792C1183.6 445.923 1193.76 457.463 1192.58 470.521C1191.4 483.58 1179.31 493.293 1165.53 492.162C1151.75 491.031 1141.59 479.491 1142.77 466.433Z" stroke="#00889A"/>
<path d="M1229.75 443.269C1229.8 442.806 1230.08 442.371 1230.58 442.055C1231.08 441.738 1231.77 441.559 1232.52 441.621C1233.28 441.683 1233.92 441.971 1234.36 442.365C1234.79 442.758 1235 443.232 1234.95 443.695C1234.91 444.159 1234.63 444.593 1234.13 444.909C1233.63 445.226 1232.94 445.406 1232.19 445.343C1231.43 445.281 1230.78 444.993 1230.35 444.599C1229.92 444.206 1229.71 443.732 1229.75 443.269Z" stroke="#00889A"/>
<path d="M1125.64 393.721C1125.77 392.282 1126.82 391.349 1127.84 391.432C1128.85 391.515 1129.73 392.607 1129.6 394.046C1129.47 395.485 1128.41 396.418 1127.4 396.334C1126.38 396.251 1125.51 395.159 1125.64 393.721Z" stroke="#00889A"/>
<path d="M1155.65 406.881C1156.31 399.686 1162.97 394.317 1170.59 394.942C1178.21 395.567 1183.81 401.944 1183.16 409.139C1182.51 416.334 1175.84 421.703 1168.22 421.078C1160.6 420.453 1155 414.076 1155.65 406.881Z" stroke="#00889A"/>
<path d="M1248.04 406.74C1248.43 402.442 1252.14 399.259 1256.3 399.6C1260.46 399.942 1263.54 403.682 1263.15 407.98C1262.76 412.278 1259.06 415.461 1254.9 415.119C1250.73 414.778 1247.65 411.037 1248.04 406.74Z" stroke="#00889A"/>
<path d="M1089.09 438.852C1089.95 429.377 1098.73 422.318 1108.74 423.14C1118.75 423.962 1126.13 432.347 1125.27 441.822C1124.41 451.297 1115.64 458.356 1105.62 457.534C1095.61 456.712 1088.24 448.327 1089.09 438.852Z" stroke="#00889A"/>
<path d="M1250.24 465.154C1251.1 455.679 1259.88 448.62 1269.89 449.442C1279.9 450.264 1287.28 458.648 1286.42 468.123C1285.56 477.598 1276.79 484.657 1266.77 483.835C1256.76 483.013 1249.38 474.629 1250.24 465.154Z" stroke="#00889A"/>
<path d="M1142.77 466.433C1143.95 453.374 1156.04 443.661 1169.82 444.792C1183.6 445.923 1193.76 457.463 1192.58 470.521C1191.4 483.58 1179.31 493.293 1165.53 492.162C1151.75 491.031 1141.59 479.491 1142.77 466.433Z" stroke="#00889A"/>
<path d="M1229.75 443.269C1229.8 442.806 1230.08 442.371 1230.58 442.055C1231.08 441.738 1231.77 441.559 1232.52 441.621C1233.28 441.683 1233.92 441.971 1234.36 442.365C1234.79 442.758 1235 443.232 1234.95 443.695C1234.91 444.159 1234.63 444.593 1234.13 444.909C1233.63 445.226 1232.94 445.406 1232.19 445.343C1231.43 445.281 1230.78 444.993 1230.35 444.599C1229.92 444.206 1229.71 443.732 1229.75 443.269Z" stroke="#00889A"/>
<path d="M1125.64 393.721C1125.77 392.282 1126.82 391.349 1127.84 391.432C1128.85 391.515 1129.73 392.607 1129.6 394.046C1129.47 395.485 1128.41 396.418 1127.4 396.334C1126.38 396.251 1125.51 395.159 1125.64 393.721Z" fill="#DFFDFF" stroke="#00889A"/>
<path d="M1155.65 406.881C1156.31 399.686 1162.97 394.317 1170.59 394.942C1178.21 395.567 1183.81 401.944 1183.16 409.139C1182.51 416.334 1175.84 421.703 1168.22 421.078C1160.6 420.453 1155 414.076 1155.65 406.881Z" stroke="#00889A"/>
<path d="M1248.04 406.74C1248.43 402.442 1252.14 399.259 1256.3 399.6C1260.46 399.942 1263.54 403.682 1263.15 407.98C1262.76 412.278 1259.06 415.461 1254.9 415.119C1250.73 414.778 1247.65 411.037 1248.04 406.74Z" stroke="#00889A"/>
<path d="M1089.09 438.852C1089.95 429.377 1098.73 422.318 1108.74 423.14C1118.75 423.962 1126.13 432.347 1125.27 441.822C1124.41 451.297 1115.64 458.356 1105.62 457.534C1095.61 456.712 1088.24 448.327 1089.09 438.852Z" stroke="#00889A"/>
<path d="M484.452 144.306C485.002 145.077 484.695 146.416 483.406 147.249C482.118 148.082 480.697 147.86 480.147 147.088C479.597 146.317 479.904 144.978 481.193 144.145C482.482 143.312 483.902 143.535 484.452 144.306Z" stroke="#00889A"/>
<path d="M494.458 183.634C497.014 187.219 496.229 191.913 492.789 194.136C489.349 196.359 484.477 195.321 481.921 191.737C479.365 188.153 480.15 183.459 483.59 181.236C487.03 179.012 491.902 180.05 494.458 183.634Z" stroke="#00889A"/>
<path d="M484.452 144.306C485.002 145.077 484.695 146.416 483.406 147.249C482.118 148.082 480.697 147.86 480.147 147.088C479.597 146.317 479.904 144.978 481.193 144.145C482.482 143.312 483.902 143.535 484.452 144.306Z" stroke="#00889A"/>
<path d="M838.577 462.786C839.435 453.311 848.21 446.252 858.223 447.074C868.236 447.895 875.612 456.28 874.754 465.755C873.896 475.23 865.121 482.289 855.108 481.467C845.095 480.645 837.719 472.261 838.577 462.786Z" stroke="#00889A"/>
<path d="M731.107 464.065C732.29 451.006 744.379 441.293 758.155 442.424C771.932 443.555 782.096 455.095 780.914 468.153C779.731 481.212 767.642 490.925 753.865 489.794C740.088 488.663 729.924 477.123 731.107 464.065Z" stroke="#00889A"/>
<path d="M818.09 440.901C818.132 440.437 818.418 440.003 818.916 439.687C819.414 439.37 820.102 439.191 820.858 439.253C821.614 439.315 822.259 439.603 822.693 439.997C823.126 440.39 823.331 440.864 823.289 441.327C823.247 441.79 822.96 442.225 822.462 442.541C821.964 442.858 821.277 443.037 820.521 442.975C819.764 442.913 819.12 442.625 818.686 442.231C818.252 441.838 818.048 441.364 818.09 440.901Z" stroke="#00889A"/>
<path d="M713.973 391.353C714.103 389.914 715.16 388.981 716.175 389.064C717.19 389.147 718.063 390.239 717.933 391.678C717.803 393.116 716.746 394.05 715.731 393.966C714.716 393.883 713.843 392.791 713.973 391.353Z" stroke="#00889A"/>
<path d="M743.99 404.513C744.642 397.318 751.308 391.949 758.925 392.574C766.543 393.199 772.145 399.576 771.493 406.771C770.841 413.966 764.176 419.335 756.558 418.71C748.94 418.085 743.339 411.708 743.99 404.513Z" stroke="#00889A"/>
<path d="M836.377 404.372C836.766 400.074 840.475 396.891 844.636 397.232C848.797 397.574 851.878 401.314 851.489 405.612C851.1 409.91 847.391 413.093 843.23 412.751C839.069 412.41 835.988 408.669 836.377 404.372Z" stroke="#00889A"/>
<path d="M677.43 436.484C678.288 427.009 687.063 419.95 697.076 420.772C707.088 421.594 714.464 429.979 713.606 439.454C712.748 448.929 703.973 455.988 693.961 455.166C683.948 454.344 676.572 445.959 677.43 436.484Z" stroke="#00889A"/>
<path d="M838.577 462.786C839.435 453.311 848.21 446.252 858.223 447.074C868.236 447.895 875.612 456.28 874.754 465.755C873.896 475.23 865.121 482.289 855.108 481.467C845.095 480.645 837.719 472.261 838.577 462.786Z" stroke="#00889A"/>
<path d="M731.107 464.065C732.29 451.006 744.379 441.293 758.155 442.424C771.932 443.555 782.096 455.095 780.914 468.153C779.731 481.212 767.642 490.925 753.865 489.794C740.088 488.663 729.924 477.123 731.107 464.065Z" stroke="#00889A"/>
<path d="M818.09 440.901C818.132 440.437 818.418 440.003 818.916 439.687C819.414 439.37 820.102 439.191 820.858 439.253C821.614 439.315 822.259 439.603 822.693 439.997C823.126 440.39 823.331 440.864 823.289 441.327C823.247 441.79 822.96 442.225 822.462 442.541C821.964 442.858 821.277 443.037 820.521 442.975C819.764 442.913 819.12 442.625 818.686 442.231C818.252 441.838 818.048 441.364 818.09 440.901Z" stroke="#00889A"/>
<path d="M713.973 391.353C714.103 389.914 715.16 388.981 716.175 389.064C717.19 389.147 718.063 390.239 717.933 391.678C717.803 393.116 716.746 394.05 715.731 393.966C714.716 393.883 713.843 392.791 713.973 391.353Z" fill="#DFFDFF" stroke="#00889A"/>
<path d="M743.99 404.513C744.642 397.318 751.308 391.949 758.925 392.574C766.543 393.199 772.145 399.576 771.493 406.771C770.841 413.966 764.176 419.335 756.558 418.71C748.94 418.085 743.339 411.708 743.99 404.513Z" stroke="#00889A"/>
<path d="M836.377 404.372C836.766 400.074 840.475 396.891 844.636 397.232C848.797 397.574 851.878 401.314 851.489 405.612C851.1 409.91 847.391 413.093 843.23 412.751C839.069 412.41 835.988 408.669 836.377 404.372Z" stroke="#00889A"/>
<path d="M677.43 436.484C678.288 427.009 687.063 419.95 697.076 420.772C707.088 421.594 714.464 429.979 713.606 439.454C712.748 448.929 703.973 455.988 693.961 455.166C683.948 454.344 676.572 445.959 677.43 436.484Z" stroke="#00889A"/>
<path d="M534.819 377.08C536.579 359.475 553.008 346.522 571.56 348.203C590.112 349.884 603.679 365.555 601.919 383.16C600.159 400.765 583.731 413.718 565.179 412.037C546.627 410.356 533.059 394.685 534.819 377.08Z" stroke="#00889A"/>
<path d="M336.192 376.924C338.603 352.809 361.102 335.081 386.492 337.382C411.882 339.682 430.464 361.133 428.054 385.247C425.643 409.362 403.144 427.09 377.754 424.789C352.364 422.489 333.781 401.038 336.192 376.924Z" stroke="#00889A"/>
<path d="M469.025 410.368C469.809 402.528 477.131 396.738 485.427 397.489C493.722 398.241 499.766 405.243 498.982 413.083C498.198 420.923 490.876 426.714 482.58 425.962C474.285 425.21 468.241 418.209 469.025 410.368Z" stroke="#00889A"/>
<path d="M497.673 336.249C497.903 333.942 500.066 332.211 502.549 332.436C505.032 332.661 506.812 334.75 506.582 337.056C506.351 339.363 504.189 341.095 501.706 340.87C499.223 340.645 497.442 338.556 497.673 336.249Z" stroke="#00889A"/>
<path d="M626.198 312.808C626.982 304.968 634.304 299.177 642.6 299.929C650.895 300.68 656.938 307.682 656.155 315.522C655.371 323.362 648.048 329.153 639.753 328.401C631.458 327.65 625.414 320.648 626.198 312.808Z" stroke="#00889A"/>
<path d="M305.88 242.751C306.111 240.444 308.273 238.712 310.756 238.937C313.239 239.162 315.019 241.251 314.789 243.558C314.558 245.865 312.396 247.596 309.913 247.371C307.43 247.147 305.649 245.057 305.88 242.751Z" stroke="#00889A"/>
<path d="M362.067 268.061C363.404 254.688 375.886 244.838 389.994 246.117C404.101 247.395 414.408 259.309 413.071 272.683C411.734 286.056 399.252 295.905 385.144 294.627C371.037 293.349 360.73 281.435 362.067 268.061Z" stroke="#00889A"/>
<path d="M530.684 268.472C531.468 260.632 538.791 254.841 547.086 255.593C555.381 256.344 561.425 263.346 560.641 271.186C559.857 279.026 552.535 284.817 544.239 284.065C535.944 283.314 529.901 276.312 530.684 268.472Z" stroke="#00889A"/>
<path d="M297.634 375.214C297.864 372.907 300.027 371.176 302.51 371.401C304.993 371.626 306.773 373.715 306.543 376.021C306.312 378.328 304.15 380.06 301.667 379.835C299.184 379.61 297.403 377.521 297.634 375.214Z" stroke="#00889A"/>
<path d="M237.553 326.358C239.313 308.753 255.741 295.8 274.294 297.481C292.846 299.162 306.413 314.833 304.653 332.437C302.893 350.042 286.464 362.995 267.912 361.314C249.36 359.633 235.793 343.962 237.553 326.358Z" stroke="#00889A"/>
<path d="M534.819 377.08C536.579 359.475 553.008 346.522 571.56 348.203C590.112 349.884 603.679 365.555 601.919 383.16C600.159 400.765 583.731 413.718 565.179 412.037C546.627 410.356 533.059 394.685 534.819 377.08Z" stroke="#00889A"/>
<path d="M336.192 376.924C338.603 352.809 361.102 335.081 386.492 337.382C411.882 339.682 430.464 361.133 428.054 385.247C425.643 409.362 403.144 427.09 377.754 424.789C352.364 422.489 333.781 401.038 336.192 376.924Z" stroke="#00889A"/>
<path d="M469.025 410.368C469.809 402.528 477.131 396.738 485.427 397.489C493.722 398.241 499.766 405.243 498.982 413.083C498.198 420.923 490.876 426.714 482.58 425.962C474.285 425.21 468.241 418.209 469.025 410.368Z" fill="#DFFDFF" stroke="#00889A"/>
<path d="M497.673 336.249C497.903 333.942 500.066 332.211 502.549 332.436C505.032 332.661 506.812 334.75 506.582 337.056C506.351 339.363 504.189 341.095 501.706 340.87C499.223 340.645 497.442 338.556 497.673 336.249Z" stroke="#00889A"/>
<path d="M626.198 312.808C626.982 304.968 634.304 299.177 642.6 299.929C650.895 300.68 656.938 307.682 656.155 315.522C655.371 323.362 648.048 329.153 639.753 328.401C631.458 327.65 625.414 320.648 626.198 312.808Z" fill="#DFFDFF" stroke="#00889A"/>
<path d="M305.88 242.751C306.111 240.444 308.273 238.712 310.756 238.937C313.239 239.162 315.019 241.251 314.789 243.558C314.558 245.865 312.396 247.596 309.913 247.371C307.43 247.147 305.649 245.057 305.88 242.751Z" fill="#DFFDFF" stroke="#00889A"/>
<path d="M362.067 268.061C363.404 254.688 375.886 244.838 389.994 246.117C404.101 247.395 414.408 259.309 413.071 272.683C411.734 286.056 399.252 295.905 385.144 294.627C371.037 293.349 360.73 281.435 362.067 268.061Z" stroke="#00889A"/>
<path d="M530.684 268.472C531.468 260.632 538.791 254.841 547.086 255.593C555.381 256.344 561.425 263.346 560.641 271.186C559.857 279.026 552.535 284.817 544.239 284.065C535.944 283.314 529.901 276.312 530.684 268.472Z" stroke="#00889A"/>
<path d="M1377.82 389.344C1382.17 372.149 1400.36 361.537 1418.47 365.694C1436.59 369.852 1447.7 387.189 1443.34 404.384C1438.99 421.578 1420.8 432.191 1402.69 428.033C1384.57 423.875 1373.46 406.538 1377.82 389.344Z" stroke="#00889A"/>
<path d="M1184.4 336.986C1190.37 313.434 1215.27 298.911 1240.06 304.602C1264.85 310.292 1280.07 334.025 1274.11 357.576C1268.14 381.128 1243.24 395.651 1218.45 389.961C1193.65 384.27 1178.44 360.537 1184.4 336.986Z" stroke="#00889A"/>
<path d="M1310.94 387.954C1312.88 380.295 1320.99 375.549 1329.09 377.408C1337.19 379.267 1342.13 387.01 1340.19 394.669C1338.25 402.328 1330.15 407.074 1322.05 405.215C1313.95 403.356 1309 395.613 1310.94 387.954Z" stroke="#00889A"/>
<path d="M1350.3 318.43C1350.87 316.174 1353.27 314.752 1355.69 315.308C1358.11 315.864 1359.57 318.171 1359 320.426C1358.42 322.682 1356.03 324.103 1353.6 323.547C1351.18 322.991 1349.73 320.685 1350.3 318.43Z" stroke="#00889A"/>
<path d="M1530.15 327.084C1532.09 319.425 1540.2 314.679 1548.3 316.538C1556.4 318.397 1561.34 326.14 1559.4 333.799C1557.46 341.457 1549.35 346.204 1541.26 344.345C1533.16 342.486 1528.21 334.743 1530.15 327.084Z" stroke="#00889A"/>
<path d="M1174.3 200.081C1174.87 197.826 1177.27 196.404 1179.69 196.96C1182.11 197.516 1183.57 199.823 1183 202.078C1182.42 204.333 1180.03 205.755 1177.6 205.199C1175.18 204.643 1173.73 202.337 1174.3 200.081Z" stroke="#00889A"/>
<path d="M1226.17 232.693C1229.48 219.631 1243.3 211.56 1257.07 214.722C1270.84 217.884 1279.28 231.063 1275.97 244.125C1272.67 257.188 1258.85 265.258 1245.07 262.097C1231.3 258.935 1222.86 245.756 1226.17 232.693Z" stroke="#00889A"/>
<path d="M1393.03 255.771C1394.97 248.112 1403.08 243.366 1411.18 245.224C1419.28 247.083 1424.22 254.826 1422.28 262.485C1420.34 270.144 1412.24 274.89 1404.14 273.031C1396.04 271.172 1391.09 263.429 1393.03 255.771Z" stroke="#00889A"/>
<path d="M1146.48 330.109C1147.06 327.853 1149.45 326.432 1151.88 326.988C1154.3 327.543 1155.75 329.85 1155.18 332.105C1154.61 334.361 1152.21 335.782 1149.79 335.226C1147.37 334.671 1145.91 332.364 1146.48 330.109Z" stroke="#00889A"/>
<path d="M1094.25 273.665C1098.61 256.47 1116.8 245.858 1134.91 250.015C1153.02 254.173 1164.13 271.51 1159.78 288.705C1155.42 305.899 1137.24 316.512 1119.12 312.354C1101.01 308.196 1089.9 290.859 1094.25 273.665Z" stroke="#00889A"/>
<path d="M1377.82 389.344C1382.17 372.149 1400.36 361.537 1418.47 365.694C1436.59 369.852 1447.7 387.189 1443.34 404.384C1438.99 421.578 1420.8 432.191 1402.69 428.033C1384.57 423.875 1373.46 406.538 1377.82 389.344Z" stroke="#00889A"/>
<path d="M1184.4 336.986C1190.37 313.434 1215.27 298.911 1240.06 304.602C1264.85 310.292 1280.07 334.025 1274.11 357.576C1268.14 381.128 1243.24 395.651 1218.45 389.961C1193.65 384.27 1178.44 360.537 1184.4 336.986Z" stroke="#00889A"/>
<path d="M1310.94 387.954C1312.88 380.295 1320.99 375.549 1329.09 377.408C1337.19 379.267 1342.13 387.01 1340.19 394.669C1338.25 402.328 1330.15 407.074 1322.05 405.215C1313.95 403.356 1309 395.613 1310.94 387.954Z" fill="#DFFDFF" stroke="#00889A"/>
<path d="M1350.3 318.43C1350.87 316.174 1353.27 314.752 1355.69 315.308C1358.11 315.864 1359.57 318.171 1359 320.426C1358.42 322.682 1356.03 324.103 1353.6 323.547C1351.18 322.991 1349.73 320.685 1350.3 318.43Z" stroke="#00889A"/>
<path d="M1392.1 470.352C1394.04 462.693 1402.15 457.947 1410.25 459.806C1418.35 461.665 1423.29 469.408 1421.35 477.066C1419.41 484.725 1411.3 489.471 1403.2 487.613C1395.11 485.754 1390.16 478.011 1392.1 470.352Z" fill="#DFFDFF" stroke="#00889A"/>
<path d="M1174.3 200.081C1174.87 197.826 1177.27 196.404 1179.69 196.96C1182.11 197.516 1183.57 199.823 1183 202.078C1182.42 204.333 1180.03 205.755 1177.6 205.199C1175.18 204.643 1173.73 202.337 1174.3 200.081Z" fill="#DFFDFF" stroke="#00889A"/>
<path d="M1226.17 232.693C1229.48 219.631 1243.3 211.56 1257.07 214.722C1270.84 217.884 1279.28 231.063 1275.97 244.125C1272.67 257.188 1258.85 265.258 1245.07 262.097C1231.3 258.935 1222.86 245.756 1226.17 232.693Z" stroke="#00889A"/>
<path d="M1393.03 255.771C1394.97 248.112 1403.08 243.366 1411.18 245.224C1419.28 247.083 1424.22 254.826 1422.28 262.485C1420.34 270.144 1412.24 274.89 1404.14 273.031C1396.04 271.172 1391.09 263.429 1393.03 255.771Z" stroke="#00889A"/>
<path d="M1146.48 330.109C1147.06 327.853 1149.45 326.432 1151.88 326.988C1154.3 327.543 1155.75 329.85 1155.18 332.105C1154.61 334.361 1152.21 335.782 1149.79 335.226C1147.37 334.671 1145.91 332.364 1146.48 330.109Z" fill="#DFFDFF" stroke="#00889A"/>
<path d="M1094.25 273.665C1098.61 256.47 1116.8 245.858 1134.91 250.015C1153.02 254.173 1164.13 271.51 1159.78 288.705C1155.42 305.899 1137.24 316.512 1119.12 312.354C1101.01 308.196 1089.9 290.859 1094.25 273.665Z" stroke="#00889A"/>
<path d="M1657.64 355.516C1651.59 372.244 1632.43 381.166 1614.81 375.393C1597.2 369.621 1587.86 351.362 1593.91 334.634C1599.95 317.907 1619.12 308.985 1636.73 314.757C1654.35 320.529 1663.68 338.789 1657.64 355.516Z" stroke="#00889A"/>
<path d="M1729.79 141.288C1727.1 148.74 1718.55 152.731 1710.68 150.151C1702.8 147.571 1698.65 139.418 1701.34 131.966C1704.04 124.513 1712.58 120.522 1720.46 123.102C1728.33 125.682 1732.49 133.835 1729.79 141.288Z" stroke="#00889A"/>
<path d="M1683.69 403.499C1682.9 405.695 1680.37 406.892 1678.02 406.121C1675.66 405.35 1674.44 402.924 1675.24 400.727C1676.03 398.531 1678.56 397.334 1680.91 398.105C1683.27 398.876 1684.49 401.302 1683.69 403.499Z" stroke="#00889A"/>
<path d="M1634.92 462.022C1632.22 469.474 1623.68 473.465 1615.8 470.885C1607.93 468.305 1603.77 460.152 1606.47 452.7C1609.16 445.247 1617.71 441.256 1625.58 443.836C1633.45 446.416 1637.61 454.569 1634.92 462.022Z" stroke="#00889A"/>
<path d="M1657.64 355.516C1651.59 372.244 1632.43 381.166 1614.81 375.393C1597.2 369.621 1587.86 351.362 1593.91 334.634C1599.95 317.907 1619.12 308.985 1636.73 314.757C1654.35 320.529 1663.68 338.789 1657.64 355.516Z" stroke="#00889A"/>
<path d="M1729.79 141.288C1727.1 148.74 1718.55 152.731 1710.68 150.151C1702.8 147.571 1698.65 139.418 1701.34 131.966C1704.04 124.513 1712.58 120.522 1720.46 123.102C1728.33 125.682 1732.49 133.835 1729.79 141.288Z" fill="#DFFDFF" stroke="#00889A"/>
<path d="M1683.69 403.499C1682.9 405.695 1680.37 406.892 1678.02 406.121C1675.66 405.35 1674.44 402.924 1675.24 400.727C1676.03 398.531 1678.56 397.334 1680.91 398.105C1683.27 398.876 1684.49 401.302 1683.69 403.499Z" stroke="#00889A"/>
<path d="M1525.18 455.644C1522.49 463.096 1513.94 467.087 1506.07 464.507C1498.19 461.928 1494.04 453.774 1496.73 446.322C1499.43 438.87 1507.97 434.879 1515.85 437.459C1523.72 440.038 1527.87 448.192 1525.18 455.644Z" fill="#DFFDFF" stroke="#00889A"/>
<path d="M1634.92 462.022C1632.22 469.474 1623.68 473.465 1615.8 470.885C1607.93 468.305 1603.77 460.152 1606.47 452.7C1609.16 445.247 1617.71 441.256 1625.58 443.836C1633.45 446.416 1637.61 454.569 1634.92 462.022Z" stroke="#00889A"/>
<path d="M297.634 375.214C297.864 372.907 300.027 371.176 302.51 371.401C304.993 371.626 306.773 373.715 306.543 376.021C306.312 378.328 304.15 380.06 301.667 379.835C299.184 379.61 297.403 377.521 297.634 375.214Z" fill="#DFFDFF" stroke="#00889A"/>
<path d="M237.553 326.358C239.313 308.753 255.741 295.8 274.294 297.481C292.846 299.162 306.413 314.833 304.653 332.437C302.893 350.042 286.464 362.995 267.912 361.314C249.36 359.633 235.793 343.962 237.553 326.358Z" stroke="#00889A"/>
<path d="M349.508 431.546C351.268 413.941 367.697 400.988 386.249 402.669C404.801 404.35 418.368 420.021 416.608 437.625C414.848 455.23 398.419 468.183 379.867 466.502C361.315 464.821 347.748 449.15 349.508 431.546Z" stroke="#00889A"/>
<path d="M150.881 431.389C153.292 407.275 175.791 389.546 201.181 391.847C226.571 394.148 245.154 415.598 242.743 439.713C240.332 463.827 217.833 481.555 192.443 479.255C167.053 476.954 148.47 455.504 150.881 431.389Z" stroke="#00889A"/>
<path d="M283.714 464.834C284.497 456.994 291.82 451.203 300.115 451.955C308.41 452.706 314.454 459.708 313.67 467.548C312.887 475.388 305.564 481.179 297.269 480.427C288.973 479.676 282.93 472.674 283.714 464.834Z" stroke="#00889A"/>
<path d="M312.361 390.715C312.592 388.408 314.754 386.676 317.237 386.901C319.72 387.126 321.501 389.215 321.27 391.522C321.04 393.829 318.877 395.561 316.394 395.336C313.911 395.111 312.131 393.021 312.361 390.715Z" stroke="#00889A"/>
<path d="M440.886 367.273C441.67 359.433 448.993 353.642 457.288 354.394C465.583 355.146 471.627 362.147 470.843 369.988C470.059 377.828 462.737 383.618 454.442 382.867C446.146 382.115 440.103 375.113 440.886 367.273Z" stroke="#00889A"/>
<path d="M120.568 297.216C120.799 294.909 122.961 293.177 125.444 293.402C127.927 293.627 129.708 295.716 129.477 298.023C129.247 300.33 127.084 302.062 124.601 301.837C122.118 301.612 120.338 299.523 120.568 297.216Z" stroke="#00889A"/>
<path d="M176.756 322.526C178.093 309.153 190.576 299.303 204.683 300.581C218.791 301.86 229.098 313.774 227.761 327.147C226.424 340.521 213.941 350.37 199.834 349.092C185.726 347.814 175.419 335.9 176.756 322.526Z" stroke="#00889A"/>
<path d="M345.373 322.937C346.157 315.097 353.479 309.307 361.774 310.058C370.07 310.81 376.113 317.812 375.329 325.652C374.546 333.492 367.223 339.282 358.928 338.531C350.633 337.779 344.589 330.778 345.373 322.937Z" stroke="#00889A"/>
<path d="M112.322 429.68C112.553 427.373 114.715 425.641 117.198 425.866C119.681 426.091 121.462 428.18 121.231 430.487C121.001 432.794 118.838 434.526 116.355 434.301C113.872 434.076 112.092 431.986 112.322 429.68Z" stroke="#00889A"/>
<path d="M52.2423 380.823C54.0023 363.218 70.4309 350.265 88.983 351.946C107.535 353.627 121.102 369.298 119.342 386.903C117.582 404.508 101.154 417.461 82.6015 415.78C64.0494 414.099 50.4823 398.428 52.2423 380.823Z" stroke="#00889A"/>
<path d="M349.508 431.546C351.268 413.941 367.697 400.988 386.249 402.669C404.801 404.35 418.368 420.021 416.608 437.625C414.848 455.23 398.419 468.183 379.867 466.502C361.315 464.821 347.748 449.15 349.508 431.546Z" stroke="#00889A"/>
<path d="M150.881 431.389C153.292 407.275 175.791 389.546 201.181 391.847C226.571 394.148 245.154 415.598 242.743 439.713C240.332 463.827 217.833 481.555 192.443 479.255C167.053 476.954 148.47 455.504 150.881 431.389Z" stroke="#00889A"/>
<path d="M283.714 464.834C284.497 456.994 291.82 451.203 300.115 451.955C308.41 452.706 314.454 459.708 313.67 467.548C312.887 475.388 305.564 481.179 297.269 480.427C288.973 479.676 282.93 472.674 283.714 464.834Z" fill="#DFFDFF" stroke="#00889A"/>
<path d="M312.361 390.715C312.592 388.408 314.754 386.676 317.237 386.901C319.72 387.126 321.501 389.215 321.27 391.522C321.04 393.829 318.877 395.561 316.394 395.336C313.911 395.111 312.131 393.021 312.361 390.715Z" stroke="#00889A"/>
<path d="M440.886 367.273C441.67 359.433 448.993 353.642 457.288 354.394C465.583 355.146 471.627 362.147 470.843 369.988C470.059 377.828 462.737 383.618 454.442 382.867C446.146 382.115 440.103 375.113 440.886 367.273Z" fill="#DFFDFF" stroke="#00889A"/>
<path d="M120.568 297.216C120.799 294.909 122.961 293.177 125.444 293.402C127.927 293.627 129.708 295.716 129.477 298.023C129.247 300.33 127.084 302.062 124.601 301.837C122.118 301.612 120.338 299.523 120.568 297.216Z" fill="#DFFDFF" stroke="#00889A"/>
<path d="M176.756 322.526C178.093 309.153 190.576 299.303 204.683 300.581C218.791 301.86 229.098 313.774 227.761 327.147C226.424 340.521 213.941 350.37 199.834 349.092C185.726 347.814 175.419 335.9 176.756 322.526Z" stroke="#00889A"/>
<path d="M345.373 322.937C346.157 315.097 353.479 309.307 361.774 310.058C370.07 310.81 376.113 317.812 375.329 325.652C374.546 333.492 367.223 339.282 358.928 338.531C350.633 337.779 344.589 330.778 345.373 322.937Z" stroke="#00889A"/>
<path d="M112.322 429.68C112.553 427.373 114.715 425.641 117.198 425.866C119.681 426.091 121.462 428.18 121.231 430.487C121.001 432.794 118.838 434.526 116.355 434.301C113.872 434.076 112.092 431.986 112.322 429.68Z" fill="#DFFDFF" stroke="#00889A"/>
<path d="M52.2423 380.823C54.0023 363.218 70.4309 350.265 88.983 351.946C107.535 353.627 121.102 369.298 119.342 386.903C117.582 404.508 101.154 417.461 82.6015 415.78C64.0494 414.099 50.4823 398.428 52.2423 380.823Z" stroke="#00889A"/>
<path d="M1746.16 157.967C1747.92 140.362 1764.35 127.409 1782.9 129.09C1801.45 130.771 1815.02 146.442 1813.26 164.047C1811.5 181.652 1795.07 194.605 1776.52 192.924C1757.97 191.243 1744.4 175.572 1746.16 157.967Z" stroke="#00889A"/>
<path d="M1623.18 392.608C1623.96 384.768 1631.28 378.977 1639.58 379.729C1647.88 380.48 1653.92 387.482 1653.14 395.322C1652.35 403.162 1645.03 408.953 1636.73 408.201C1628.44 407.45 1622.39 400.448 1623.18 392.608Z" stroke="#00889A"/>
<path d="M1651.83 318.489C1652.06 316.182 1654.22 314.45 1656.7 314.675C1659.19 314.9 1660.97 316.989 1660.74 319.296C1660.5 321.603 1658.34 323.335 1655.86 323.11C1653.38 322.885 1651.6 320.796 1651.83 318.489Z" stroke="#00889A"/>
<path d="M1761.81 358.985C1762.59 351.145 1769.91 345.354 1778.21 346.106C1786.5 346.857 1792.55 353.859 1791.76 361.699C1790.98 369.539 1783.66 375.33 1775.36 374.578C1767.07 373.827 1761.02 366.825 1761.81 358.985Z" stroke="#00889A"/>
<path d="M1460.03 224.99C1460.26 222.683 1462.43 220.951 1464.91 221.176C1467.39 221.401 1469.17 223.491 1468.94 225.797C1468.71 228.104 1466.55 229.836 1464.07 229.611C1461.58 229.386 1459.8 227.297 1460.03 224.99Z" stroke="#00889A"/>
<path d="M1516.22 250.301C1517.56 236.927 1530.04 227.078 1544.15 228.356C1558.25 229.634 1568.56 241.549 1567.22 254.922C1565.89 268.296 1553.41 278.145 1539.3 276.867C1525.19 275.588 1514.88 263.674 1516.22 250.301Z" stroke="#00889A"/>
<path d="M1684.84 250.711C1685.62 242.871 1692.94 237.081 1701.24 237.832C1709.53 238.584 1715.58 245.586 1714.79 253.426C1714.01 261.266 1706.69 267.056 1698.39 266.305C1690.1 265.553 1684.05 258.551 1684.84 250.711Z" stroke="#00889A"/>
<path d="M1487.19 377.73C1487.42 375.423 1489.58 373.691 1492.07 373.916C1494.55 374.141 1496.33 376.23 1496.1 378.537C1495.87 380.844 1493.71 382.576 1491.22 382.351C1488.74 382.126 1486.96 380.036 1487.19 377.73Z" stroke="#00889A"/>
<path d="M1391.71 308.597C1393.47 290.992 1409.9 278.039 1428.45 279.72C1447 281.401 1460.57 297.072 1458.81 314.677C1457.05 332.282 1440.62 345.235 1422.07 343.554C1403.51 341.873 1389.95 326.202 1391.71 308.597Z" stroke="#00889A"/>
<path d="M1746.16 157.967C1747.92 140.362 1764.35 127.409 1782.9 129.09C1801.45 130.771 1815.02 146.442 1813.26 164.047C1811.5 181.652 1795.07 194.605 1776.52 192.924C1757.97 191.243 1744.4 175.572 1746.16 157.967Z" stroke="#00889A"/>
<path d="M1623.18 392.608C1623.96 384.768 1631.28 378.977 1639.58 379.729C1647.88 380.48 1653.92 387.482 1653.14 395.322C1652.35 403.162 1645.03 408.953 1636.73 408.201C1628.44 407.45 1622.39 400.448 1623.18 392.608Z" fill="#DFFDFF" stroke="#00889A"/>
<path d="M1651.83 318.489C1652.06 316.182 1654.22 314.45 1656.7 314.675C1659.19 314.9 1660.97 316.989 1660.74 319.296C1660.5 321.603 1658.34 323.335 1655.86 323.11C1653.38 322.885 1651.6 320.796 1651.83 318.489Z" stroke="#00889A"/>
<path d="M1780.35 260.71C1781.14 252.87 1788.46 247.08 1796.75 247.831C1805.05 248.583 1811.09 255.585 1810.31 263.425C1809.52 271.265 1802.2 277.055 1793.91 276.304C1785.61 275.552 1779.57 268.55 1780.35 260.71Z" fill="#DFFDFF" stroke="#00889A"/>
<path d="M1460.03 224.99C1460.26 222.683 1462.43 220.951 1464.91 221.176C1467.39 221.401 1469.17 223.491 1468.94 225.797C1468.71 228.104 1466.55 229.836 1464.07 229.611C1461.58 229.386 1459.8 227.297 1460.03 224.99Z" fill="#DFFDFF" stroke="#00889A"/>
<path d="M1516.22 250.301C1517.56 236.927 1530.04 227.078 1544.15 228.356C1558.25 229.634 1568.56 241.549 1567.22 254.922C1565.89 268.296 1553.41 278.145 1539.3 276.867C1525.19 275.588 1514.88 263.674 1516.22 250.301Z" stroke="#00889A"/>
<path d="M1684.84 250.711C1685.62 242.871 1692.94 237.081 1701.24 237.832C1709.53 238.584 1715.58 245.586 1714.79 253.426C1714.01 261.266 1706.69 267.056 1698.39 266.305C1690.1 265.553 1684.05 258.551 1684.84 250.711Z" stroke="#00889A"/>
<path d="M1448.64 433.379C1448.87 431.072 1451.03 429.34 1453.51 429.565C1455.99 429.79 1457.78 431.88 1457.54 434.186C1457.31 436.493 1455.15 438.225 1452.67 438C1450.19 437.775 1448.41 435.686 1448.64 433.379Z" fill="#DFFDFF" stroke="#00889A"/>
<path d="M1391.71 308.597C1393.47 290.992 1409.9 278.039 1428.45 279.72C1447 281.401 1460.57 297.072 1458.81 314.677C1457.05 332.282 1440.62 345.235 1422.07 343.554C1403.51 341.873 1389.95 326.202 1391.71 308.597Z" stroke="#00889A"/>
<defs>
<linearGradient id="paint0_linear_1737_39279" x1="908.5" y1="0" x2="908.5" y2="497" gradientUnits="userSpaceOnUse">
<stop offset="0.608103" stop-color="white"/>
<stop offset="1" stop-color="#2DCCD7"/>
</linearGradient>
<linearGradient id="paint1_linear_1737_39279" x1="908.5" y1="0" x2="908.5" y2="497" gradientUnits="userSpaceOnUse">
<stop offset="0.608103" stop-color="white"/>
<stop offset="1" stop-color="#2DCCD7"/>
</linearGradient>
</defs>
</svg>
