<svg width="61" height="58" viewBox="0 0 61 58" fill="none" xmlns="http://www.w3.org/2000/svg">
<path d="M9.12261 5.34607C10.9879 5.34607 12.5054 6.78893 12.5054 8.56246C12.5054 10.336 10.9879 11.7789 9.12261 11.7789C7.25734 11.7789 5.73985 10.336 5.73985 8.56246C5.73985 6.78905 7.25734 5.34607 9.12261 5.34607ZM9.12261 9.96523C9.93598 9.96523 10.5977 9.33595 10.5977 8.56258C10.5977 7.78921 9.93598 7.16016 9.12261 7.16016C8.30924 7.16016 7.64753 7.78932 7.64753 8.56269C7.64753 9.33606 8.30936 9.96523 9.12261 9.96523Z" fill="#66969C"/>
<path d="M21.4976 6.19275C22.059 6.19275 22.5156 6.62696 22.5156 7.16074C22.5156 7.69452 22.059 8.12873 21.4976 8.12873C20.9362 8.12873 20.4795 7.69452 20.4795 7.16074C20.4795 6.62696 20.9362 6.19275 21.4976 6.19275Z" fill="#66969C"/>
<path d="M42.0703 26.6003C42.6317 26.6003 43.0884 27.0345 43.0884 27.5683C43.0884 28.1021 42.6317 28.5363 42.0703 28.5363C41.5089 28.5363 41.0523 28.1021 41.0523 27.5683C41.0523 27.0345 41.5091 26.6003 42.0703 26.6003Z" fill="#66969C"/>
<path d="M54.6133 33.4994C55.1747 33.4994 55.6313 33.9336 55.6313 34.4674C55.6313 35.0012 55.1747 35.4354 54.6133 35.4354C54.0519 35.4354 53.5952 35.0012 53.5952 34.4674C53.5952 33.9336 54.0519 33.4994 54.6133 33.4994Z" fill="#66969C"/>
<path d="M0.174612 25.685C0.478182 25.2758 -0.129316 26.0941 0.174612 25.685V25.685Z" fill="#66969C"/>
<path d="M0.174797 25.6849C0.478485 25.2758 1.07335 25.178 1.50404 25.4669C2.23188 25.9554 3.28639 26.4922 4.433 27.0098C4.61755 27.036 4.78685 27.1131 4.92279 27.2273C6.573 27.9485 8.34224 28.6117 9.57309 29.0247C17.0607 31.537 25.6878 33.8114 34.5221 35.6013C43.8117 37.4837 52.6556 38.6816 60.0978 39.0656C60.6238 39.0927 61.0271 39.5202 60.9986 40.0203C60.9709 40.5038 60.5501 40.8782 60.047 40.8782C60.0296 40.8782 60.012 40.8779 59.9945 40.8769C58.013 40.7747 55.9417 40.6155 53.8027 40.4049C53.7838 40.4353 41.6908 55.4597 41.6908 55.4597C41.2237 56.0397 40.2299 55.86 40.0171 55.1603C40.0171 55.1603 34.6037 37.4822 34.5627 37.474L30.4203 54.3566C30.2526 55.0409 29.3224 55.2879 28.8065 54.7818L23.8248 49.8944L16.8778 52.1429C16.1826 52.368 15.4746 51.7582 15.6415 51.0783L19.7671 34.265L6.82629 47.6075C6.27634 48.1743 5.24863 47.8398 5.17524 47.075L3.3966 28.5489C2.25725 28.027 1.18856 27.4753 0.404259 26.949C-0.026432 26.6601 -0.129131 26.0941 0.174797 25.6849ZM41.3248 52.93L51.5967 40.1718C46.8647 39.6391 41.8462 38.8681 36.7554 37.9015L41.3248 52.93ZM17.8896 49.8991L23.7817 47.9919C24.1309 47.8791 24.5172 47.9675 24.7741 48.2193L28.9595 52.3256L32.6972 37.0925C29.0011 36.3209 25.2974 35.4533 21.6667 34.5052L17.8896 49.8991ZM6.87931 44.8766L17.9221 33.4911C14.8343 32.6248 11.822 31.7029 8.9383 30.7352C8.07465 30.4455 6.77149 29.9721 5.39447 29.4106L6.87931 44.8766Z" fill="#66969C"/>
<path d="M1.89583 19.5106C1.93836 19.0113 2.39825 18.6402 2.92342 18.6796C5.13622 18.8498 7.33972 18.4841 9.78401 18.0258C25.6787 15.0458 44.5376 8.8715 57.8293 2.29609C58.2966 2.06477 58.8726 2.23752 59.1157 2.68192C59.3589 3.12632 59.1771 3.67404 58.7099 3.90513C57.0035 4.7493 55.206 5.58691 53.3361 6.41205L60.6285 21.8562C60.932 22.4991 60.3475 23.2297 59.6159 23.1244L52.5381 22.1082L48.4461 27.9005C48.0361 28.4806 47.085 28.4033 46.7842 27.7662L39.2962 11.908C39.0557 11.9918 38.815 12.0752 38.5737 12.1584C38.4934 13.4041 37.1046 30.9317 37.1046 30.9317C37.041 31.7021 36.007 32.046 35.4532 31.4761L21.6247 17.2445C21.3283 17.3204 21.0323 17.3953 20.7366 17.4698L22.962 29.3339C23.0533 29.8209 22.702 30.2992 22.1904 30.386C21.6788 30.4728 21.1752 30.1391 21.0839 29.6525L18.8843 17.926C15.9124 18.6426 12.9862 19.2746 10.1535 19.8056C9.35999 19.9544 8.57187 20.0964 7.78674 20.2154L8.78001 24.9077C8.88092 25.3839 8.55543 25.862 8.05778 25.9704C7.54119 26.083 7.01435 25.7597 6.90986 25.2657L5.89014 20.448C5.27239 20.5032 4.65548 20.5353 4.03845 20.5353C3.61598 20.5353 3.19303 20.5204 2.76996 20.4879C2.24467 20.4475 1.8533 20.0099 1.89583 19.5106ZM47.8204 25.5328L51.2911 20.62C51.4966 20.329 51.8597 20.1765 52.2254 20.229L58.1719 21.0829L51.6005 7.16548C48.2699 8.58818 44.735 9.96806 41.088 11.2749L47.8204 25.5328ZM35.3734 28.7213L36.6895 12.797C32.4095 14.2273 28.031 15.5447 23.6952 16.7026L35.3734 28.7213Z" fill="#66969C"/>
<path d="M45.1265 12.188C45.2033 11.6923 45.688 11.3499 46.2095 11.4231L50.6608 12.0474C51.182 12.1204 51.5422 12.5815 51.4652 13.077C51.3952 13.5277 50.9878 13.8517 50.5227 13.8517C50.4764 13.8517 50.4294 13.8485 50.3822 13.842L45.9309 13.2177C45.4098 13.1446 45.0496 12.6835 45.1265 12.188Z" fill="#66969C"/>
<path d="M46.6831 15.884C46.76 15.3883 47.2451 15.0461 47.7661 15.119L52.2174 15.7433C52.7387 15.8163 53.0988 16.2774 53.0219 16.7729C52.9519 17.2236 52.5446 17.5476 52.0795 17.5476C52.0331 17.5476 51.9863 17.5443 51.9389 17.5379L47.4875 16.9136C46.9664 16.8405 46.6063 16.3794 46.6831 15.884Z" fill="#66969C"/>
<path d="M24.4333 37.5633C24.8458 37.2519 25.4461 37.3179 25.7733 37.7102L28.5693 41.0622C28.8967 41.4547 28.8275 42.0251 28.4146 42.3364C28.2394 42.4687 28.0303 42.5329 27.8226 42.5329C27.5413 42.5329 27.2629 42.4152 27.0747 42.1894L24.2787 38.8375C23.9513 38.4449 24.0205 37.8746 24.4333 37.5633Z" fill="#66969C"/>
<path d="M22.9074 41.271C23.32 40.9597 23.9201 41.0255 24.2474 41.4179L27.0434 44.7699C27.3708 45.1624 27.3016 45.7328 26.8888 46.0441C26.7135 46.1764 26.5044 46.2406 26.2968 46.2406C26.0156 46.2406 25.7372 46.1229 25.5488 45.8971L22.7528 42.5451C22.4255 42.1526 22.4946 41.5821 22.9074 41.271Z" fill="#66969C"/>
</svg>
