<svg width="62" height="62" viewBox="0 0 62 62" fill="none" xmlns="http://www.w3.org/2000/svg">
<path d="M61.1572 16.1706C60.6161 16.0897 60.113 16.4619 60.032 17.0023L57.1903 35.9468H50.3292L50.1858 32.6489H50.4716C50.7415 32.6489 50.9995 32.5386 51.1861 32.3438C51.3727 32.1488 51.4716 31.8862 51.4601 31.6165L51.116 23.7017C51.0929 23.1726 50.6572 22.7553 50.1275 22.7553H41.8829V19.2873C43.0344 18.8789 43.8615 17.7791 43.8615 16.4895V13.1916C43.8615 12.6451 43.4186 12.2023 42.8722 12.2023H38.9147C38.3684 12.2023 37.9254 12.6451 37.9254 13.1916V16.4895C37.9254 17.7792 38.7526 18.879 39.9041 19.2873V22.7553H34.6275V13.1916C34.6275 11.5343 33.51 10.1341 31.9893 9.70216V3.9576C31.9893 3.4111 31.5463 2.96826 30.9999 2.96826C30.4536 2.96826 30.0106 3.4111 30.0106 3.9576V9.70216C28.4899 10.1341 27.3723 11.5343 27.3723 13.1916V22.7553H22.0958V19.2873C23.2473 18.8789 24.0745 17.7791 24.0745 16.4895V13.1916C24.0745 12.6451 23.6315 12.2023 23.0851 12.2023H19.1277C18.5813 12.2023 18.1383 12.6451 18.1383 13.1916V16.4895C18.1383 17.7792 18.9655 18.879 20.117 19.2873V22.7553H11.8723C11.3425 22.7553 10.907 23.1726 10.8838 23.7017L10.5398 31.6165C10.5282 31.8862 10.627 32.1488 10.8137 32.3438C11.0003 32.5387 11.2585 32.6489 11.5283 32.6489H11.8142L11.6708 35.9468H4.80953L1.96783 17.0023C1.88669 16.4619 1.38379 16.0894 0.842623 16.1706C0.302303 16.2516 -0.0699394 16.7555 0.0110723 17.2957L2.96818 37.0099V58.0423C2.96818 58.5888 3.41114 59.0316 3.95752 59.0316C4.50389 59.0316 4.94685 58.5888 4.94685 58.0423V41.8828H11.4127L10.884 54.0419C10.8723 54.3115 10.9711 54.5742 11.1578 54.7691C11.3444 54.9641 11.6025 55.0743 11.8723 55.0743C13.0948 55.0743 14.0468 54.9097 14.8405 54.6671V58.0423C14.8405 58.5888 15.2834 59.0316 15.8298 59.0316C16.3762 59.0316 16.8191 58.5888 16.8191 58.0423V53.8035C16.925 53.746 17.0296 53.6886 17.1323 53.6319C18.0991 53.0986 18.9586 52.6269 20.447 52.4823V58.0423C20.447 58.5888 20.8899 59.0316 21.4363 59.0316C21.9827 59.0316 22.4256 58.5888 22.4256 58.0423V52.4823C23.9141 52.6269 24.7735 53.0985 25.7403 53.6321C26.9657 54.308 28.3545 55.0743 31.0003 55.0743C33.6461 55.0743 35.0348 54.308 36.2601 53.6319C37.2267 53.0988 38.0861 52.627 39.574 52.4824V58.0423C39.574 58.5888 40.0169 59.0316 40.5633 59.0316C41.1097 59.0316 41.5526 58.5888 41.5526 58.0423V52.4823C43.0412 52.6267 43.9009 53.0985 44.8678 53.6321C44.9705 53.6886 45.0749 53.746 45.1806 53.8034V58.0425C45.1806 58.589 45.6236 59.0319 46.1699 59.0319C46.7163 59.0319 47.1593 58.589 47.1593 58.0425V54.6671C47.9529 54.9097 48.9049 55.0744 50.1274 55.0744C50.3973 55.0744 50.6554 54.9641 50.842 54.7693C51.0286 54.5743 51.1274 54.3116 51.1159 54.042L50.5873 41.8829H57.053V58.0424C57.053 58.5889 57.496 59.0318 58.0423 59.0318C58.5887 59.0318 59.0317 58.5889 59.0317 58.0424V37.01L61.9888 17.2958C62.0698 16.7555 61.6976 16.2515 61.1572 16.1706ZM11.4986 39.9042H4.94685V37.9255H11.5846L11.4986 39.9042ZM39.9041 14.1809H41.8827V16.4895C41.8827 17.0351 41.4389 17.4788 40.8934 17.4788C40.3479 17.4788 39.9041 17.035 39.9041 16.4895V14.1809ZM29.351 13.1916C29.351 12.2823 30.0906 11.5427 30.9999 11.5427C31.9092 11.5427 32.6489 12.2823 32.6489 13.1916V22.7553H29.351V13.1916ZM20.117 14.1809H22.0957V16.4895C22.0957 17.0351 21.6519 17.4788 21.1063 17.4788C20.5608 17.4788 20.117 17.035 20.117 16.4895V14.1809ZM45.1918 32.6491H48.2053L49.0922 53.0462C47.6307 52.8967 46.7809 52.4277 45.8237 51.8997C44.5985 51.2236 43.2098 50.4574 40.564 50.4574C37.9179 50.4576 36.5294 51.2236 35.3042 51.8997C34.141 52.5414 33.1363 53.0956 31.0004 53.0956C28.8642 53.0956 27.8595 52.5414 26.6963 51.8997C25.4709 51.2236 24.0821 50.4574 21.4362 50.4574C18.7904 50.4574 17.4016 51.2236 16.1762 51.8997C15.9006 52.0517 15.6339 52.1984 15.3587 52.3345C14.6779 52.6712 13.9478 52.9398 12.9076 53.0462L13.7944 32.6491H41.2341C41.7804 32.6491 42.2234 32.2062 42.2234 31.6597C42.2234 31.1132 41.7804 30.6704 41.2341 30.6704H12.5616L12.8198 24.7343H49.1802L49.4384 30.6704H45.1918C44.6454 30.6704 44.2024 31.1132 44.2024 31.6597C44.2024 32.2062 44.6454 32.6491 45.1918 32.6491ZM57.0531 39.9042H50.5014L50.4154 37.9255H57.0531V39.9042Z" fill="#66969C"/>
</svg>
