<svg width="62" height="62" viewBox="0 0 62 62" fill="none" xmlns="http://www.w3.org/2000/svg">
<path d="M60.8902 55.372H58.7423L60.1256 49.776C60.1962 49.4902 60.1503 49.188 59.998 48.9359C59.8458 48.6839 59.5997 48.5027 59.3138 48.4321C59.028 48.3615 58.7258 48.4074 58.4737 48.5597C58.2217 48.7119 58.0405 48.958 57.9699 49.2439L57.5515 50.9379C54.5552 48.9026 45.6998 42.1858 40.1982 31.0388C40.191 31.0239 40.1799 31.0122 40.1727 30.9978L32.3522 14.7543L33.9203 11.5065C33.9892 11.3748 34.0308 11.2305 34.0429 11.0823C34.0549 10.9341 34.037 10.785 33.9903 10.6439C33.9436 10.5027 33.869 10.3724 33.7709 10.2607C33.6728 10.1489 33.5533 10.058 33.4194 9.99331C33.2856 9.92864 33.1401 9.89154 32.9916 9.88419C32.8431 9.87684 32.6946 9.89941 32.555 9.95055C32.4154 10.0017 32.2875 10.0804 32.1789 10.1819C32.0703 10.2834 31.9832 10.4058 31.9227 10.5416L31.1221 12.1996L27.6752 5.03443C27.54 4.78235 27.3127 4.59221 27.0407 4.50367C26.7687 4.41512 26.473 4.43501 26.2153 4.55919C25.9577 4.68338 25.7579 4.90227 25.6577 5.17019C25.5575 5.4381 25.5646 5.73435 25.6776 5.99714L29.8947 14.7543L21.7291 31.6625C18.8221 37.2264 14.956 42.2335 10.3085 46.4534C8.80224 47.8366 7.21686 49.1311 5.56042 50.3303C5.23304 50.5667 4.94507 50.7665 4.69427 50.9374L4.2759 49.2439C4.24406 49.0992 4.18355 48.9624 4.098 48.8415C4.01245 48.7206 3.90356 48.618 3.77775 48.5399C3.65194 48.4617 3.51179 48.4095 3.36549 48.3864C3.21919 48.3632 3.06972 48.3696 2.92593 48.4051C2.78213 48.4406 2.64692 48.5046 2.52822 48.5932C2.40953 48.6818 2.30977 48.7933 2.23483 48.921C2.1599 49.0488 2.11128 49.1903 2.09188 49.3371C2.07247 49.4839 2.08268 49.6332 2.12185 49.776L3.50461 55.372H1.11586C0.821536 55.372 0.539247 55.4889 0.331127 55.697C0.123006 55.9051 0.00610352 56.1874 0.00610352 56.4817C0.00610352 56.7761 0.123006 57.0583 0.331127 57.2664C0.539247 57.4746 0.821536 57.5915 1.11586 57.5915H60.8902C61.1846 57.5915 61.4668 57.4746 61.675 57.2664C61.8831 57.0583 62 56.7761 62 56.4817C62 56.1874 61.8831 55.9051 61.675 55.697C61.4668 55.4889 61.1846 55.372 60.8902 55.372ZM5.78516 55.372L5.25416 53.2246C9.08861 50.6705 12.5853 47.6426 15.6615 44.2128L10.2719 55.372H5.78516ZM26.9444 55.372C28.5684 52.1251 29.8474 48.7169 30.7603 45.2033C31.6721 48.7171 32.9507 52.1254 34.5751 55.372H26.9444ZM37.0687 55.372C36.9278 55.1073 36.7358 54.7405 36.5038 54.2705C34.9879 51.2276 31.9577 44.1928 31.87 37.3623V35.4674C31.87 35.173 31.7531 34.8908 31.545 34.6826C31.3369 34.4745 31.0546 34.3576 30.7603 34.3576C30.466 34.3576 30.1837 34.4745 29.9755 34.6826C29.7674 34.8908 29.6505 35.173 29.6505 35.4674C29.6505 35.4674 29.6505 35.4673 29.6505 37.3323C29.6505 37.3417 29.6505 37.3506 29.6505 37.36C29.5917 41.8973 28.2339 46.5483 26.8761 50.0407C26.1964 51.7919 25.52 53.2518 25.0151 54.2705C24.782 54.7411 24.5906 55.1078 24.4496 55.372H12.7361L23.7277 32.6119C23.8287 32.4149 23.9325 32.2235 24.0313 32.0221C24.0567 31.9684 24.0776 31.9127 24.0939 31.8556L31.1154 17.3084L49.4431 55.3731L37.0687 55.372ZM56.4556 55.372H51.9056L46.4806 44.1079C49.5803 47.5812 53.1098 50.6455 56.9839 53.2268L56.4556 55.372ZM34.2411 8.27826C34.5063 8.40556 34.8113 8.42229 35.0889 8.32479C35.3665 8.2273 35.594 8.02354 35.7215 7.75833L36.5688 5.9966C36.6347 5.86492 36.6737 5.72145 36.6836 5.57454C36.6935 5.42764 36.6741 5.28023 36.6264 5.14091C36.5788 5.00159 36.5039 4.87313 36.4061 4.76304C36.3083 4.65294 36.1896 4.56342 36.0569 4.49965C35.9242 4.43589 35.7801 4.39918 35.6331 4.39165C35.486 4.38412 35.3389 4.40592 35.2004 4.45579C35.0619 4.50567 34.9346 4.58261 34.8261 4.68215C34.7176 4.78168 34.63 4.90181 34.5684 5.03553L33.7222 6.79728C33.5947 7.06248 33.5777 7.36747 33.675 7.6452C33.7723 7.92292 33.9759 8.15064 34.2411 8.27826Z" fill="#66969C"/>
</svg>
