<svg width="62" height="62" viewBox="0 0 62 62" fill="none" xmlns="http://www.w3.org/2000/svg">
<g clip-path="url(#clip0_594_24266)">
<path d="M53.8988 34.2466V25.9271C53.8988 20.5129 51.9747 15.2591 48.4809 11.1335C45.2566 7.32581 40.8719 4.67155 36.0448 3.58268C36.0633 3.44609 36.0758 3.30162 36.0758 3.14408C36.0756 1.41038 34.6783 0 32.9605 0C32.1263 0 31.5021 0.303824 30.9899 0.689266C30.4635 0.29002 29.8591 0 29.0237 0C27.3087 0 25.9133 1.41038 25.9133 3.14408C25.9133 3.30295 25.9233 3.44875 25.9401 3.58365C21.1137 4.67325 16.73 7.32799 13.5064 11.1355C10.0138 15.2608 8.09036 20.514 8.09036 25.9271V29.9134V34.1976L5.38403 58.7937H8.09036V61.1382H9.93377V58.7937H15.6729L12.9502 34.1968V31.3199C22.2695 24.8747 26.9112 18.7086 29.1689 14.6469C30.0059 13.1412 30.5874 11.807 30.9927 10.6892C31.398 11.807 31.9795 13.1412 32.8165 14.6469C35.0739 18.7084 39.7152 24.8741 49.0334 31.3188V34.1977L46.327 58.7938H52.0554V61.1383H53.8988V58.7938H56.6159L53.8988 34.2466ZM9.93377 31.7567H11.1069V33.3262H9.93377V31.7567ZM13.6142 56.9503H7.44129L9.83786 35.1695H11.2032L13.6142 56.9503ZM27.4829 13.885C25.3002 17.7653 20.7979 23.6825 11.7406 29.9134H9.93377V25.9271C9.93377 15.9024 16.941 7.32956 26.6833 5.30875C27.4396 6.30305 28.902 7.62019 29.782 8.3786C29.4655 9.60734 28.8136 11.5193 27.4829 13.885ZM30.9926 6.91639L30.9036 6.91082C29.6783 5.84641 28.2413 4.47805 27.9663 3.92126L27.9572 3.90285C27.8409 3.66732 27.7567 3.49694 27.7567 3.14396C27.7568 2.41461 28.3133 1.84329 29.0237 1.84329C29.4976 1.84329 29.7733 2.02711 30.3608 2.57942L30.9992 3.17944L31.6309 2.57227C32.1445 2.07833 32.4745 1.84329 32.9605 1.84329C33.6736 1.84329 34.2323 2.41461 34.2323 3.14396C34.2323 3.4697 34.1375 3.6695 34.0274 3.90079L34.0114 3.93446C33.7749 4.43336 32.4204 5.75522 31.0841 6.91058L30.9926 6.91639ZM34.5022 13.885C33.1719 11.52 32.5202 9.60891 32.2035 8.37993C33.087 7.62152 34.5531 6.30511 35.3055 5.30863C45.0482 7.32932 52.0553 15.9014 52.0553 25.927V29.9133H50.2444C41.1875 23.6825 36.6851 17.7653 34.5022 13.885ZM52.0498 31.7567V33.3262H52.0497H50.8767V31.7567H52.0498ZM48.3842 56.9503L50.7808 35.1695H52.1461L54.5571 56.9503H48.3842Z" fill="#66969C"/>
<path d="M34.5454 46.4353V46.0794H42.2902V44.236H34.5454H27.4434H19.6987V46.0794H27.4434V46.4353C27.4434 48.0747 28.5602 49.4575 30.0728 49.8645V57.9843L26.4123 60.4761L27.4496 62L30.9925 59.5882L34.5353 62L35.5725 60.4761L31.9159 57.9868V49.8643C33.4285 49.4573 34.5454 48.0746 34.5454 46.4353ZM30.9945 48.143C30.0527 48.143 29.2868 47.377 29.2868 46.4353V46.0794H32.7021V46.4353C32.7021 47.3768 31.9362 48.143 30.9945 48.143Z" fill="#66969C"/>
</g>
<defs>
<clipPath id="clip0_594_24266">
<rect width="62" height="62" fill="white"/>
</clipPath>
</defs>
</svg>
